<svg width="32" height="28" viewBox="0 0 32 28" fill="none" xmlns="http://www.w3.org/2000/svg">
<g clip-path="url(#clip0_188_43)">
<path d="M14.1979 15.5547C17.5501 15.5547 20.9016 15.5598 24.2531 15.5466C24.5992 15.5466 24.6984 15.6232 24.603 15.9477C24.5499 16.1597 24.5108 16.3748 24.4859 16.5916C24.2839 17.8604 23.3289 18.6684 22.0083 18.6691C17.5681 18.672 13.1282 18.672 8.6886 18.6691C7.162 18.6691 5.6354 18.6691 4.1088 18.6691C3.62605 18.6691 3.33249 18.8667 3.22663 19.2459C3.19549 19.3509 3.18817 19.4612 3.20518 19.5692C3.22218 19.6772 3.26311 19.7804 3.32513 19.8715C3.38715 19.9627 3.4688 20.0397 3.56443 20.0972C3.66006 20.1548 3.76741 20.1915 3.87906 20.2048C3.99106 20.2156 4.10365 20.2195 4.21616 20.2165C10.1193 20.2165 16.0225 20.2165 21.9257 20.2165C24.0482 20.2165 25.6571 18.9608 26.037 16.9978C26.2397 15.9492 26.4004 14.8926 26.5806 13.8403C27.1412 10.5628 27.7027 7.28525 28.2653 4.00771C28.3013 3.75536 28.3514 3.50512 28.4155 3.25809C28.7068 2.25398 29.6092 1.59551 30.7264 1.55977C30.9141 1.55321 31.1018 1.56415 31.2888 1.54811C31.4842 1.53612 31.6674 1.45134 31.8002 1.31142C31.9329 1.1715 32.0049 0.987243 32.0012 0.797026C32.0096 0.606564 31.943 0.420148 31.815 0.275637C31.687 0.131126 31.5072 0.0393552 31.312 0.0189647C28.9906 -0.185942 27.3884 1.14194 26.8914 2.80161C26.8163 3.05683 26.7112 3.13194 26.4409 3.13121C18.0246 3.12392 9.60781 3.12197 1.1905 3.12538C1.09064 3.12538 0.990037 3.12538 0.890183 3.12538C0.200961 3.13777 -0.135391 3.56873 0.0545574 4.21918C0.748784 6.59493 1.44651 8.97019 2.14775 11.345C2.4861 12.4976 2.82571 13.6502 3.16657 14.8029C3.34075 15.3928 3.55097 15.5532 4.17938 15.5532L14.1979 15.5547ZM1.85569 4.67931H8.68784C14.5169 4.67931 20.3458 4.67931 26.1744 4.67931C26.3884 4.67931 26.5498 4.64796 26.4912 4.97099C25.9832 7.85864 25.4864 10.7512 25.0009 13.6485C24.9551 13.9198 24.871 14.0131 24.5625 14.0131C18.0336 14.0015 11.5045 14.0015 4.97521 14.0131C4.69967 14.0131 4.57429 13.965 4.4917 13.6755C3.84227 11.415 3.16657 9.15444 2.50062 6.89828C2.28514 6.16616 2.07642 5.43477 1.85569 4.67931Z" fill="#05003E"/>
<path d="M22.3873 21.7892C21.5393 21.7959 20.7287 22.1296 20.134 22.7168C19.5393 23.3041 19.2091 24.0967 19.216 24.9204C19.223 25.7441 19.5666 26.5313 20.1712 27.1089C20.7758 27.6866 21.5918 28.0073 22.4399 28.0005C23.288 27.9938 24.0985 27.6601 24.6932 27.0729C25.288 26.4856 25.6182 25.693 25.6112 24.8693C25.6043 24.0456 25.2607 23.2584 24.6561 22.6808C24.0515 22.1031 23.2354 21.7824 22.3873 21.7892V21.7892ZM22.4016 23.3373C22.7193 23.3363 23.0301 23.427 23.2947 23.5979C23.5592 23.7688 23.7654 24.0122 23.8872 24.2972C24.0091 24.5822 24.0409 24.8959 23.9788 25.1985C23.9167 25.5011 23.7634 25.779 23.5384 25.9968C23.3134 26.2146 23.0268 26.3626 22.715 26.4219C22.4033 26.4812 22.0804 26.4493 21.7874 26.33C21.4943 26.2108 21.2444 26.0096 21.0693 25.7521C20.8942 25.4947 20.8019 25.1925 20.8039 24.8839C20.8086 24.4743 20.9786 24.0827 21.2774 23.7935C21.5762 23.5043 21.9798 23.3405 22.4016 23.3373Z" fill="#05003E"/>
<path d="M7.97741 21.7892C7.12935 21.7961 6.31888 22.13 5.72428 22.7174C5.12969 23.3047 4.79967 24.0974 4.80684 24.9211C4.81401 25.7448 5.15777 26.532 5.76251 27.1095C6.36724 27.687 7.18341 28.0075 8.03146 28.0005C8.87952 27.9936 9.68999 27.6597 10.2846 27.0723C10.8792 26.485 11.2092 25.6923 11.202 24.8686C11.1949 24.0449 10.8511 23.2578 10.2464 22.6802C9.64163 22.1027 8.82546 21.7822 7.97741 21.7892V21.7892ZM6.3895 24.8963C6.3854 24.689 6.42398 24.483 6.50295 24.2903C6.58193 24.0976 6.69971 23.9222 6.84941 23.7744C6.9991 23.6265 7.17768 23.5092 7.37468 23.4293C7.57168 23.3493 7.78314 23.3084 7.99664 23.3089C8.21014 23.3094 8.42139 23.3513 8.618 23.4321C8.81461 23.5129 8.99263 23.6311 9.1416 23.7796C9.29058 23.9281 9.40752 24.1041 9.48557 24.2971C9.56361 24.4901 9.60119 24.6963 9.5961 24.9036C9.5861 25.3108 9.41229 25.698 9.1119 25.9822C8.81152 26.2664 8.40847 26.425 7.98913 26.424C7.56978 26.4231 7.1675 26.2626 6.86849 25.9771C6.56948 25.6915 6.39753 25.3035 6.3895 24.8963V24.8963Z" fill="#05003E"/>
</g>
<defs>
<clipPath id="clip0_188_43">
<rect width="32" height="28" fill="white" transform="matrix(-1 0 0 1 32 0)"/>
</clipPath>
</defs>
</svg>
