<svg width="1167" height="631" viewBox="0 0 1167 631" fill="none" xmlns="http://www.w3.org/2000/svg">
<path d="M765.599 234.979C755.409 228.432 745.169 221.838 735.815 214.167C733.748 212.474 735.22 206.378 734.972 202.288C734.907 201.719 734.669 201.182 734.289 200.749C727.072 192.114 720.125 183.222 712.516 174.959C702.354 163.912 687.836 156.099 693.377 136.103C695.397 128.863 696.207 127.229 702.562 130.275C714.484 135.992 726.112 142.652 738.546 146.85C745.454 149.173 751.31 151.33 755.442 157.52C756.316 158.825 758.043 159.539 758.378 159.79C761.665 158.804 764.27 157.059 766.204 157.613C771.731 159.181 777.151 161.168 782.556 163.176C763.755 130.359 734.516 97.2435 687.083 62.9857C676.332 58.8583 665.942 54.9754 655.708 50.7549C651.619 49.0678 646.357 47.3484 644.34 43.9644C641.648 39.4407 639.066 34.8442 636.544 30.2117C619.621 20.2726 600.97 10.2021 580.594 0C582.982 5.49476 585.411 11.1029 587.88 16.8246C594.052 21.7459 600.285 26.6137 606.476 31.501L606.013 32.2113C611.781 32.2525 617.544 31.9422 623.271 31.2822C620.994 42.3019 615.461 54.4635 609.669 65.0662C609.136 64.8821 608.602 64.7067 608.069 64.5313C613.64 77.9455 619.169 91.4801 624.5 104.85C634.161 120.991 642.37 138.535 659.253 149.051C661.247 150.293 662.694 152.877 663.771 155.14C671.601 171.874 683.542 184.628 699.606 194.048C701.502 192.731 703.49 191.359 706.594 189.212C718.658 203.337 730.678 217.144 742.326 231.272C744.884 234.376 747.644 238.631 747.641 242.36C747.579 251.173 753.482 254.421 759.482 257.016C764.717 259.3 767.633 270.978 776.234 262.05C776.575 261.697 778.327 262.521 779.283 263.055C781.664 264.411 782.742 263.547 785.955 263.25C789.368 262.933 789.942 260.006 791.833 257.171C798.743 246.809 775.034 234.784 775.034 234.784C770.282 234.95 767.267 236.053 765.599 234.979ZM636.824 60.6048C637.308 59.9176 637.788 59.2258 638.29 58.5222C641.493 60.5048 644.941 62.2033 647.682 64.7121C648.292 65.2779 646.242 68.8009 645.096 71.8144L636.824 60.6048ZM668.364 130.704C667.867 125.697 668.893 120.562 668.922 115.471C668.932 112.633 668.902 109.267 667.505 107.046C661.761 97.8768 655.459 89.0791 649.334 80.0985L663.894 81.2296L684.238 108.096L673.286 123.227C673.967 124.17 675.052 124.987 675.114 125.872C675.292 128.575 675.07 131.309 675.009 134.025C672.68 132.93 668.507 132.033 668.377 130.718L668.364 130.704Z" fill="#05003E"/>
<path d="M2.3192 257.236C5.87753 254.059 10.6744 249.985 14.8252 250.214C24.3362 250.732 30.4775 245.068 37.9036 241.528C44.3452 238.446 51.1221 236.043 57.8234 233.525C62.1069 231.85 66.2457 229.833 70.1989 227.493C75.198 224.567 81.3718 221.419 76.4755 212.474C84.7897 224.182 92.4017 216.211 99.3309 213.212C102.179 211.981 103.316 206.959 105.218 203.671L103.753 201.143C106.545 201.413 109.685 200.934 112.059 202.103C118.435 205.243 130.968 204.44 135.74 199.221C137.053 197.791 135.876 194.26 136.373 191.81C136.87 189.359 138.028 187.029 138.899 184.648C141.521 185.749 145.863 186.286 146.41 187.985C149.02 196.04 152.826 194.545 157.558 190.649C158.17 190.075 158.882 189.618 159.661 189.301C169.078 186.282 171.243 180.965 164.795 172.585C164.08 171.691 164.421 169.989 163.91 165.363C170.582 169.33 175.162 172.333 179.979 174.777C181.867 175.735 184.906 176.484 186.451 175.622C192.619 172.179 196.323 166.987 196.474 159.321C196.652 151.072 199.18 149.57 207.241 151.825C219.187 155.159 225.574 151.432 226.603 139.883C227.092 134.469 230.068 133.279 234.503 133.585C236.166 133.676 237.761 134.517 239.372 135.069C252.235 139.47 255.247 138.245 263.856 123.557L272.743 134.053C273.608 133.324 274.472 132.595 275.332 131.862L272.271 123.062C276.477 121.203 283.037 120.318 285.582 116.609C288.019 113.105 287.427 106.27 285.985 101.514C284.406 96.2978 280.327 91.7753 276.83 86.0901C283.813 85.1166 287.696 87.5757 292.067 92.0175C310.719 110.964 311.041 133.002 305.916 156.332C304.597 162.368 303.652 168.514 302.836 174.652C302.591 176.484 302.689 179.44 303.783 180.241C310.52 185.115 311.869 195.431 321.26 197.54C321.909 197.686 322.438 198.655 322.931 199.311C328.258 206.429 327.577 226.993 320.838 231.781C308.71 240.39 298.63 250.425 292.625 264.312C291.84 266.134 289.745 267.373 286.766 270.3C286.785 263.95 287.213 259.574 286.74 255.274C286.118 249.674 285.327 243.963 283.524 238.645C282.591 235.888 279.314 233.878 277.096 231.532C275.588 233.972 274.159 236.46 272.581 238.813C271.003 241.165 269.225 243.406 267.26 246.079C260.701 234.816 260.106 234.708 251.376 242.126C246.642 246.15 246.642 246.15 241.896 240.713C250.638 237.783 254.208 222.671 248.575 212.485C247.047 209.729 245.479 207.053 243.002 205.656C239.666 203.533 235.011 202.087 233.506 199.092C232.556 197.188 236.024 192.815 238 189.896C240.204 186.638 242.977 183.772 245.499 180.731L243.951 178.229C237.525 179.469 231.071 180.596 224.674 181.964C206.633 185.833 188.462 189.281 170.657 193.962C163.229 195.92 156.749 201.012 149.509 203.89C144.735 205.785 139.309 207.551 134.301 207.166C120.377 206.08 111.016 215.564 99.5798 220.135C91.6735 223.294 84.1246 227.327 76.1998 230.453C63.2051 235.571 49.2114 240.186 37.5094 247.318C23.981 255.557 12.6409 267.338 0.357575 277.581L2.17939 280.326C8.87473 277.861 15.5788 275.396 21.166 273.344C27.9216 273.191 34.2922 271.86 40.0735 273.283C44.8941 274.488 48.9763 278.936 53.7817 282.22L56.277 275.288C61.7959 278.66 66.8726 279.877 71.8167 283.384C75.4532 285.943 78.3356 289.547 81.8762 292.284C89.8877 298.513 98.4745 301.295 108.013 295.227C113.35 303.888 118.543 311.714 123.06 319.897C126.062 325.34 128.514 326.179 133.388 322.052C142.694 314.131 145.578 315.422 149.263 327.983C150.224 331.272 151.17 334.573 152.136 337.858C155.063 347.842 155.53 348.068 165.263 344.459C169.402 342.923 171.933 343.581 175.12 347.776C179.293 353.262 185.405 357.266 190.65 361.954C192.322 363.448 195.068 364.973 195.273 366.681C196.78 379.193 207.337 378.553 215.43 381.226C220.168 382.805 225.331 383.107 229.932 384.961C238.029 388.216 245.526 389.855 253.092 384.034C255.531 382.112 259.209 381.739 265.065 379.705C263.53 385.571 263.349 389.769 261.433 392.862C253.74 405.435 256.585 415.554 270.201 421.92C271.465 422.507 272.788 423.048 273.839 423.487C274.101 424.42 274.261 424.959 274.391 425.499L277.006 436.504C278.511 433.235 280.862 430.091 281.303 426.655C281.92 422.18 281.62 417.625 280.421 413.263C276.535 400.052 276.039 369.267 280.109 355.574L282.446 355.514C282.969 368.168 282.896 380.872 284.175 393.469C285.454 406.065 288.123 418.707 290.255 431.803C295.61 426.418 297.467 431.962 300.055 435.546C303.691 440.599 306.956 445.944 311.123 450.578C312.653 452.272 316.169 452.145 318.798 452.876C319.237 449.965 320.574 446.875 319.963 444.182C317.143 431.707 313.142 419.466 310.824 406.904C309.186 398.036 309.207 388.825 309.225 379.791C309.251 376.841 311.57 373.984 312.843 371.08C321.576 373.977 324.014 378.477 320.59 385.809C315.715 396.247 317.27 406.861 320.541 418.766C322.983 416.271 324.596 414.62 327.382 411.79C328.569 416.723 329.696 420.38 330.309 424.11C331.567 431.647 333.596 438.37 338.644 442.604C340.076 432.464 342.563 421.555 347.806 411.904C361.443 386.799 376.006 380.42 376.006 380.42C376.006 380.42 379.664 380.024 385.303 379.12C385.053 378.001 384.88 376.868 384.784 375.727C384.553 373.241 382.239 369.949 379.981 368.727C370.979 363.864 359.058 362.57 358.178 348.693C358.117 347.782 356.775 346.94 356.09 346.023C351.447 339.641 343.837 333.626 342.807 326.78C340.357 310.553 333.974 295.85 328.539 280.732C325.011 270.843 321.235 269.78 313.167 274.935C310.501 276.632 306.484 276.243 303.058 276.781C303.35 273.676 302.664 269.965 304.099 267.583C311.298 255.914 318.913 244.496 326.754 233.272C328.298 231.057 331.528 230.055 335.204 227.721C336.814 233.016 338.105 236.956 339.208 240.941C342.606 253.143 342.983 267.534 350.035 277.007C357.856 287.472 358.208 296.334 357.125 307.537C356.42 314.839 358.308 322.529 359.65 329.953C359.943 331.582 362.821 332.814 364.507 334.226C365.657 332.583 366.816 330.949 367.954 329.3C368.955 327.837 369.936 326.359 371.378 324.225C376.735 330.923 379.835 337.673 376.943 344.546C373.58 352.55 375.697 358.032 381.936 363.069C387.31 358.334 392.481 359.778 394.615 366.752C395.442 369.466 396.639 372.513 396.126 375.064C395.987 375.735 395.812 376.491 395.594 377.272C404.058 375.628 412.391 373.384 420.529 370.559C423.179 361.653 426.476 352.941 429.17 344.039C430.931 338.208 431.91 332.124 433.816 323.581L413.246 330.98C412.643 329.927 411.951 329.221 411.864 328.466C410.379 315.723 408.805 302.986 407.656 290.225C407.316 286.469 408.237 282.639 408.562 278.82C411.549 280.567 414.57 282.296 417.578 284.019C417.825 284.158 418.127 284.189 418.379 284.315C427.752 289.154 429.788 294.225 426.487 304.057C425.367 307.379 424.554 310.807 423.8 313.484L434.809 320.051C436.159 317.562 437.628 314.258 439.622 311.324C442.814 306.615 446.244 306.35 449.065 311.975C450.081 314.001 450.562 316.283 451.441 318.386C454.376 325.416 461.199 327.783 467.561 324.543L486.533 302.4C486.533 302.4 482.077 297.882 476.654 291.767C474.239 290.339 471.598 289.327 468.845 288.775C465.906 288.162 461.516 285.318 461.072 282.952C458.715 270.421 452.131 262.964 441.724 262.241C438.679 254.347 436.371 248.001 433.748 241.778C433.024 240.231 431.806 238.963 430.284 238.173C423.559 234.865 416.706 231.825 411.194 229.287C414.049 224.495 417.872 220.944 417.795 217.378C417.724 214.037 413.133 207.74 411.214 207.946C407.174 208.383 401.685 211.362 400.184 214.834C396.786 222.715 392.322 220.833 386.142 218.394L390.135 207.629C385.973 208.937 382.131 208.965 380.459 210.892C374.606 217.651 367.418 215.057 360.85 213.526C356.479 212.505 352.544 209.105 354.983 203.207C355.29 202.458 355.604 201.309 355.255 200.744C349.064 190.696 356.748 187.855 363.102 183.71C365.97 181.838 367.607 178.109 371.06 173.566L377.331 174.618C374.024 166.217 369.622 164.183 364.659 169.71C356.698 178.566 349.608 188.264 342.785 198.037C339.172 203.173 336.817 209.217 333.495 215.653C328.926 197.541 321.572 180.53 321.341 163.608C321.157 150.235 329.287 136.756 334.992 123.905C335.732 122.245 344.635 123.226 349.112 124.877C352.954 126.291 355.872 130.406 359.893 133.943C362.976 132.1 366.501 129.986 370.361 127.673C376.541 132.249 375.345 138.141 374.407 144.415C373.692 149.208 373.953 154.277 374.499 159.175C375.168 164.983 377.44 168.569 384.7 166.87C388.354 166.01 392.765 168.005 396.344 168.653C393.162 177.132 391.229 185.394 387.077 192.262C384.287 196.836 382.946 200.649 388.082 202.049C391.099 202.839 397.319 199.6 398.692 196.554C406.487 179.276 413.296 161.532 420.303 143.886C421.421 141.089 421.377 137.742 422.757 135.134C424.021 132.736 426.201 130.123 428.597 129.272C429.777 128.848 432.905 131.855 434.182 133.898C435.645 136.245 436.104 139.225 436.87 141.963C440.59 155.264 450.238 158.28 460.458 156.631C459.208 164.743 457.637 172.483 456.99 180.333C456.725 183.512 457.938 187.165 459.416 190.157C462.854 197.101 466.283 197.352 471.13 191.56C471.993 190.532 472.932 189.578 473.911 188.505C481.446 199.846 480.95 201.075 473.321 211.143C471.198 213.956 472.331 219.28 471.97 223.452C475.088 222.698 478.236 222.03 481.303 221.133C482.597 220.763 483.754 219.882 485.242 219.098L481.627 210.472C493.959 213.961 494.978 212.66 492.632 200.738C491.937 197.215 493.103 193.374 493.423 189.677L496.462 189.5L499.597 201.781C504.716 197.375 506.451 192.365 502.839 186.398C499.918 181.572 496.09 178.516 490.389 183.04C489.673 183.606 486.165 182.411 485.812 181.414C483.079 173.741 483.221 158.567 494.743 154.998C499.915 158.919 497.801 163.713 497.167 168.766C496.763 171.96 497.68 176.795 499.867 178.596C503.224 181.351 507.026 185.877 512.924 180.405C519.879 173.949 522.044 175.593 525.635 186.763C532.986 189.91 541.194 191.035 544.956 195.72C548.584 200.256 547.66 208.437 548.616 214.216C545.437 216.207 543.531 217.432 541.581 218.613C543.302 220.218 544.929 221.944 546.765 223.395C555.842 230.598 560.136 223.152 565.884 215.375C571.784 222.484 576.856 228.686 582.042 234.783C583.795 236.846 585.853 238.653 587.76 240.571C589.122 241.936 590.841 243.1 591.785 244.708C600.14 239.516 620.979 256.494 620.979 256.494L610.484 223.587C610.484 223.587 616.711 225.078 628.465 223.202C603.89 206.651 579.61 189.646 554.806 173.457C531.069 157.964 506.333 144.295 479.46 134.924C471.486 132.142 464.444 126.628 456.67 123.071C445.601 118.001 434.097 113.938 423.116 108.687C419.605 107.012 416.863 103.186 414.333 99.9136C410.699 95.2113 407.397 90.265 404.45 85.1104C403.666 83.7413 404.172 80.0795 405.186 79.5576C410.397 76.8761 423.352 82.0681 428.01 89.4039L415.113 86.5814C419.237 89.8089 421.534 91.8156 424.041 93.5381C429.943 97.5971 435.58 102.229 441.947 105.249C450.31 109.213 459.361 111.622 467.949 115.132C474.55 117.848 482.114 119.172 484.618 127.921C485.997 132.718 496.804 134.946 501.811 131.522C509.207 126.414 515.993 121.992 526.347 124.062C532.494 125.276 539.416 121.681 546.044 120.464C560.467 117.808 570.968 126.105 572.483 140.884C572.965 145.643 574.57 150.325 575.197 155.066C575.589 158.012 574.619 161.144 575.201 164.019C576.105 168.969 577.588 173.799 579.618 178.411C579.955 179.15 587.068 178.47 587.33 177.424C590.351 165.295 600.556 163.31 610.064 158.873C621.011 153.769 631.933 151.796 643.556 153.255C646.565 153.721 649.505 154.553 652.311 155.731C652.834 155.937 653.356 156.143 653.878 156.357C660.28 146.108 666.516 134.289 669.434 123.421C663.677 123.749 657.904 123.727 652.148 123.353C651.417 123.303 650.678 123.244 649.948 123.186C646.735 122.915 643.545 122.525 640.378 122.018C628.145 120.026 616.402 116.121 605.91 109.803C597.138 104.522 587.945 99.1916 578.319 93.9262C565.757 98.2099 553.202 102.509 540.654 106.824C533.271 109.364 529.234 105.023 526.731 99.1088C521.574 86.9238 516.377 74.7386 511.532 62.4266C507.261 60.7455 502.929 59.1045 498.537 57.5034C502.797 65.9613 506.942 74.4852 511.188 82.9458C513.148 86.8575 514.694 90.9683 517.234 96.8294C508.783 94.8427 502.46 93.6972 496.333 91.8426C481.955 87.4956 466.864 84.296 458.382 69.3859C457.377 67.6123 454.688 66.7547 452.86 65.4633C435.905 53.6598 416.964 50.2001 397.028 50.3368C393.086 50.3791 388.353 49.2544 385.272 46.9321C377.506 41.0795 369.806 35.1508 362.247 29.0797C346.421 28.1225 330.025 27.9443 313.06 28.5451C318.134 31.4592 323.739 34.382 326.174 38.7982C329.732 45.2354 332.262 45.9335 338.54 44.0499C351.799 40.0861 361.131 44.1099 364.517 54.5076C362.853 55.2806 361.179 56.2992 359.395 56.8422C343.06 61.9401 326.716 67.0369 310.323 71.9516C304.982 73.5557 299.416 76.0419 294.049 75.6946C268.901 74.0783 243.748 72.1572 220.005 61.658C218.002 60.7739 215.247 61.0682 213.002 61.5314C209.107 62.3285 205.196 64.9752 201.55 64.4831C199.955 64.2327 198.398 63.7771 196.92 63.1277L11.942 208.917C6.65016 225.525 2.65771 242.518 0 259.745C0.698531 258.843 1.4745 258.004 2.3192 257.236ZM187.195 203.386C185.97 194.896 188.922 192.442 194.337 193.924C195.904 194.352 196.986 196.738 198.289 198.229L187.195 203.386ZM414.377 244.303C415.131 246.687 416.896 249.342 416.412 251.411C415.595 254.794 413.325 257.802 411.334 261.526C401.92 258.018 404.97 252.217 407.876 247.171C408.823 245.482 412.138 245.212 414.377 244.303ZM402.532 135.228L404 148.159L399.655 148.543L398.848 135.463C400.077 135.389 401.307 135.307 402.532 135.228ZM508.66 104.87C508.271 105.596 507.877 106.327 507.487 107.062L489.616 97.9602C490.091 96.9836 490.569 96.0103 491.05 95.0403L508.66 104.87ZM317.602 124.632C318.114 119.644 318.333 114.609 319.288 109.698C319.572 108.224 321.783 107.17 323.099 105.903C324.298 107.611 326.848 109.775 326.478 110.953C324.863 116.082 322.401 120.928 320.247 125.881L317.602 124.632ZM369.143 67.9667C373.855 67.5154 378.679 68.1085 383.424 67.7976C387.731 67.5066 393.475 68.0562 395.963 65.5801C402.009 59.5481 408.335 58.8073 416.485 59.4235C424.241 60.0338 431.593 59.2045 434.83 70.0832C430.094 70.7433 425.659 71.3326 421.24 71.9808C411.269 73.433 400.665 73.4279 391.444 76.871C382.95 80.0413 376.145 78.2141 368.789 75.111C367.429 74.5438 365.385 72.4251 365.624 71.7695C366.143 70.2515 367.762 68.1201 369.158 67.9862L369.143 67.9667Z" fill="#05003E"/>
<path d="M776.582 491.891C775.996 490.463 775.406 489.044 774.811 487.634L774.394 488.358C775.075 489.563 775.805 490.741 776.582 491.891Z" fill="#05003E"/>
<path d="M747.419 602.457C747.13 597.147 746.845 591.808 747.151 586.491C747.218 585.317 749.679 584.211 751.023 583.036C751.202 582.862 751.327 582.635 751.381 582.387C752.551 577.563 753.876 572.765 754.82 567.902C756.084 561.405 755.152 554.243 763.403 550.863C766.394 549.644 767.157 549.493 767.694 552.528C768.7 558.224 769.307 564.067 770.963 569.538C771.885 572.574 772.603 575.199 771.505 578.292C771.274 578.945 771.459 579.74 771.456 579.924C772.614 580.813 773.863 581.26 774.154 582.085C774.992 584.437 775.66 586.864 776.316 589.291C782.909 573.976 787.004 554.928 786.96 529.206C785.7 524.343 784.446 519.672 783.347 514.966C782.908 513.086 782.188 510.786 782.848 509.179C783.732 507.033 784.668 504.906 785.632 502.79C784.831 494.221 783.645 485.011 782.075 475.162C780.782 477.46 779.46 479.803 778.109 482.19C777.955 485.66 777.835 489.138 777.698 492.606L777.339 492.633C778.761 494.663 780.304 496.598 781.957 498.428C777.603 500.563 772.046 501.861 766.96 502.654C766.89 502.418 766.818 502.185 766.745 501.952C763.524 507.471 760.25 513.008 756.984 518.432C753.844 526.109 749.861 533.651 750.453 542.36C750.523 543.389 749.996 544.583 749.486 545.562C745.687 552.756 744.279 560.33 745.044 568.461C745.969 568.774 746.936 569.105 748.446 569.621C746.598 577.603 744.848 585.485 742.895 593.322C742.466 595.044 741.691 597.142 740.409 598.133C737.365 600.457 737.72 603.387 738.323 606.178C738.842 608.619 735.556 612.747 740.766 613.383C740.973 613.409 741.126 614.242 741.181 614.718C741.308 615.912 741.873 616.06 742.776 617.106C743.734 618.217 744.884 617.639 746.329 617.547C751.611 617.209 749.836 605.709 749.836 605.709C748.596 604.089 747.465 603.327 747.419 602.457ZM775.258 510.975C775.614 510.962 775.972 510.946 776.339 510.934C776.455 512.583 776.731 514.242 776.551 515.87C776.509 516.233 774.788 516.453 773.467 516.854L775.258 510.975ZM759.027 540.669C760.624 539.163 762.644 538.155 764.401 536.811C765.378 536.06 766.527 535.153 766.943 534.073C768.663 529.623 770.116 525.075 771.676 520.541L774.914 525.94L770.75 540.212L762.823 540.403C762.668 540.892 762.658 541.489 762.369 541.746C761.484 542.528 760.49 543.178 759.541 543.879C759.337 542.772 758.607 541.072 759.026 540.677L759.027 540.669Z" fill="#05003E"/>
<path d="M215.404 503.724C217.245 503.702 219.026 504.387 220.376 505.636C223.504 508.425 226.733 511.107 229.837 513.89C234.316 517.923 238.737 521.995 243.157 526.066C246.081 528.542 248.779 531.27 251.221 534.218C251.887 535.086 252.722 535.812 253.676 536.352C254.63 536.892 255.684 537.235 256.774 537.36C257.134 537.388 257.496 537.328 257.828 537.187C258.16 537.046 258.452 536.827 258.68 536.549C259.653 534.997 260.056 533.158 259.824 531.342C259.675 529.897 259.448 528.462 259.143 527.041C258.857 525.429 258.852 523.782 259.129 522.17C259.297 520.538 259.843 518.968 260.724 517.583C261.606 516.199 262.799 515.037 264.21 514.189C265.439 513.409 266.803 512.837 268.084 512.17C268.249 512.1 268.394 511.991 268.508 511.854C268.622 511.716 268.702 511.553 268.74 511.379C268.778 511.205 268.774 511.024 268.728 510.851C268.683 510.679 268.596 510.519 268.476 510.386L265.753 506.226L261.182 499.431C259.342 496.466 258.632 492.945 259.182 489.51C259.224 489.145 259.304 488.784 259.418 488.435C259.657 487.745 260.129 487.16 260.753 486.779C261.378 486.397 262.117 486.243 262.844 486.343C264.272 486.657 265.61 487.258 266.975 487.737C267.143 487.798 267.322 487.821 267.499 487.803C267.676 487.786 267.847 487.729 267.998 487.636C268.15 487.544 268.279 487.419 268.375 487.27C268.471 487.121 268.532 486.953 268.553 486.777C268.829 485.359 268.99 483.92 269.034 482.475C269.052 481.56 268.838 480.653 268.413 479.839C267.988 479.025 267.365 478.329 266.6 477.815C265.43 476.953 264.193 476.184 262.9 475.516C260.9 474.568 259.338 472.895 258.535 470.842C258.246 470.163 258.006 469.496 257.746 468.798C257.487 468.1 257.782 467.576 258.219 467.467C260.004 467.09 261.756 466.63 263.619 466.373C265.481 466.115 266.498 467.005 266.779 469.014C266.838 469.721 266.97 470.419 267.172 471.099C267.271 471.227 267.4 471.329 267.546 471.397C267.693 471.465 267.854 471.496 268.016 471.49C269.316 470.853 270.545 470.072 271.846 469.435C272.357 469.227 272.926 469.207 273.451 469.379C273.976 469.55 274.423 469.903 274.71 470.372C275.426 471.838 276.024 473.357 276.498 474.916C277.143 477.002 278.154 478.96 279.485 480.697C279.579 480.855 279.709 480.988 279.864 481.088C280.324 481.328 280.812 481.513 281.317 481.638C281.612 481.702 282.133 480.741 282.066 480.341C281.928 479.44 281.791 478.539 281.618 477.681C281.445 476.823 281.264 475.886 281.171 475.02C281.157 474.851 281.18 474.681 281.237 474.521C281.294 474.362 281.385 474.216 281.503 474.094C281.641 473.996 281.8 473.931 281.967 473.901C282.134 473.871 282.305 473.878 282.47 473.922C283.975 474.364 285.285 475.305 286.181 476.588C287.077 477.871 287.506 479.419 287.396 480.974C287.35 482.064 287.165 483.142 286.845 484.185C286.634 485.073 286.139 485.869 285.434 486.453C284.729 487.037 283.852 487.378 282.935 487.425C282.02 487.481 281.105 487.536 280.297 487.691C279.766 487.832 279.297 488.14 278.96 488.57C278.624 489.001 278.438 489.529 278.432 490.075C278.971 494.089 280.891 497.797 283.866 500.57C285.579 502.258 287.882 503.224 290.291 503.263C290.744 503.256 291.181 503.101 291.536 502.823C291.891 502.544 292.144 502.157 292.255 501.721C292.565 500.661 292.444 499.522 291.92 498.547C291.216 497.291 290.427 496.067 289.638 494.843C288.836 493.641 288.255 492.307 287.924 490.904C287.534 489.303 287.757 487.617 288.55 486.173C290.592 482.394 291.838 481.771 295.948 482.674C297.031 482.911 298.089 483.144 299.148 483.376C299.466 483.412 299.789 483.383 300.096 483.291C300.403 483.199 300.688 483.046 300.933 482.841C301.178 482.636 301.379 482.384 301.523 482.099C301.667 481.814 301.751 481.503 301.77 481.185C301.895 479.738 301.904 478.284 301.797 476.835C301.751 476.297 301.836 475.756 302.044 475.258C302.252 474.759 302.578 474.318 302.993 473.972C304.019 472.941 305.13 471.878 306.233 470.968C307.335 470.057 308.295 468.858 309.217 467.831C310.137 466.814 310.775 465.577 311.068 464.24C311.362 462.903 311.301 461.513 310.892 460.204C310.603 459.152 310.253 458.117 309.845 457.104C309.32 455.565 308.613 454.094 307.738 452.721C306.82 451.494 304.981 452.115 303.668 451.519C303.225 451.422 302.743 450.676 302.859 450.265C302.885 450.092 302.922 449.92 302.972 449.752C303.464 448.001 304.323 446.373 305.492 444.976C306.038 444.239 306.783 443.671 307.641 443.338C308.5 443.005 309.436 442.92 310.342 443.094C312.664 443.58 314.888 444.45 316.923 445.667C317.083 445.744 317.258 445.785 317.435 445.79C317.612 445.794 317.789 445.761 317.952 445.693C318.116 445.625 318.263 445.523 318.384 445.394C318.505 445.266 318.597 445.113 318.655 444.946C319.859 440.752 321.108 436.593 322.19 432.372C323.054 429.039 324.2 425.785 325.616 422.645C325.746 422.31 325.956 422.013 326.228 421.778C326.5 421.543 326.825 421.378 327.176 421.296C329.602 420.494 331.729 418.989 333.285 416.975C335.183 414.774 336.884 412.413 338.369 409.918C338.718 409.287 339.125 408.69 339.586 408.135C339.793 407.899 340.213 407.863 340.565 407.787C340.918 407.71 340.769 408.036 340.791 408.169C341.442 412.489 342.098 416.784 342.724 421.099C343.016 423.059 343.302 425.044 343.643 427.015C343.822 428.079 344.441 428.317 345.654 427.841C348.008 426.872 350.382 425.933 352.75 425.018C353.091 425.001 353.431 425.076 353.734 425.234C353.857 425.261 353.94 425.587 353.908 425.734C353.82 426.257 353.656 426.765 353.422 427.241C342.615 444.854 332.237 462.741 320.969 480.099C316.8 486.477 312.384 492.682 307.723 498.713C302.28 505.759 296.336 512.408 289.939 518.611C287.321 521.105 284.983 523.873 282.966 526.868C279.883 531.359 276.419 535.579 272.612 539.481C269.281 542.901 266.186 546.423 262.934 549.834C260.737 552.034 259.265 554.847 258.712 557.901C258.055 561.831 257.275 565.734 256.564 569.677C256.325 570.939 256.52 572.245 257.117 573.386C257.347 573.882 257.75 574.278 258.252 574.501C258.753 574.724 259.318 574.759 259.842 574.6C261.034 574.128 262.164 573.516 263.209 572.777C265.419 571.155 267.198 569.022 268.393 566.562C268.886 565.491 269.077 564.149 268.683 564.063C267.896 563.89 267.349 564.385 266.749 564.766C266.149 565.146 265.511 565.467 264.849 565.783C264.76 565.802 264.667 565.802 264.578 565.783C264.489 565.763 264.405 565.725 264.332 565.67C264.279 565.61 264.239 565.54 264.216 565.464C264.192 565.388 264.186 565.308 264.196 565.23C264.34 564.53 264.559 563.848 264.85 563.195C266.605 560.019 268.404 556.878 270.252 553.748C272.556 550.049 275.345 546.672 278.546 543.706C282.08 540.297 285.586 536.865 289.062 533.409C290.091 532.388 291.046 531.296 291.921 530.142C292.634 529.312 293.17 528.347 293.496 527.304C293.823 526.262 293.933 525.164 293.821 524.076C293.765 523.713 293.734 523.347 293.726 522.979C293.716 522.254 293.86 521.536 294.148 520.871C294.436 520.205 294.863 519.609 295.4 519.119C296.509 517.903 297.904 516.979 299.46 516.427C301.017 515.875 302.687 515.713 304.324 515.954C305.778 516.146 307.216 516.41 308.651 516.572C312.48 517.181 316.396 516.383 319.669 514.329C322.47 512.645 325.607 511.585 328.864 511.224C331.208 510.906 333.531 510.449 335.82 509.856C339.207 508.95 342.116 506.794 343.954 503.828C345.348 501.668 346.015 499.124 345.86 496.559C345.765 494.754 345.456 492.967 344.941 491.232C344.303 488.966 343.666 486.699 343.089 484.394C342.616 482.272 341.85 480.224 340.814 478.308C339.016 474.724 338.116 470.764 338.19 466.764C338.156 466.29 338.273 465.817 338.524 465.413C338.775 465.008 339.147 464.692 339.588 464.509C339.921 464.37 340.265 464.257 340.616 464.171C341.188 463.885 341.838 463.791 342.469 463.902C343.1 464.013 343.679 464.323 344.119 464.787C345.488 466.128 347.116 467.181 348.904 467.882C350.692 468.583 352.603 468.918 354.522 468.866C359.105 468.897 363.687 468.698 368.248 468.268C372.619 467.855 376.885 466.704 380.863 464.864C384.211 463.404 387.234 461.299 389.756 458.669C390.627 457.758 391.527 456.829 392.417 455.948C393.615 454.725 394.287 454.719 395.695 455.823C397.104 456.926 398.263 457.873 399.57 458.852C400.447 459.52 401.5 459.919 402.6 460.001C403.7 460.084 404.799 459.845 405.763 459.315C406.594 458.945 407.39 458.502 408.143 457.993C410.088 456.653 412.015 455.282 413.946 453.887C414.616 453.419 414.545 452.686 413.784 452.16L409.691 449.416L407.96 448.139C407.496 447.781 407.455 447.029 407.894 446.792C410.288 445.524 412.687 444.232 415.13 442.975C415.313 442.847 415.528 442.77 415.751 442.751C415.974 442.733 416.199 442.774 416.401 442.871C416.603 442.968 416.776 443.116 416.901 443.301C417.027 443.486 417.101 443.701 417.115 443.923C417.71 446.617 418.256 449.299 418.851 451.992C419.109 453.048 419.422 454.091 419.71 455.128C419.827 455.358 420.027 455.537 420.269 455.628C420.512 455.72 420.78 455.717 421.021 455.621C425.235 453.087 429.177 450.132 432.786 446.802C435.729 444.092 438.565 441.281 441.504 438.468C444.444 435.654 446.78 433.477 449.563 431.141C456.613 424.995 465.59 421.464 474.976 421.144C478.797 421.004 482.537 420.023 485.926 418.271L498.583 411.853L499.559 411.401C500.186 411.129 501.208 411.763 501.153 412.366C501.098 412.969 500.766 414.126 500.745 415.044C500.638 415.533 500.745 416.222 501.39 416.338C503.989 416.866 506.445 417.946 508.587 419.504C510.73 421.063 512.509 423.064 513.801 425.369C515.217 427.499 516.787 429.509 518.314 431.485C518.522 431.65 518.785 431.729 519.05 431.706C519.314 431.683 519.559 431.559 519.734 431.361C519.982 431.095 520.208 430.811 520.411 430.51C522.62 426.563 524.735 422.569 527.042 418.642C528.562 415.953 530.056 413.257 531.732 410.679C535.32 405.189 540.064 400.541 545.637 397.052C547.47 395.872 549.196 394.536 550.796 393.06C553.671 390.54 556.604 388.109 559.658 385.834C563.172 383.223 566.84 380.851 570.412 378.331C573.984 375.81 577.856 373.098 581.457 370.328C585.503 367.228 589.142 363.637 592.291 359.639C593.985 357.449 595.794 355.438 597.534 353.386C598.036 352.724 598.744 352.245 599.547 352.024C600.351 351.802 601.207 351.85 601.983 352.159C602.747 352.455 603.565 352.592 604.384 352.56C605.203 352.528 606.007 352.329 606.744 351.975C608.083 351.398 609.554 350.927 610.825 350.309L633.336 341.776C635.243 341.163 637.047 340.273 638.689 339.134C639.986 338.254 640.938 336.956 641.384 335.458C641.831 333.96 641.745 332.354 641.14 330.909C640.752 329.903 640.264 328.938 639.684 328.027C639.001 326.971 638.26 325.952 637.464 324.977C635.924 322.947 634.383 320.917 632.777 318.95C628.468 313.761 625.395 307.672 623.79 301.14C623.459 299.71 622.998 298.404 622.599 296.932C620.417 289.483 619.816 291.632 625.279 286.375C628.967 282.854 632.713 279.424 636.355 275.996C637.29 274.43 638.558 273.086 640.072 272.06C641.585 271.033 643.306 270.349 645.116 270.053C647.79 268.871 650.278 267.311 652.504 265.424C654.609 263.709 656.657 261.903 658.806 260.223C659.815 259.489 660.903 258.868 662.05 258.373C662.713 258.056 663.461 257.955 664.187 258.082C664.913 258.209 665.582 258.559 666.099 259.083C666.507 259.455 666.85 259.889 667.229 260.28C667.519 260.615 667.884 260.878 668.295 261.049C668.705 261.219 669.15 261.292 669.593 261.26C671.045 261.061 672.525 261.201 673.914 261.672C675.36 262.373 677.163 262.385 678.169 263.913C677.735 266.044 676.595 267.968 674.931 269.377C673.448 270.07 672.179 271.145 671.255 272.49C671.148 272.725 671.123 272.988 671.185 273.239C671.247 273.489 671.392 273.712 671.596 273.872C672.113 273.986 672.581 274.319 673.107 274.511L676.212 275.526C677.434 275.949 677.643 276.994 676.684 278.193C676.211 278.741 675.708 279.263 675.179 279.758C673.416 281.352 672.176 283.436 671.621 285.741C670.594 289.439 670.675 293.357 671.853 297.016C672.248 298.22 672.814 299.362 673.533 300.408C674.065 301.38 674.94 302.121 675.989 302.489C677.038 302.856 678.186 302.824 679.21 302.399C681.644 301.637 683.95 300.52 686.052 299.084C686.988 298.467 687.971 297.92 688.99 297.449C689.225 297.321 689.63 297.59 689.975 297.666C690.319 297.741 690.123 297.929 690.165 298.092C690.206 298.262 690.22 298.438 690.205 298.613C689.08 305.617 687.935 312.592 686.839 319.577C686.76 320.295 686.498 320.98 686.08 321.569C685.662 322.158 685.101 322.632 684.448 322.947C682.049 324.239 679.722 325.675 677.38 327.057C676.599 327.521 675.86 328.054 675.173 328.648C673.886 329.815 673.058 331.4 672.836 333.12C672.614 334.839 673.013 336.583 673.961 338.042C674.061 338.19 674.193 338.314 674.347 338.406C674.501 338.497 674.673 338.554 674.851 338.571C675.733 338.585 676.613 338.512 677.479 338.354L710.831 332.381C714.077 331.813 717.268 331.028 720.529 330.745C723.814 330.829 727.079 331.305 730.252 332.163C734.574 332.805 738.878 333.648 743.167 334.437C743.316 334.497 743.454 334.58 743.578 334.681C743.366 334.942 743.201 335.341 742.933 335.385C742.06 335.614 741.165 335.753 740.263 335.797C736.624 335.921 732.991 336.019 729.339 336.088C719.313 336.277 709.312 337.093 699.394 338.53L663.156 343.663C662.25 343.797 661.371 344.04 660.454 344.223C660.047 344.313 659.747 345.092 659.901 345.562C660.132 346.344 660.559 347.057 661.14 347.632C661.722 348.208 662.44 348.629 663.228 348.855C664.287 349.088 665.318 349.442 666.365 349.724L666.392 349.601C666.28 350.115 666.361 350.799 666.065 351.093C663.529 353.713 660.935 356.244 658.36 358.804L653.69 363.39C653.364 363.703 653.651 364.509 654.138 364.641C655.024 364.836 655.91 365.031 656.753 365.421C657.721 365.736 658.571 366.335 659.191 367.139C659.811 367.943 660.172 368.915 660.226 369.925C660.326 370.999 660.322 372.079 660.214 373.151C660.095 374.942 660.341 376.739 660.937 378.435C661.309 379.745 661.981 380.954 662.9 381.965C663.819 382.976 664.961 383.762 666.235 384.262C667.424 384.74 668.576 385.301 669.684 385.942C670.053 386.129 670.376 386.392 670.632 386.714C670.887 387.037 671.07 387.41 671.166 387.809C671.263 388.208 671.271 388.623 671.19 389.025C671.109 389.427 670.941 389.806 670.698 390.137C669.724 391.673 668.425 392.979 666.891 393.964C662.919 396.599 658.238 397.981 653.456 397.931L649.09 397.843C645.971 397.872 642.918 398.722 640.242 400.307C635.724 402.749 632.095 406.54 629.865 411.147C628.835 413.09 628.396 415.291 628.603 417.481C629.161 423.454 630.469 429.337 632.496 434.992C633.261 437.031 634.211 438.93 635.158 440.958C636.764 444.54 637.607 448.412 637.634 452.33C637.662 456.248 636.873 460.126 635.318 463.722C633.575 467.919 631.187 471.82 628.238 475.286C627.3 476.387 626.299 477.422 625.336 478.518C624.746 479.208 624.199 479.934 623.642 480.708C623.504 480.884 623.41 481.09 623.366 481.309C623.323 481.528 623.332 481.754 623.393 481.969C623.453 482.184 623.564 482.383 623.716 482.548C623.867 482.713 624.056 482.841 624.266 482.921C625.116 483.223 626 483.418 626.899 483.499C627.813 483.43 628.716 483.258 629.591 482.989C633.815 481.868 637.958 480.467 641.992 478.794C644.927 477.708 647.347 475.572 648.777 472.802C650.52 469.444 652.387 466.113 654.067 462.69C659.383 451.994 664.401 441.129 670.069 430.588C671.632 427.702 673.326 424.922 674.863 422.032C675.986 419.972 677.041 417.872 677.983 415.696C679.319 412.706 680.086 409.495 680.244 406.225C680.689 401.162 681.851 396.19 683.694 391.454C683.747 391.278 683.854 391.123 683.999 391.009C684.274 390.813 684.655 390.487 684.926 390.546C685.196 390.606 686.08 390.928 686.226 391.319C686.63 392.325 686.866 393.39 686.927 394.471C687.009 396.283 686.972 398.098 686.817 399.904C686.48 403.674 685.97 407.406 685.665 411.259C685.417 414.151 685.272 417.041 685.306 419.944C685.29 425.05 686.41 430.099 688.584 434.732C688.941 435.468 689.111 436.278 689.08 437.093C689.049 437.908 688.819 438.703 688.409 439.408C687.991 440.216 687.463 440.962 686.838 441.625C685.957 442.545 685.017 443.409 684.026 444.211C682.245 445.741 680.352 447.196 678.591 448.756C676.795 450.292 675.078 451.916 673.446 453.622C669.827 457.266 667.57 462.031 667.048 467.13C666.933 468.394 666.48 469.604 665.737 470.635C665.036 471.711 664.297 472.727 663.553 473.768C662.716 474.955 662.131 476.3 661.833 477.721C661.468 479.135 661.526 480.626 662 482.011C662.484 483.757 663.342 485.379 664.516 486.766C664.688 486.804 665.107 486.896 665.401 486.73C665.695 486.564 665.638 486.474 665.7 486.308C667.063 482.098 667.014 482.907 670.584 482.513C671.851 482.381 673.206 482.32 674.391 482.093C677.861 481.645 681.068 480.025 683.473 477.503C686.162 474.783 689.494 472.776 693.166 471.663C700.192 469.138 707.028 466.118 713.621 462.627C725.133 456.636 735.569 448.799 744.512 439.433C746.874 436.902 749.191 434.336 751.591 431.866C753.991 429.395 756.46 426.965 759.03 424.659C762.763 421.177 767.121 418.423 771.88 416.541C774.601 415.496 776.974 413.72 778.734 411.41C785.447 402.978 794.411 396.593 804.606 392.981C805.307 392.725 805.997 392.518 806.688 392.31C807.034 392.207 807.404 392.204 807.753 392.304C808.101 392.403 808.414 392.6 808.654 392.871L811.051 395.114C811.318 395.361 811.669 395.497 812.033 395.496C812.398 395.495 812.748 395.357 813.012 395.109L813.917 394.514C822.952 387.752 831.983 381.007 841.011 374.277C842.138 373.391 843.209 372.437 844.218 371.42C845.452 370.326 846.346 368.905 846.795 367.323C846.833 367.152 846.87 366.98 846.908 366.809C847.344 365.031 848.29 363.418 849.632 362.166C850.974 360.915 852.654 360.078 854.467 359.758C856.977 359.268 859.338 358.208 861.365 356.661C861.802 356.334 862.27 356.051 862.763 355.815C863.487 355.414 864.317 355.243 865.142 355.324C865.968 355.404 866.75 355.733 867.385 356.266C867.819 356.602 868.21 356.989 868.55 357.419C868.863 357.738 869.263 357.959 869.7 358.055C870.138 358.151 870.593 358.118 871.011 357.96C875.672 357.005 880.174 355.407 884.385 353.21C888.826 350.727 893.344 348.362 897.804 345.908C898.609 345.451 899.562 345.32 900.464 345.544C899.289 349.719 898.108 353.919 896.977 358.129C895.156 364.395 892.896 370.526 890.214 376.476C889.999 376.977 889.671 377.422 889.257 377.778C889.12 377.875 888.961 377.94 888.794 377.965C888.627 377.991 888.457 377.977 888.296 377.926C887.489 377.491 886.823 376.837 886.376 376.039C885.93 375.242 885.721 374.335 885.776 373.426C885.794 372.519 885.914 371.617 886.134 370.737C886.741 367.155 886.848 363.505 886.452 359.891C886.4 359.579 886.272 359.284 886.079 359.032C885.885 358.78 885.632 358.579 885.343 358.447C885.053 358.315 884.735 358.256 884.418 358.275C884.1 358.294 883.792 358.39 883.521 358.555C882.644 359.157 881.822 359.834 881.064 360.578C876.619 364.726 872.261 368.714 867.856 372.795C866.933 373.67 865.96 374.491 864.942 375.255C864.465 375.476 863.947 375.598 863.419 375.613C863.232 375.623 863.044 375.582 862.878 375.494C859.284 373.653 858.553 374.159 854.524 375.708C849.087 377.794 843.703 379.994 838.318 382.193C837.32 382.618 836.351 383.107 835.417 383.657C835.008 383.893 834.653 384.211 834.374 384.591C834.095 384.971 833.899 385.404 833.797 385.864C833.722 386.206 833.642 386.573 833.566 386.915C832.563 392.895 832.949 391.725 827.994 395.607C825.129 397.848 822.225 400.028 819.316 402.234C815.708 404.995 811.929 407.528 808.002 409.819C806.265 410.795 804.6 411.916 802.935 413.036C800.238 414.694 798.052 417.058 796.616 419.869C795.18 422.68 794.548 425.831 794.79 428.979C794.86 430.065 794.993 431.147 795.188 432.218C795.233 432.579 795.353 432.927 795.54 433.24C795.727 433.553 795.978 433.824 796.275 434.037C796.573 434.249 796.912 434.398 797.27 434.474C797.628 434.549 797.997 434.55 798.356 434.477C799.62 434.328 800.874 434.107 802.112 433.816C805.655 432.954 809.184 432.038 812.722 431.201C817.67 429.947 822.704 429.049 827.784 428.514C829.234 428.371 830.657 428.12 832.084 427.844C834.612 427.371 836.984 426.291 838.992 424.698C839.399 424.342 839.84 424.027 840.308 423.757C840.672 423.463 841.12 423.289 841.589 423.259C842.057 423.229 842.524 423.344 842.925 423.589C844.108 424.445 845.464 425.036 846.899 425.32C848.333 425.604 849.812 425.575 851.232 425.234C852.671 425.001 854.124 424.858 855.582 424.806C856.119 424.86 856.647 424.976 857.157 425.152C857.087 425.47 857.346 425.937 857.194 426.16C856.533 427.02 855.819 427.839 855.056 428.611C845.698 438.01 835.35 446.381 824.188 453.579C811.02 462.021 797.165 469.357 782.765 475.51C780.923 476.275 778.987 476.797 777.007 477.064C770.121 478.114 763.284 479.174 756.471 480.24C750.055 481.265 749.93 481.365 745.386 486.312C744.194 487.89 742.799 489.307 741.236 490.525C739.3 491.524 737.246 492.278 735.12 492.769C722.949 496.502 710.624 499.765 698.249 502.786C697.042 503.11 695.756 503.212 694.497 503.422L693.406 501.696C696.132 498.283 699.656 495.582 703.672 493.83C708.164 491.819 712.571 489.609 716.986 487.479C717.781 487.068 718.547 486.603 719.278 486.086C719.278 486.086 719.358 485.719 719.391 485.573C719.423 485.426 719.283 485.242 719.16 485.215C718.484 484.976 717.781 484.822 717.068 484.755C710.5 484.824 703.957 484.899 697.373 485.041C695.173 485.117 692.996 485.501 690.906 486.183C689.356 486.662 687.781 487.136 686.234 487.719C680.426 489.851 674.59 491.874 668.608 493.507C664.212 494.741 659.94 496.376 655.849 498.392C651.747 500.386 647.914 502.884 644.439 505.827C641.965 507.696 639.974 510.121 638.628 512.904C638.387 513.49 637.97 513.987 637.433 514.328C636.897 514.669 636.267 514.836 635.63 514.808C634.909 514.873 634.183 514.876 633.461 514.818C633.239 514.77 632.838 514.246 632.901 514.08C633.287 512.32 634.013 510.661 634.547 508.933C634.654 508.444 634.416 508.238 633.941 508.287C631.988 508.629 630.103 509.279 628.358 510.213C624.376 511.9 620.362 513.735 616.402 515.555C614.258 516.54 611.944 517.11 609.584 517.235C598.111 517.9 586.604 517.786 575.142 516.895C570.222 516.668 565.327 516.063 560.499 515.088C560.031 514.985 559.823 514.76 559.988 514.36C560.041 514.209 560.142 514.078 560.276 513.988C560.944 513.648 561.588 513.302 562.245 513.011C568.341 510.146 574.175 506.764 579.685 502.903C579.845 502.81 579.968 502.665 580.033 502.492C580.202 502.196 580.277 501.855 580.248 501.515C580.186 501.353 580.089 501.206 579.964 501.086C579.839 500.966 579.689 500.874 579.524 500.817C576.097 500.451 572.641 500.439 569.213 500.782C562.145 501.484 555.077 502.186 547.996 502.834L528.408 504.63C526.422 504.855 524.412 504.503 522.62 503.615C513.296 498.989 504.617 493.171 496.806 486.311C496.059 485.529 495.382 484.686 494.78 483.79C494.426 483.405 494.055 482.862 493.617 482.74C492.074 482.162 490.696 481.217 489.604 479.988C487.433 478.127 485.267 476.242 482.913 474.393C479.318 471.568 475.142 469.566 470.683 468.529C462.682 466.648 454.445 465.979 446.251 466.544C431.451 467.252 416.937 470.799 403.507 476.987C398.244 479.439 393.261 482.441 388.641 485.945C383.235 489.975 378.51 494.836 374.644 500.345C370.926 505.525 367.22 510.655 363.503 515.835C363.105 516.44 362.569 516.943 361.939 517.303C361.309 517.663 360.601 517.87 359.875 517.908C352.798 518.531 345.73 519.234 338.662 519.936C337.212 520.079 335.753 520.143 334.312 520.364C332.744 520.5 331.282 521.204 330.205 522.342C329.127 523.48 328.509 524.973 328.467 526.537C328.393 527.621 328.396 528.709 328.475 529.793C328.864 537.771 329.204 545.737 329.697 553.712C329.761 554.339 329.676 554.971 329.448 555.557C329.221 556.144 328.857 556.669 328.387 557.089C327.081 558.339 325.755 559.56 324.405 560.775C324.378 560.898 324.077 560.857 323.889 560.893C323.701 560.928 323.274 560.757 323.277 560.271C323.283 556.839 323.269 553.377 323.284 550.023C323.33 545.113 323.524 540.236 323.106 535.327C323.001 534.279 322.109 533.878 321.163 534.541C314.62 539.155 308.456 544.279 302.732 549.865C299.697 552.757 297.345 556.283 295.847 560.19C295.202 561.893 294.81 563.679 294.682 565.495C294.638 566.399 294.347 567.274 293.842 568.027C291.769 571.005 289.926 574.111 287.609 576.907C283.216 582.258 277.856 586.746 271.804 590.142C269.438 591.519 266.981 592.721 264.563 593.984C263.75 594.395 262.899 594.746 262.067 595.127C258.865 596.518 256.27 599.001 254.751 602.129C252.878 605.843 250.887 609.506 248.939 613.204C248.864 613.546 248.666 613.861 248.492 614.182C248.074 615.484 247.352 616.669 246.385 617.641C245.419 618.613 244.235 619.344 242.93 619.776C235.303 623.652 227.525 627.231 219.599 630.512C218.916 630.734 218.216 630.897 217.505 631C217.505 631 217.343 630.683 217.394 630.566C217.521 630.053 217.725 629.562 217.998 629.11C219.863 626.633 221.016 623.698 221.333 620.618C221.415 619.894 221.572 619.182 221.8 618.491C221.946 617.96 222.222 617.474 222.602 617.075C222.982 616.676 223.455 616.376 223.98 616.202C225.354 615.755 226.759 615.404 228.183 615.152C230.724 614.779 233.162 613.903 235.353 612.576C236.769 611.744 237.964 610.586 238.838 609.201C239.713 607.815 240.241 606.241 240.379 604.609C240.399 604.249 240.393 603.888 240.358 603.529C240.383 603.072 240.224 602.624 239.917 602.283C239.61 601.942 239.179 601.735 238.72 601.708C237.633 601.726 236.546 601.743 235.461 601.864C230.407 602.444 225.317 603.069 220.286 603.655L197.498 606.516C196.44 606.777 195.333 606.78 194.272 606.524C195.469 601.073 196.672 595.597 197.869 590.146C198.491 587.311 199.109 584.499 199.554 581.65C199.774 580.648 199.994 579.646 200.214 578.644C200.254 578.392 200.205 578.133 200.074 577.913C199.944 577.693 199.741 577.524 199.499 577.436L201.604 567.854C203.509 566.812 205.473 565.859 207.444 564.755C209.512 563.569 211.085 561.689 211.884 559.452C212.393 558.078 212.994 556.749 213.541 555.434C213.708 555.11 213.967 554.841 214.286 554.661C214.605 554.48 214.971 554.397 215.337 554.42L220.757 554.995C221.307 555.039 221.851 554.871 222.278 554.526C222.704 554.18 222.98 553.684 223.048 553.141C223.501 551.555 223.34 549.856 222.597 548.379C221.736 546.78 220.716 545.198 219.803 543.716C217.823 540.652 216.295 537.322 215.268 533.828C214.976 533.201 214.833 532.516 214.848 531.826C214.863 531.137 215.037 530.46 215.355 529.848C215.674 529.235 216.129 528.704 216.686 528.294C217.244 527.884 217.888 527.606 218.571 527.481C220.993 526.763 223.213 525.497 225.059 523.782C225.205 523.676 225.326 523.541 225.414 523.384C225.503 523.228 225.556 523.054 225.571 522.875C225.586 522.696 225.562 522.516 225.501 522.346C225.439 522.177 225.342 522.023 225.215 521.894C221.902 518.259 218.339 514.857 214.553 511.711C214.405 511.679 214.208 511.635 214.011 511.592L215.404 503.724ZM616.132 449.949C612.479 450.018 608.843 450.014 605.234 450.118C596.31 450.451 587.426 451.446 578.655 453.093C577.415 453.334 576.17 453.598 574.945 453.893C574.605 454.021 574.315 454.251 574.115 454.552C573.915 454.853 573.814 455.209 573.828 455.569C574.055 457.003 574.307 458.442 574.509 459.87C574.703 460.851 574.692 461.86 574.478 462.836C574.264 463.811 573.85 464.732 573.264 465.541C571.538 467.878 569.837 470.221 568.004 472.458C566.171 474.694 564.598 476.219 562.915 478.13C562.061 479.064 561.288 480.069 560.604 481.133C560.334 481.611 560.177 482.145 560.146 482.693C560.115 483.241 560.21 483.79 560.425 484.297C560.618 484.826 561.169 485.255 561.617 485.097C565.221 483.838 568.811 482.526 572.41 481.292C576.166 479.902 580.181 479.325 584.184 479.599C591.219 480.222 596.344 476.736 600.367 471.341C600.772 470.79 600.241 470.033 599.364 469.917C598.999 469.925 598.633 469.897 598.273 469.831C597.996 469.669 597.762 469.442 597.593 469.169C597.577 469.08 597.578 468.989 597.597 468.901C597.617 468.813 597.654 468.729 597.706 468.656C599.059 467.198 600.653 465.979 602.418 465.053C605.201 463.307 608.036 461.675 610.756 459.863C614.155 457.714 616.971 454.77 618.959 451.288C619.051 450.872 618.769 450.042 618.334 450.023L616.132 449.949ZM624.672 419.052C624.91 416.475 624.602 413.876 623.768 411.422C623.727 411.301 623.661 411.19 623.574 411.096C623.486 411.002 623.38 410.927 623.262 410.877C623.144 410.827 623.016 410.802 622.888 410.804C622.759 410.807 622.633 410.836 622.517 410.891C621.762 411.391 620.964 411.857 620.247 412.417C617.486 414.529 614.085 415.651 610.596 415.601C608.971 415.603 607.31 415.648 605.687 415.753C603.679 415.836 601.727 416.431 600.02 417.48C599.883 417.598 599.765 417.736 599.671 417.89C599.443 418.225 599.532 418.526 599.983 418.702C602.151 419.639 604.348 420.558 606.51 421.519C606.982 421.761 607.429 422.048 607.844 422.376C607.992 422.409 608.13 422.721 608.084 422.813C608.038 422.906 607.77 423.538 607.587 423.55C606.679 423.596 605.77 423.576 604.865 423.49C601.754 423.387 598.695 422.649 595.88 421.32C593.065 419.992 590.554 418.103 588.503 415.77L588.094 415.398C587.875 415.247 587.609 415.182 587.345 415.213C587.081 415.245 586.838 415.372 586.663 415.571C586.27 415.951 585.904 416.359 585.57 416.791C584.942 417.679 584.123 418.415 583.172 418.947C582.221 419.478 581.161 419.791 580.071 419.863C578.253 420.077 576.503 420.676 574.939 421.618C573.375 422.561 572.033 423.825 571.003 425.327C568.978 428.085 567.167 431.044 565.299 433.914C565.181 434.056 565.093 434.219 565.039 434.395C564.764 435.062 564.651 435.785 564.708 436.505C564.765 437.225 564.99 437.922 565.366 438.541C566.119 439.578 567.386 438.857 568.411 438.774C570.231 438.546 571.974 437.913 573.512 436.922C576.076 435.43 579.011 434.681 581.984 434.761C586.164 434.756 590.348 434.855 594.516 435.258C597.436 435.526 600.366 434.879 602.893 433.409C606.471 431.518 609.182 428.336 610.47 424.516C610.797 423.614 611.184 423.494 612.136 423.626C613.368 423.942 614.636 424.092 615.908 424.071C618.265 423.783 620.541 423.038 622.606 421.878C623.129 421.568 623.582 421.155 623.938 420.665C624.294 420.175 624.545 419.618 624.677 419.027L624.672 419.052ZM483.624 452.128L482.013 459.461C481.983 459.818 482.072 460.176 482.267 460.478C482.462 460.78 482.751 461.01 483.091 461.133C488.664 463.013 494.712 462.93 500.22 460.898C501.609 460.448 502.878 459.696 503.937 458.696C504.995 457.696 505.816 456.475 506.339 455.119C506.389 454.864 506.36 454.601 506.256 454.362C506.151 454.124 505.976 453.923 505.755 453.786C505.041 453.629 504.37 453.277 503.686 453.101L499.431 452.038C499.301 452.019 499.177 451.971 499.067 451.897C498.958 451.824 498.867 451.727 498.8 451.614C498.734 451.501 498.693 451.375 498.682 451.244C498.671 451.114 498.689 450.983 498.735 450.861C498.81 450.518 499.058 450.214 499.182 449.883C499.703 448.818 499.827 447.604 499.531 446.455C499.235 445.306 498.54 444.298 497.568 443.609C496.61 442.761 495.471 442.14 494.238 441.793C493.004 441.447 491.708 441.384 490.448 441.609C489.209 441.849 487.992 442.223 486.756 442.566C486.401 442.651 486.079 442.837 485.829 443.1C485.579 443.363 485.411 443.693 485.346 444.05L483.624 452.128ZM279.443 574.857C279.4 575.053 279.551 574.368 279.51 573.616C279.511 573.436 279.47 573.259 279.391 573.097C279.311 572.936 279.194 572.795 279.05 572.687C278.906 572.578 278.739 572.504 278.561 572.471C278.384 572.438 278.201 572.446 278.027 572.496C273.011 573.957 267.922 575.401 262.923 577.019C258.644 578.525 254.205 579.544 249.692 580.057C247.066 580.36 244.533 581.204 242.255 582.534C239.977 583.865 238.005 585.653 236.464 587.785C236.277 588.093 236.127 588.421 236.017 588.764C235.848 589.184 235.85 589.654 236.022 590.074C236.195 590.494 236.524 590.832 236.941 591.016C237.34 591.239 237.779 591.38 238.233 591.431C238.687 591.482 239.146 591.443 239.584 591.315C240.779 590.899 241.952 590.421 243.097 589.883L251.086 586.513C253.252 585.521 255.713 585.368 257.991 586.083C260.813 586.903 263.827 586.772 266.56 585.71C269.958 584.418 273.193 582.738 276.199 580.704C277.145 580.052 277.928 579.192 278.488 578.191C279.048 577.191 279.369 576.075 279.427 574.93L279.443 574.857ZM762.365 460.215C767.742 460.987 766.479 461.452 770.602 457.951L775.626 453.75L782.401 448.038C782.812 447.693 783.229 447.323 783.621 446.948C783.888 446.702 784.073 446.38 784.151 446.026C784.228 445.672 784.195 445.303 784.056 444.968L780.122 435.981C779.953 435.659 779.88 435.296 779.914 434.935C779.947 434.574 780.085 434.231 780.311 433.947C781.303 432.631 781.82 431.021 781.779 429.375C781.743 429.119 781.64 428.877 781.482 428.672C781.324 428.466 781.115 428.305 780.876 428.203C780.443 428.06 779.985 428.011 779.532 428.058C779.079 428.106 778.642 428.249 778.249 428.478C777.857 428.707 777.519 429.017 777.257 429.387C776.995 429.757 776.817 430.179 776.732 430.624C776.539 431.504 776.346 432.384 776.153 433.264C775.964 434.709 775.825 436.164 775.642 437.585C775.305 441.056 773.631 444.26 770.97 446.526C767.795 449.237 764.848 452.202 761.799 455.043C760.754 456.043 759.638 457.131 758.565 458.022C758.449 458.146 758.36 458.292 758.303 458.452C758.246 458.611 758.222 458.78 758.232 458.949C758.284 459.105 758.373 459.247 758.491 459.362C758.61 459.477 758.754 459.562 758.912 459.611C760.171 459.99 761.286 460.081 762.365 460.215ZM533.581 486.83C533.73 484.864 533.981 482.895 534.001 480.926C534.031 479.926 533.745 478.941 533.182 478.11C532.62 477.278 531.809 476.642 530.866 476.291C530.055 475.858 529.108 475.751 528.222 475.993C526.503 476.537 524.784 477.082 523.098 477.711C522.442 478.019 521.822 478.399 521.25 478.843C520.341 479.58 519.711 480.602 519.46 481.742C519.21 482.883 519.354 484.075 519.871 485.125C521.827 487.964 523.773 490.851 525.601 493.687C526.521 495.016 527.471 496.327 528.446 497.643C528.683 497.977 529.702 497.919 529.861 497.544C531.292 494.086 532.525 490.55 533.555 486.952L533.581 486.83ZM642.912 359.254C642.778 359.751 642.717 360.264 642.733 360.778C643.158 364.715 643.583 368.652 644.082 372.605C644.135 372.95 644.213 373.3 644.286 373.675C644.3 373.803 644.341 373.927 644.406 374.039C644.47 374.151 644.557 374.249 644.66 374.327C644.764 374.404 644.882 374.461 645.008 374.492C645.134 374.523 645.265 374.528 645.393 374.507C645.92 374.407 646.441 374.273 646.951 374.107C652.881 371.771 651.99 373.01 650.709 367.45C650.433 366.037 650.058 364.644 649.586 363.283C649.171 362.082 648.417 361.024 647.414 360.236C646.412 359.448 645.203 358.962 643.932 358.838C643.61 358.895 643.284 359.208 642.886 359.377L642.912 359.254ZM539.457 446.097L534.11 445.307C533.495 445.172 532.873 446.009 532.949 446.717C532.889 447.446 532.991 448.18 533.246 448.867C533.502 449.554 533.906 450.177 534.43 450.692C534.954 451.208 535.584 451.604 536.278 451.851C536.971 452.099 537.71 452.193 538.443 452.127C539.515 452.136 540.586 452.054 541.644 451.882C541.867 451.859 542.083 451.792 542.279 451.684C542.474 451.576 542.646 451.43 542.784 451.254C542.921 451.079 543.021 450.877 543.078 450.662C543.135 450.446 543.147 450.222 543.115 450.001C543.113 449.02 542.727 448.078 542.04 447.372C541.353 446.666 540.417 446.253 539.431 446.219L539.457 446.097ZM466.944 452.077C465.4 451.353 464.68 451.579 464.247 452.612C463.814 453.644 463.193 454.943 462.7 456.013C462.552 456.336 462.523 456.701 462.617 457.045C462.711 457.388 462.923 457.689 463.216 457.894C464.19 458.675 465.227 459.374 466.317 459.985C466.659 460.188 467.379 459.962 467.725 459.679C468.239 459.196 468.689 458.649 469.063 458.051C471.412 455.108 470.104 453.898 467.85 452.532C467.548 452.397 467.236 452.286 466.917 452.199L466.944 452.077ZM314.211 529.785C313.891 529.715 313.398 529.607 313.206 529.898C310.843 532.787 308.524 535.711 306.136 538.595C306.082 538.667 306.045 538.751 306.025 538.839C306.006 538.928 306.005 539.019 306.023 539.108C306.107 539.434 306.198 539.838 306.423 539.99C306.743 540.076 307.08 540.08 307.401 540C307.573 539.94 307.723 539.83 307.832 539.684C310.044 536.66 312.25 533.66 314.443 530.605C314.566 530.632 314.272 530.209 314.184 529.908L314.211 529.785ZM746.455 470.993C746.718 471.205 746.968 471.593 747.2 471.592C749.178 471.397 751.084 470.755 752.772 469.716C752.994 469.563 753.181 469.365 753.321 469.135C753.46 468.905 753.549 468.649 753.581 468.382C753.67 467.919 753.665 467.443 753.567 466.982C753.469 466.52 753.28 466.082 753.01 465.694C752.755 465.33 752.511 465.149 752.075 465.489C749.9 466.771 747.984 468.444 746.425 470.423C746.402 470.648 746.452 470.89 746.439 471.066L746.455 470.993ZM234.716 534.077C234.691 534.294 234.704 534.514 234.754 534.726C235.65 536.871 236.576 538.996 237.503 541.121C237.536 541.202 237.586 541.276 237.649 541.338C237.711 541.399 237.786 541.448 237.868 541.48C237.95 541.513 238.038 541.528 238.126 541.526C238.214 541.524 238.301 541.504 238.381 541.468C238.932 541.307 239.619 540.766 239.505 540.459C238.778 538.25 238.021 536.059 237.258 533.893C237.291 533.746 237.012 533.608 236.91 533.483C236.868 533.399 236.808 533.326 236.733 533.268C236.659 533.21 236.572 533.169 236.48 533.149C236.388 533.129 236.293 533.129 236.201 533.151C236.109 533.172 236.023 533.214 235.95 533.272L234.716 534.077Z" fill="#05003E"/>
<path d="M463.439 269.511C465.227 269.956 466.774 271.069 467.76 272.617C470.073 276.103 472.509 279.512 474.799 282.987C478.1 288.018 481.334 293.07 484.567 298.123C486.762 301.256 488.674 304.575 490.281 308.041C490.703 309.048 491.325 309.961 492.11 310.724C492.895 311.487 493.827 312.085 494.849 312.482C495.191 312.6 495.556 312.634 495.914 312.582C496.271 312.529 496.61 312.392 496.902 312.181C498.241 310.928 499.104 309.253 499.344 307.439C499.571 306.006 499.72 304.561 499.789 303.112C499.925 301.482 500.344 299.889 501.025 298.401C501.606 296.867 502.537 295.489 503.745 294.374C504.953 293.259 506.406 292.438 507.989 291.976C509.378 291.533 510.845 291.326 512.256 291.007C512.434 290.98 512.602 290.912 512.748 290.808C512.893 290.704 513.012 290.567 513.094 290.408C513.175 290.249 513.218 290.073 513.218 289.895C513.218 289.717 513.175 289.541 513.093 289.382L511.524 284.673L508.844 276.95C507.823 273.62 508.039 270.039 509.452 266.859C509.587 266.517 509.756 266.188 509.957 265.88C510.364 265.274 510.971 264.828 511.673 264.617C512.376 264.407 513.13 264.445 513.809 264.726C515.11 265.39 516.251 266.31 517.449 267.118C517.596 267.22 517.763 267.287 517.939 267.314C518.115 267.342 518.295 267.33 518.465 267.28C518.636 267.229 518.792 267.141 518.923 267.021C519.055 266.902 519.157 266.755 519.223 266.59C519.853 265.289 520.378 263.94 520.791 262.555C521.043 261.675 521.069 260.745 520.866 259.851C520.664 258.957 520.239 258.127 519.631 257.437C518.72 256.307 517.719 255.252 516.64 254.279C514.947 252.856 513.864 250.845 513.615 248.658C513.508 247.929 513.447 247.223 513.375 246.483C513.303 245.743 513.723 245.311 514.174 245.317C515.998 245.405 517.812 245.403 519.68 245.626C521.549 245.849 522.305 246.966 522.062 248.978C521.938 249.676 521.886 250.384 521.907 251.093C521.97 251.241 522.068 251.372 522.193 251.474C522.318 251.577 522.465 251.649 522.623 251.683C524.045 251.397 525.435 250.954 526.857 250.668C527.405 250.596 527.961 250.72 528.425 251.019C528.889 251.318 529.231 251.771 529.389 252.298C529.705 253.895 529.894 255.515 529.954 257.141C530.043 259.32 530.519 261.467 531.362 263.483C531.412 263.659 531.504 263.821 531.628 263.956C532.012 264.305 532.437 264.607 532.893 264.855C533.162 264.992 533.913 264.195 533.95 263.792C534.049 262.886 534.147 261.981 534.2 261.108C534.253 260.235 534.317 259.284 534.449 258.424C534.479 258.257 534.545 258.099 534.641 257.959C534.737 257.819 534.863 257.701 535.008 257.613C535.167 257.554 535.337 257.53 535.507 257.544C535.676 257.558 535.84 257.608 535.988 257.691C537.332 258.5 538.358 259.741 538.896 261.207C539.434 262.674 539.452 264.278 538.946 265.753C538.623 266.794 538.167 267.789 537.591 268.715C537.158 269.52 536.475 270.164 535.643 270.55C534.811 270.936 533.875 271.043 532.975 270.857C532.075 270.678 531.175 270.5 530.353 270.446C529.804 270.447 529.271 270.627 528.835 270.957C528.398 271.288 528.083 271.751 527.937 272.277C527.43 276.291 528.337 280.36 530.504 283.793C531.73 285.858 533.711 287.373 536.032 288.021C536.472 288.129 536.935 288.09 537.35 287.911C537.765 287.731 538.109 287.421 538.328 287.028C538.899 286.083 539.075 284.952 538.818 283.877C538.459 282.484 538.009 281.102 537.56 279.72C537.091 278.356 536.871 276.92 536.91 275.481C536.944 273.835 537.593 272.262 538.73 271.068C541.676 267.934 543.042 267.647 546.788 269.559C547.775 270.063 548.739 270.556 549.704 271.048C550.003 271.164 550.323 271.217 550.644 271.206C550.964 271.195 551.279 271.119 551.569 270.983C551.859 270.847 552.118 270.654 552.33 270.415C552.542 270.177 552.703 269.897 552.804 269.595C553.296 268.229 553.677 266.825 553.945 265.398C554.039 264.867 554.26 264.366 554.589 263.937C554.918 263.508 555.347 263.165 555.837 262.934C557.095 262.199 558.442 261.453 559.743 260.852C561.044 260.251 562.28 259.336 563.436 258.577C564.587 257.827 565.522 256.793 566.149 255.576C566.776 254.359 567.073 253 567.013 251.632C567.003 250.542 566.93 249.453 566.795 248.371C566.682 246.752 566.374 245.151 565.88 243.603C565.306 242.186 563.367 242.32 562.249 241.412C561.845 241.205 561.571 240.363 561.788 239.996C561.857 239.834 561.938 239.678 562.029 239.528C562.954 237.96 564.203 236.605 565.692 235.551C566.41 234.977 567.277 234.617 568.193 234.513C569.109 234.408 570.037 234.564 570.869 234.961C572.991 236.018 574.921 237.422 576.578 239.113C576.713 239.227 576.872 239.311 577.042 239.36C577.213 239.41 577.392 239.422 577.568 239.398C577.743 239.374 577.912 239.312 578.062 239.219C578.212 239.125 578.341 239.001 578.439 238.854C580.681 235.107 582.956 231.405 585.085 227.6C586.777 224.598 588.72 221.744 590.896 219.069C591.107 218.778 591.387 218.544 591.71 218.386C592.033 218.228 592.391 218.15 592.752 218.161C595.305 217.999 597.749 217.084 599.772 215.532C602.173 213.886 604.425 212.035 606.502 210C607.001 209.479 607.549 209.005 608.137 208.586C608.398 208.409 608.814 208.481 609.174 208.497C609.535 208.512 609.307 208.789 609.295 208.923C608.816 213.262 608.35 217.578 607.849 221.905C607.629 223.873 607.397 225.863 607.221 227.854C607.122 228.927 607.659 229.314 608.956 229.161C611.483 228.821 614.02 228.514 616.547 228.229C616.881 228.3 617.191 228.458 617.444 228.688C617.556 228.745 617.553 229.081 617.484 229.214C617.265 229.697 616.976 230.147 616.627 230.548C601.651 244.83 587.02 259.485 571.663 273.405C565.992 278.512 560.127 283.39 554.07 288.037C546.994 293.467 539.537 298.388 531.755 302.761C528.582 304.508 525.609 306.591 522.889 308.974C518.754 312.533 514.319 315.734 509.633 318.54C505.532 321.001 501.633 323.621 497.612 326.094C494.921 327.663 492.775 330.008 491.457 332.819C489.813 336.45 488.057 340.024 486.357 343.654C485.803 344.813 485.656 346.124 485.941 347.377C486.037 347.914 486.326 348.399 486.754 348.742C487.182 349.084 487.72 349.261 488.268 349.24C489.542 349.086 490.793 348.781 491.994 348.331C494.549 347.323 496.817 345.712 498.604 343.638C499.356 342.728 499.885 341.48 499.526 341.297C498.809 340.931 498.152 341.27 497.474 341.486C496.796 341.702 496.096 341.851 495.374 341.988C495.283 341.985 495.193 341.961 495.112 341.92C495.031 341.878 494.96 341.819 494.903 341.748C494.867 341.677 494.847 341.599 494.843 341.52C494.84 341.441 494.854 341.362 494.885 341.289C495.204 340.649 495.59 340.045 496.039 339.488C498.552 336.864 501.099 334.284 503.69 331.728C506.868 328.737 510.434 326.18 514.292 324.124C518.587 321.725 522.86 319.296 527.111 316.837C528.368 316.111 529.573 315.298 530.715 314.404C531.618 313.783 532.384 312.986 532.968 312.061C533.551 311.136 533.94 310.103 534.11 309.024C534.149 308.659 534.213 308.297 534.3 307.941C534.476 307.237 534.799 306.58 535.249 306.01C535.698 305.44 536.264 304.971 536.909 304.634C538.295 303.74 539.882 303.2 541.53 303.061C543.178 302.921 544.836 303.188 546.358 303.836C547.716 304.388 549.04 305.008 550.387 305.527C553.936 307.085 557.931 307.306 561.625 306.149C564.768 305.231 568.076 305.001 571.32 305.476C573.671 305.762 576.036 305.909 578.403 305.916C581.913 305.897 585.281 304.551 587.822 302.15C589.724 300.416 591.023 298.126 591.53 295.609C591.901 293.841 592.061 292.036 592.007 290.23C591.971 287.878 591.936 285.527 591.968 283.153C592.055 280.983 591.839 278.811 591.328 276.697C590.507 272.78 590.652 268.725 591.749 264.88C591.838 264.413 592.072 263.986 592.419 263.658C592.765 263.331 593.206 263.12 593.68 263.055C594.039 263.005 594.4 262.983 594.762 262.989C595.389 262.857 596.042 262.93 596.624 263.197C597.206 263.464 597.687 263.91 597.994 264.47C598.975 266.113 600.28 267.542 601.831 268.672C603.381 269.802 605.145 270.609 607.016 271.044C611.444 272.234 615.928 273.201 620.453 273.941C624.789 274.649 629.213 274.616 633.534 273.845C637.15 273.282 640.615 272.013 643.73 270.11C644.806 269.451 645.916 268.781 647.004 268.155C648.476 267.276 649.128 267.44 650.208 268.863C651.288 270.286 652.168 271.494 653.181 272.771C653.859 273.638 654.775 274.291 655.818 274.648C656.862 275.006 657.987 275.054 659.056 274.786C659.955 274.638 660.839 274.413 661.698 274.111C663.925 273.308 666.14 272.472 668.368 271.613C669.136 271.331 669.255 270.604 668.653 269.903L665.396 266.216L664.048 264.544C663.692 264.081 663.845 263.343 664.33 263.226C666.972 262.607 669.625 261.965 672.312 261.369C672.522 261.292 672.749 261.271 672.97 261.31C673.191 261.349 673.398 261.446 673.569 261.59C673.74 261.735 673.869 261.922 673.943 262.133C674.017 262.343 674.033 262.569 673.989 262.788C673.875 265.541 673.715 268.271 673.6 271.023C673.579 272.109 673.615 273.195 673.628 274.27C673.682 274.523 673.829 274.746 674.041 274.896C674.252 275.045 674.512 275.111 674.77 275.078C679.498 273.697 684.071 271.84 688.418 269.536C691.961 267.662 695.426 265.664 698.993 263.69C702.559 261.716 705.378 260.203 708.671 258.651C717.071 254.497 726.664 253.357 735.829 255.424C739.563 256.256 743.434 256.255 747.163 255.42L761.059 252.422L762.119 252.232C762.796 252.128 763.622 253 763.414 253.568C763.207 254.137 762.589 255.171 762.333 256.053C762.104 256.498 762.03 257.191 762.625 257.467C765.005 258.634 767.105 260.299 768.778 262.347C770.452 264.396 771.661 266.779 772.321 269.333C773.144 271.75 774.148 274.09 775.119 276.385C775.278 276.597 775.513 276.74 775.775 276.785C776.037 276.829 776.305 276.772 776.525 276.625C776.833 276.431 777.125 276.213 777.399 275.974C780.549 272.719 783.62 269.395 786.86 266.186C789.02 263.971 791.158 261.746 793.441 259.678C798.322 255.283 804.105 251.992 810.393 250.031C812.469 249.355 814.482 248.502 816.41 247.48C819.839 245.773 823.3 244.167 826.84 242.741C830.91 241.108 835.068 239.745 839.172 238.214C843.275 236.682 847.717 235.043 851.913 233.277C856.624 231.306 861.067 228.758 865.14 225.692C867.341 224.005 869.607 222.519 871.818 220.977C872.473 220.465 873.281 220.181 874.116 220.171C874.951 220.16 875.767 220.423 876.438 220.918C877.102 221.398 877.858 221.736 878.659 221.913C879.46 222.09 880.288 222.101 881.093 221.945C882.537 221.727 884.081 221.644 885.469 221.369L909.445 218.822C911.447 218.712 913.421 218.308 915.302 217.624C916.784 217.102 918.038 216.088 918.854 214.754C919.67 213.42 919.998 211.846 919.784 210.297C919.666 209.227 919.442 208.171 919.114 207.144C918.724 205.95 918.268 204.779 917.748 203.635C916.778 201.284 915.807 198.933 914.758 196.626C911.918 190.521 910.506 183.86 910.628 177.143C910.675 175.677 910.563 174.298 910.554 172.776C910.353 165.026 909.221 166.95 915.856 163.253C920.328 160.785 924.833 158.419 929.237 156.028C930.544 154.752 932.116 153.775 933.843 153.166C935.571 152.558 937.413 152.332 939.24 152.504C942.131 152.038 944.939 151.162 947.577 149.902C950.055 148.777 952.499 147.551 955.01 146.472C956.175 146.018 957.387 145.693 958.624 145.505C959.347 145.367 960.097 145.458 960.767 145.765C961.437 146.072 961.994 146.579 962.36 147.216C962.66 147.679 962.881 148.185 963.147 148.658C963.342 149.056 963.628 149.403 963.982 149.671C964.335 149.94 964.747 150.122 965.184 150.204C966.64 150.379 968.036 150.889 969.26 151.695C970.479 152.739 972.221 153.207 972.803 154.938C971.836 156.887 970.24 158.458 968.268 159.398C966.654 159.692 965.151 160.409 963.912 161.475C963.748 161.675 963.657 161.923 963.652 162.181C963.648 162.439 963.731 162.691 963.888 162.897C964.359 163.137 964.726 163.578 965.186 163.897L967.93 165.663C969.005 166.381 968.939 167.444 967.703 168.359C967.105 168.769 966.485 169.147 965.845 169.491C963.73 170.584 961.996 172.284 960.867 174.371C958.926 177.684 957.999 181.49 958.2 185.323C958.274 186.587 958.528 187.834 958.956 189.027C959.222 190.1 959.879 191.037 960.799 191.658C961.72 192.279 962.839 192.539 963.94 192.386C966.491 192.267 969.009 191.771 971.411 190.916C972.476 190.556 973.567 190.277 974.675 190.08C974.934 190.016 975.258 190.378 975.572 190.538C975.886 190.698 975.648 190.83 975.646 190.998C975.643 191.173 975.611 191.347 975.552 191.512C972.666 197.995 969.769 204.444 966.917 210.916C966.656 211.589 966.228 212.184 965.672 212.648C965.116 213.111 964.451 213.427 963.739 213.566C961.086 214.208 958.465 215.006 955.844 215.748C954.969 215.999 954.118 216.327 953.301 216.727C951.756 217.529 950.548 218.85 949.892 220.456C949.236 222.061 949.175 223.847 949.719 225.497C949.777 225.665 949.873 225.818 949.998 225.946C950.124 226.073 950.276 226.171 950.444 226.233C951.293 226.469 952.164 226.622 953.043 226.688L986.852 229.359C990.139 229.632 993.428 229.681 996.657 230.233C999.815 231.146 1002.85 232.432 1005.7 234.065C1009.72 235.779 1013.67 237.683 1017.62 239.53C1017.75 239.627 1017.86 239.741 1017.95 239.87C1017.68 240.069 1017.42 240.413 1017.15 240.387C1016.25 240.388 1015.34 240.295 1014.46 240.11C1010.91 239.308 1007.37 238.484 1003.81 237.626C994.062 235.271 984.174 233.528 974.206 232.405L937.82 228.193C936.908 228.093 935.995 228.105 935.061 228.05C934.644 228.034 934.154 228.711 934.183 229.204C934.206 230.018 934.436 230.814 934.851 231.518C935.266 232.221 935.853 232.81 936.558 233.228C937.522 233.72 938.43 234.324 939.371 234.861L939.429 234.75C939.188 235.217 939.091 235.899 938.729 236.108C935.603 237.997 932.444 239.786 929.295 241.609L923.599 244.857C923.203 245.077 923.274 245.928 923.711 246.18C924.519 246.592 925.326 247.004 926.042 247.594C926.898 248.144 927.567 248.938 927.961 249.872C928.355 250.806 928.455 251.836 928.249 252.826C928.07 253.888 927.789 254.931 927.41 255.94C926.835 257.64 926.612 259.438 926.754 261.228C926.777 262.588 927.118 263.926 927.748 265.135C928.378 266.345 929.282 267.394 930.387 268.2C931.415 268.962 932.386 269.796 933.294 270.696C933.602 270.969 933.848 271.305 934.013 271.682C934.177 272.058 934.258 272.465 934.249 272.875C934.24 273.285 934.142 273.688 933.96 274.055C933.779 274.423 933.519 274.747 933.199 275.005C931.863 276.243 930.271 277.176 928.533 277.739C924.013 279.28 919.128 279.43 914.514 278.172L910.311 276.982C907.285 276.22 904.112 276.269 901.116 277.123C896.117 278.339 891.632 281.083 888.292 284.97C886.797 286.587 885.808 288.602 885.446 290.77C884.455 296.683 884.212 302.698 884.723 308.675C884.94 310.838 885.373 312.914 885.77 315.113C886.405 318.981 886.227 322.935 885.249 326.728C884.271 330.52 882.513 334.068 880.086 337.148C877.323 340.762 874.011 343.927 870.268 346.53C869.078 347.356 867.843 348.103 866.63 348.917C865.882 349.435 865.167 349.998 864.43 350.605C864.251 350.74 864.107 350.915 864.009 351.115C863.91 351.316 863.861 351.537 863.865 351.76C863.868 351.984 863.924 352.203 864.029 352.401C864.133 352.599 864.283 352.77 864.465 352.901C865.21 353.408 866.017 353.82 866.865 354.126C867.768 354.29 868.686 354.353 869.602 354.314C873.977 354.301 878.346 353.996 882.679 353.4C885.798 353.094 888.688 351.642 890.782 349.328C893.331 346.525 895.991 343.779 898.496 340.897C906.384 331.908 914.026 322.68 922.216 313.93C924.468 311.537 926.82 309.28 929.05 306.876C930.665 305.171 932.224 303.408 933.694 301.544C935.754 298.994 937.319 296.085 938.311 292.965C940.04 288.187 942.44 283.677 945.439 279.568C945.535 279.411 945.678 279.288 945.848 279.214C946.164 279.094 946.617 278.876 946.863 279.002C947.11 279.128 947.883 279.663 947.924 280.077C948.056 281.152 948.012 282.241 947.794 283.3C947.408 285.072 946.907 286.816 946.294 288.523C945 292.079 943.55 295.556 942.266 299.202C941.284 301.934 940.404 304.689 939.691 307.502C938.367 312.432 938.155 317.594 939.072 322.62C939.228 323.421 939.184 324.248 938.946 325.027C938.707 325.807 938.28 326.516 937.702 327.094C937.091 327.769 936.388 328.356 935.614 328.839C934.524 329.504 933.394 330.101 932.229 330.625C930.113 331.653 927.908 332.58 925.803 333.641C923.671 334.67 921.593 335.805 919.576 337.041C915.139 339.645 911.733 343.678 909.92 348.473C909.484 349.665 908.736 350.719 907.752 351.527C906.798 352.389 905.822 353.184 904.834 354.001C903.72 354.937 902.809 356.088 902.156 357.385C901.44 358.66 901.114 360.115 901.218 361.573C901.238 363.382 901.652 365.167 902.433 366.804C902.59 366.884 902.971 367.079 903.299 366.993C903.626 366.907 903.593 366.806 903.696 366.662C906.095 362.939 905.841 363.708 909.396 364.23C910.656 364.424 911.983 364.708 913.188 364.789C916.662 365.234 920.181 364.48 923.155 362.653C926.455 360.705 930.194 359.609 934.033 359.463C941.481 358.802 948.871 357.615 956.147 355.91C968.825 353.035 980.935 348.105 991.992 341.319C994.926 339.471 997.827 337.579 1000.78 335.799C1003.74 334.019 1006.75 332.296 1009.83 330.719C1014.34 328.299 1019.26 326.742 1024.35 326.127C1027.25 325.807 1030 324.691 1032.3 322.905C1040.96 316.457 1051.27 312.557 1062.06 311.647C1062.81 311.577 1063.53 311.552 1064.25 311.526C1064.61 311.514 1064.97 311.605 1065.28 311.789C1065.59 311.974 1065.85 312.243 1066.01 312.565L1067.75 315.34C1067.95 315.645 1068.25 315.867 1068.61 315.958C1068.96 316.049 1069.33 316.004 1069.65 315.831L1070.68 315.485C1081.16 311.239 1091.63 307.007 1102.09 302.791C1103.41 302.219 1104.69 301.568 1105.93 300.842C1107.4 300.097 1108.63 298.95 1109.47 297.535C1109.56 297.379 1109.64 297.223 1109.72 297.068C1110.59 295.46 1111.92 294.141 1113.54 293.271C1115.16 292.401 1117 292.018 1118.84 292.168C1121.39 292.33 1123.95 291.903 1126.31 290.921C1126.82 290.716 1127.34 290.561 1127.88 290.457C1128.68 290.254 1129.53 290.298 1130.31 290.585C1131.09 290.872 1131.76 291.388 1132.24 292.064C1132.57 292.498 1132.85 292.971 1133.07 293.473C1133.29 293.86 1133.62 294.175 1134.02 294.378C1134.42 294.582 1134.87 294.665 1135.31 294.618C1140.07 294.876 1144.83 294.47 1149.47 293.414C1154.41 292.138 1159.39 290.998 1164.33 289.756C1165.23 289.517 1166.18 289.632 1167 290.077C1164.79 293.814 1162.57 297.572 1160.4 301.354C1157.03 306.947 1153.27 312.299 1149.15 317.369C1148.81 317.799 1148.38 318.146 1147.89 318.385C1147.73 318.444 1147.56 318.466 1147.39 318.448C1147.22 318.431 1147.06 318.375 1146.92 318.284C1146.25 317.66 1145.77 316.859 1145.55 315.976C1145.32 315.092 1145.35 314.163 1145.63 313.298C1145.88 312.427 1146.23 311.586 1146.67 310.791C1148.18 307.484 1149.22 303.984 1149.76 300.392C1149.79 300.077 1149.74 299.76 1149.62 299.468C1149.5 299.175 1149.3 298.917 1149.06 298.717C1148.81 298.516 1148.52 298.378 1148.21 298.316C1147.89 298.254 1147.57 298.269 1147.27 298.36C1146.26 298.719 1145.29 299.165 1144.37 299.692C1139 302.575 1133.76 305.325 1128.45 308.153C1127.34 308.765 1126.18 309.312 1125 309.793C1124.48 309.885 1123.95 309.872 1123.44 309.753C1123.25 309.715 1123.08 309.628 1122.94 309.501C1119.94 306.813 1119.1 307.117 1114.8 307.594C1109.01 308.233 1103.23 308.995 1097.46 309.757C1096.38 309.915 1095.32 310.143 1094.27 310.437C1093.82 310.562 1093.39 310.779 1093.02 311.076C1092.66 311.372 1092.36 311.741 1092.14 312.159C1091.98 312.471 1091.81 312.805 1091.65 313.117C1089.14 318.641 1089.82 317.607 1084.03 320.105C1080.68 321.544 1077.31 322.916 1073.93 324.311C1069.73 326.065 1065.42 327.557 1061.03 328.776C1059.1 329.28 1057.2 329.941 1055.3 330.602C1052.27 331.521 1049.55 333.252 1047.44 335.604C1045.32 337.957 1043.91 340.842 1043.33 343.944C1043.12 345.012 1042.97 346.09 1042.89 347.175C1042.84 347.535 1042.86 347.902 1042.96 348.252C1043.07 348.601 1043.24 348.927 1043.47 349.207C1043.71 349.488 1043.99 349.717 1044.32 349.881C1044.65 350.045 1045.01 350.139 1045.37 350.159C1046.63 350.335 1047.9 350.439 1049.18 350.471C1052.83 350.536 1056.48 350.544 1060.12 350.63C1065.23 350.671 1070.33 351.078 1075.38 351.846C1076.82 352.075 1078.26 352.193 1079.72 352.288C1082.28 352.471 1084.86 352.027 1087.21 350.997C1087.69 350.756 1088.2 350.563 1088.72 350.421C1089.15 350.228 1089.63 350.173 1090.09 350.263C1090.55 350.352 1090.97 350.582 1091.3 350.92C1092.22 352.047 1093.38 352.961 1094.7 353.599C1096.02 354.236 1097.45 354.582 1098.92 354.613C1100.37 354.752 1101.81 354.981 1103.24 355.3C1103.74 355.488 1104.22 355.734 1104.67 356.033C1104.52 356.323 1104.65 356.839 1104.45 357.016C1103.59 357.68 1102.69 358.29 1101.75 358.843C1090.28 365.556 1078.12 371.024 1065.47 375.154C1050.56 379.978 1035.27 383.559 1019.76 385.86C1017.78 386.132 1015.77 386.146 1013.79 385.903C1006.85 385.174 999.966 384.468 993.1 383.774C986.627 383.14 986.48 383.206 980.815 386.835C979.256 388.058 977.542 389.074 975.718 389.856C973.588 390.33 971.406 390.538 969.223 390.475C956.487 391.001 943.722 391.034 930.97 390.821C929.72 390.829 928.449 390.602 927.176 390.486L926.563 388.542C930.077 385.934 934.179 384.217 938.516 383.541C943.379 382.734 948.21 381.715 953.029 380.773C953.905 380.578 954.765 380.322 955.605 380.008C955.605 380.008 955.777 379.674 955.846 379.541C955.914 379.407 955.826 379.193 955.714 379.136C955.121 378.735 954.481 378.408 953.807 378.163C947.434 376.567 941.082 374.983 934.674 373.454C932.526 372.971 930.32 372.791 928.122 372.92C926.499 372.991 924.854 373.05 923.207 373.222C917.039 373.812 910.872 374.29 904.664 374.353C900.093 374.433 895.54 374.932 891.063 375.843C886.582 376.732 882.231 378.175 878.114 380.139C875.241 381.318 872.692 383.157 870.675 385.506C870.291 386.011 869.76 386.386 869.153 386.58C868.547 386.773 867.894 386.776 867.285 386.587C866.571 386.467 865.867 386.286 865.183 386.048C864.981 385.945 864.728 385.337 864.83 385.193C865.656 383.59 866.784 382.17 867.744 380.636C867.973 380.191 867.795 379.931 867.323 379.859C865.345 379.695 863.355 379.846 861.427 380.306C857.14 380.929 852.784 381.685 848.485 382.442C846.158 382.85 843.772 382.815 841.456 382.339C830.182 380.077 819.074 377.055 808.21 373.293C803.508 371.828 798.925 370.005 794.503 367.84C794.077 367.623 793.933 367.352 794.195 367.008C794.285 366.875 794.417 366.775 794.569 366.721C795.303 366.562 796.014 366.391 796.725 366.276C803.359 365.05 809.874 363.259 816.196 360.923C816.375 360.874 816.531 360.765 816.638 360.615C816.878 360.371 817.037 360.061 817.097 359.725C817.078 359.553 817.022 359.387 816.932 359.239C816.842 359.091 816.72 358.964 816.575 358.868C813.352 357.646 810.011 356.759 806.605 356.223C799.585 355.113 792.565 354.003 785.545 352.836L766.128 349.613C764.148 349.328 762.293 348.479 760.787 347.167C752.95 340.337 746.043 332.52 740.242 323.914C739.72 322.97 739.281 321.983 738.928 320.965C738.684 320.504 738.464 319.885 738.072 319.657C736.727 318.708 735.635 317.446 734.894 315.982C733.27 313.635 731.657 311.265 729.853 308.882C727.098 305.243 723.57 302.252 719.522 300.121C712.261 296.279 704.461 293.547 696.385 292.019C681.88 288.957 666.924 288.71 652.34 291.29C646.618 292.327 641.025 293.966 635.656 296.182C629.39 298.708 623.571 302.209 618.416 306.553C613.49 310.617 608.587 314.636 603.661 318.699C603.121 319.183 602.473 319.533 601.771 319.722C601.068 319.91 600.331 319.931 599.618 319.784C592.609 318.595 585.589 317.485 578.569 316.374C577.129 316.145 575.701 315.838 574.249 315.687C572.696 315.421 571.101 315.731 569.767 316.558C568.432 317.385 567.451 318.671 567.009 320.171C566.66 321.2 566.383 322.252 566.181 323.319C564.512 331.126 562.797 338.909 561.229 346.74C561.131 347.361 560.886 347.95 560.515 348.459C560.145 348.969 559.659 349.384 559.096 349.671C557.511 350.548 555.915 351.392 554.296 352.224C554.239 352.336 553.958 352.221 553.767 352.207C553.575 352.194 553.206 351.921 553.334 351.452C554.22 348.137 555.095 344.789 555.969 341.552C557.273 336.82 558.712 332.156 559.566 327.307C559.733 326.268 558.972 325.655 557.887 326.057C550.371 328.858 543.093 332.248 536.12 336.197C532.441 338.223 529.26 341.035 526.808 344.431C525.748 345.912 524.91 347.539 524.32 349.261C524.045 350.124 523.54 350.896 522.858 351.495C520.088 353.848 517.508 356.382 514.549 358.498C508.924 362.556 502.586 365.536 495.858 367.285C493.215 368.016 490.529 368.556 487.865 369.164C486.973 369.355 486.059 369.479 485.156 369.637C481.7 370.17 478.552 371.912 476.28 374.55C473.514 377.665 470.648 380.699 467.815 383.779C467.654 384.091 467.382 384.345 467.132 384.611C466.392 385.764 465.39 386.726 464.205 387.42C463.021 388.115 461.687 388.522 460.314 388.608C451.938 390.423 443.493 391.912 434.981 393.076C434.263 393.118 433.543 393.098 432.829 393.018C432.829 393.018 432.753 392.67 432.833 392.57C433.088 392.107 433.41 391.684 433.791 391.316C436.231 389.395 438.099 386.851 439.197 383.955C439.461 383.277 439.796 382.628 440.194 382.019C440.472 381.543 440.863 381.143 441.333 380.854C441.803 380.564 442.338 380.394 442.89 380.359C444.335 380.275 445.785 380.291 447.228 380.409C449.782 380.691 452.366 380.462 454.827 379.734C456.411 379.288 457.865 378.473 459.066 377.355C460.268 376.237 461.182 374.85 461.735 373.309C461.847 372.966 461.933 372.615 461.992 372.26C462.132 371.825 462.094 371.352 461.884 370.944C461.674 370.537 461.311 370.228 460.873 370.086C459.817 369.828 458.76 369.569 457.68 369.411C452.639 368.693 447.552 368.008 442.534 367.301L419.746 364.297C418.655 364.281 417.583 364.004 416.621 363.489C419.178 358.525 421.746 353.538 424.303 348.574C425.633 345.992 426.952 343.432 428.113 340.792C428.583 339.88 429.053 338.967 429.523 338.054C429.627 337.821 429.645 337.559 429.575 337.313C429.505 337.067 429.352 336.853 429.141 336.707L433.636 327.981C435.747 327.456 437.891 327.033 440.082 326.465C442.388 325.842 444.393 324.425 445.74 322.466C446.584 321.266 447.507 320.135 448.373 319.003C448.618 318.731 448.938 318.537 449.293 318.444C449.648 318.35 450.023 318.362 450.372 318.477L455.47 320.405C455.99 320.586 456.56 320.562 457.062 320.336C457.563 320.11 457.957 319.701 458.162 319.193C459.007 317.775 459.288 316.093 458.948 314.478C458.524 312.715 457.943 310.928 457.44 309.266C456.309 305.804 455.684 302.2 455.586 298.564C455.465 297.884 455.502 297.186 455.693 296.523C455.885 295.861 456.226 295.251 456.692 294.74C457.157 294.229 457.734 293.831 458.378 293.576C459.023 293.32 459.718 293.215 460.41 293.267C462.939 293.186 465.413 292.525 467.638 291.335C467.807 291.27 467.959 291.17 468.085 291.041C468.21 290.912 468.307 290.758 468.367 290.589C468.427 290.419 468.45 290.239 468.434 290.06C468.418 289.881 468.363 289.707 468.274 289.551C466 285.2 463.425 281.011 460.567 277.013C460.432 276.944 460.253 276.853 460.073 276.761L463.439 269.511ZM865.05 318.985C861.498 318.127 857.979 317.202 854.46 316.389C845.738 314.453 836.885 313.165 827.974 312.536C826.712 312.455 825.44 312.396 824.178 312.37C823.817 312.408 823.477 312.557 823.206 312.797C822.935 313.037 822.747 313.355 822.668 313.707C822.52 315.15 822.394 316.604 822.224 318.035C822.159 319.031 821.89 320.004 821.433 320.892C820.975 321.78 820.339 322.566 819.564 323.199C817.294 325.02 815.047 326.853 812.7 328.55C810.352 330.248 808.439 331.323 806.319 332.743C805.253 333.43 804.248 334.205 803.313 335.06C802.929 335.453 802.64 335.929 802.47 336.451C802.299 336.973 802.251 337.527 802.328 338.071C802.38 338.631 802.803 339.185 803.277 339.145C807.087 338.842 810.899 338.483 814.698 338.202C818.69 337.809 822.723 338.267 826.527 339.546C833.175 341.929 839.03 339.857 844.306 335.663C844.839 335.233 844.52 334.367 843.701 334.033C843.345 333.949 842.999 333.829 842.668 333.674C842.441 333.447 842.273 333.169 842.179 332.863C842.186 332.773 842.211 332.685 842.252 332.604C842.293 332.524 842.35 332.453 842.42 332.395C844.104 331.329 845.958 330.555 847.905 330.107C851.045 329.124 854.208 328.265 857.304 327.203C861.145 325.987 864.626 323.855 867.443 320.994C867.638 320.615 867.578 319.741 867.163 319.613L865.05 318.985ZM881.239 291.293C882.131 288.864 882.499 286.274 882.321 283.692C882.313 283.565 882.277 283.441 882.217 283.328C882.157 283.215 882.073 283.116 881.972 283.037C881.87 282.959 881.753 282.903 881.628 282.873C881.503 282.843 881.373 282.839 881.247 282.863C880.388 283.155 879.496 283.402 878.659 283.762C875.445 285.104 871.866 285.328 868.502 284.396C866.929 283.986 865.31 283.609 863.713 283.3C861.748 282.872 859.706 282.953 857.784 283.534C857.622 283.613 857.473 283.718 857.342 283.843C857.036 284.108 857.044 284.421 857.436 284.706C859.293 286.16 861.184 287.604 863.03 289.08C863.424 289.433 863.783 289.824 864.101 290.246C864.236 290.314 864.289 290.651 864.221 290.728C864.153 290.806 863.731 291.35 863.551 291.314C862.661 291.129 861.786 290.88 860.933 290.568C857.948 289.681 855.177 288.193 852.794 286.197C850.41 284.201 848.464 281.74 847.077 278.967L846.777 278.505C846.604 278.303 846.363 278.172 846.099 278.136C845.836 278.1 845.568 278.162 845.348 278.309C844.87 278.577 844.412 278.878 843.977 279.211C843.142 279.91 842.161 280.414 841.103 280.687C840.046 280.96 838.941 280.994 837.868 280.787C836.053 280.534 834.206 280.67 832.451 281.185C830.696 281.699 829.072 282.581 827.69 283.772C825.023 285.924 822.512 288.325 819.967 290.624C819.817 290.732 819.69 290.867 819.592 291.023C819.155 291.599 818.861 292.269 818.731 292.979C818.601 293.689 818.641 294.419 818.846 295.112C819.308 296.304 820.72 295.929 821.732 296.108C823.552 296.348 825.402 296.178 827.145 295.61C830.008 294.817 833.041 294.836 835.898 295.666C839.945 296.72 843.968 297.874 847.898 299.319C850.656 300.317 853.657 300.433 856.48 299.652C860.428 298.73 863.867 296.343 866.094 292.978C866.641 292.189 867.047 292.171 867.934 292.54C869.045 293.157 870.235 293.622 871.47 293.924C873.825 294.243 876.219 294.099 878.516 293.501C879.101 293.333 879.645 293.049 880.115 292.666C880.585 292.283 880.972 291.808 881.251 291.271L881.239 291.293ZM736.252 287.549L732.812 294.227C732.691 294.565 732.686 294.933 732.797 295.274C732.908 295.616 733.129 295.911 733.426 296.115C738.337 299.342 744.213 300.793 750.064 300.224C751.523 300.141 752.945 299.735 754.226 299.038C755.507 298.34 756.614 297.367 757.468 296.189C757.582 295.956 757.621 295.694 757.582 295.437C757.542 295.181 757.424 294.942 757.244 294.754C756.594 294.421 756.035 293.911 755.418 293.568L751.573 291.464C751.452 291.412 751.344 291.334 751.257 291.236C751.17 291.137 751.107 291.021 751.071 290.895C751.036 290.769 751.029 290.636 751.051 290.508C751.074 290.379 751.125 290.257 751.202 290.15C751.362 289.839 751.68 289.607 751.885 289.318C752.662 288.422 753.093 287.279 753.102 286.095C753.11 284.91 752.695 283.759 751.932 282.848C751.222 281.786 750.279 280.898 749.174 280.251C748.069 279.604 746.832 279.215 745.554 279.114C744.293 279.032 743.02 279.085 741.735 279.104C741.37 279.096 741.011 279.194 740.702 279.385C740.392 279.576 740.145 279.853 739.99 280.181L736.252 287.549ZM507.171 354.45C507.08 354.628 507.401 354.005 507.554 353.268C507.601 353.094 507.608 352.913 507.572 352.736C507.536 352.56 507.459 352.395 507.348 352.253C507.236 352.112 507.093 351.998 506.93 351.921C506.766 351.844 506.587 351.806 506.406 351.81C501.177 351.952 495.881 352.059 490.629 352.357C486.101 352.729 481.544 352.591 477.045 351.944C474.425 351.572 471.758 351.746 469.212 352.455C466.667 353.164 464.299 354.393 462.26 356.063C462.001 356.312 461.771 356.591 461.577 356.894C461.306 357.258 461.187 357.712 461.246 358.162C461.305 358.611 461.537 359.021 461.893 359.305C462.222 359.621 462.611 359.868 463.037 360.033C463.464 360.197 463.918 360.275 464.375 360.263C465.639 360.163 466.896 359.998 468.142 359.769L476.738 358.535C479.088 358.124 481.51 358.599 483.531 359.866C486.052 361.373 489.002 362.009 491.92 361.675C495.539 361.287 499.101 360.482 502.532 359.278C503.615 358.887 504.593 358.255 505.392 357.43C506.19 356.604 506.787 355.608 507.137 354.517L507.171 354.45ZM1003.94 365.918C1008.95 368.024 1007.6 368.154 1012.49 365.814L1018.43 363.028L1026.45 359.223C1026.94 358.994 1027.44 358.742 1027.91 358.479C1028.24 358.309 1028.5 358.045 1028.66 357.723C1028.83 357.4 1028.89 357.035 1028.84 356.676L1027.34 346.997C1027.26 346.643 1027.28 346.274 1027.41 345.934C1027.53 345.593 1027.75 345.297 1028.04 345.079C1029.34 344.059 1030.26 342.634 1030.64 341.034C1030.67 340.777 1030.63 340.517 1030.53 340.279C1030.43 340.04 1030.27 339.831 1030.06 339.672C1029.68 339.425 1029.25 339.261 1028.8 339.193C1028.35 339.124 1027.89 339.152 1027.45 339.274C1027.01 339.396 1026.61 339.61 1026.26 339.901C1025.91 340.192 1025.63 340.554 1025.43 340.963C1025.02 341.764 1024.61 342.566 1024.2 343.367C1023.64 344.715 1023.13 346.086 1022.59 347.413C1021.38 350.681 1018.94 353.353 1015.78 354.869C1012.01 356.685 1008.4 358.804 1004.72 360.777C1003.45 361.479 1002.09 362.247 1000.82 362.837C1000.68 362.927 1000.56 363.046 1000.46 363.185C1000.36 363.325 1000.3 363.482 1000.26 363.648C1000.27 363.812 1000.32 363.971 1000.41 364.113C1000.49 364.254 1000.61 364.373 1000.75 364.46C1001.87 365.144 1002.93 365.515 1003.94 365.918ZM775.7 333.724C776.347 331.862 777.096 330.023 777.62 328.126C777.906 327.167 777.881 326.143 777.55 325.197C777.219 324.252 776.598 323.432 775.774 322.854C775.101 322.23 774.212 321.887 773.293 321.897C771.49 321.988 769.686 322.079 767.893 322.26C767.179 322.391 766.482 322.601 765.815 322.886C764.746 323.368 763.873 324.196 763.338 325.234C762.803 326.272 762.638 327.461 762.868 328.606C764.033 331.844 765.176 335.126 766.217 338.329C766.767 339.847 767.351 341.354 767.957 342.872C768.1 343.254 769.101 343.456 769.352 343.134C771.623 340.155 773.724 337.051 775.642 333.836L775.7 333.724ZM914.229 238.133C913.972 238.579 913.782 239.059 913.664 239.56C913.066 243.471 912.468 247.383 911.937 251.329C911.9 251.676 911.886 252.034 911.86 252.414C911.841 252.542 911.849 252.671 911.883 252.796C911.916 252.92 911.975 253.037 912.055 253.138C912.135 253.24 912.235 253.324 912.349 253.386C912.463 253.448 912.588 253.486 912.717 253.499C913.254 253.535 913.792 253.537 914.328 253.506C920.667 252.75 919.487 253.722 919.673 248.025C919.768 246.59 919.762 245.15 919.655 243.715C919.561 242.449 919.103 241.237 918.334 240.221C917.566 239.206 916.521 238.431 915.323 237.989C914.997 237.963 914.601 238.182 914.172 238.245L914.229 238.133ZM791.834 295.855L786.861 293.738C786.301 293.452 785.484 294.103 785.376 294.807C785.131 295.496 785.041 296.231 785.112 296.959C785.184 297.688 785.415 298.392 785.79 299.023C786.164 299.653 786.673 300.195 787.28 300.61C787.888 301.025 788.579 301.303 789.305 301.424C790.341 301.704 791.398 301.896 792.466 301.998C792.688 302.032 792.914 302.022 793.131 301.967C793.348 301.913 793.552 301.815 793.73 301.68C793.908 301.545 794.057 301.376 794.167 301.182C794.277 300.988 794.347 300.774 794.372 300.553C794.621 299.605 794.49 298.596 794.006 297.741C793.522 296.885 792.722 296.249 791.776 295.967L791.834 295.855ZM720.123 283.278C718.814 282.188 718.059 282.225 717.375 283.112C716.691 284 715.758 285.098 715.006 286.007C714.78 286.283 714.658 286.628 714.661 286.983C714.664 287.339 714.792 287.683 715.022 287.956C715.765 288.956 716.589 289.894 717.487 290.76C717.766 291.043 718.521 291.007 718.929 290.822C719.55 290.484 720.126 290.07 720.641 289.587C723.669 287.338 722.714 285.838 720.883 283.947C720.625 283.741 720.352 283.554 720.065 283.39L720.123 283.278ZM552.378 319.702C552.087 319.553 551.638 319.324 551.377 319.556C548.349 321.749 545.355 323.987 542.305 326.169C542.234 326.226 542.176 326.297 542.135 326.377C542.093 326.458 542.069 326.546 542.064 326.637C542.061 326.972 542.046 327.387 542.225 327.59C542.512 327.755 542.837 327.843 543.169 327.847C543.351 327.833 543.524 327.765 543.666 327.651C546.583 325.289 549.488 322.949 552.393 320.553C552.506 320.61 552.33 320.126 552.321 319.813L552.378 319.702ZM985.778 372.304C985.978 372.575 986.121 373.013 986.345 373.072C988.31 373.383 990.318 373.245 992.219 372.669C992.473 372.578 992.705 372.434 992.898 372.247C993.092 372.06 993.244 371.834 993.344 371.585C993.548 371.16 993.666 370.699 993.689 370.228C993.713 369.758 993.642 369.287 993.481 368.843C993.327 368.427 993.138 368.19 992.629 368.408C990.195 369.097 987.912 370.229 985.895 371.746C985.814 371.958 985.801 372.204 985.743 372.371L985.778 372.304ZM474.344 303.727C474.264 303.93 474.221 304.146 474.214 304.364C474.532 306.662 474.883 308.95 475.234 311.238C475.246 311.325 475.275 311.409 475.32 311.484C475.365 311.56 475.425 311.626 475.496 311.678C475.567 311.73 475.648 311.767 475.733 311.787C475.819 311.807 475.908 311.81 475.995 311.796C476.57 311.78 477.373 311.431 477.342 311.106C477.205 308.787 477.034 306.478 476.852 304.192C476.921 304.059 476.686 303.855 476.62 303.708C476.601 303.616 476.561 303.53 476.504 303.455C476.447 303.381 476.373 303.32 476.289 303.277C476.205 303.234 476.113 303.21 476.019 303.208C475.924 303.205 475.831 303.224 475.745 303.262L474.344 303.727Z" fill="#05003E"/>
</svg>
