<svg width="811" height="592" viewBox="0 0 811 592" fill="none" xmlns="http://www.w3.org/2000/svg">
<path d="M810.354 159.176C808.065 159.711 805.659 159.342 803.635 158.147C798.974 155.509 794.217 153.033 789.588 150.395C782.901 146.568 776.28 142.676 769.658 138.784C765.336 136.483 761.227 133.803 757.378 130.776C756.311 129.87 755.072 129.189 753.735 128.775C752.398 128.36 750.991 128.22 749.599 128.364C749.142 128.428 748.708 128.602 748.333 128.871C747.958 129.14 747.653 129.495 747.445 129.907C746.658 132.123 746.658 134.542 747.445 136.758C748.025 138.53 748.701 140.27 749.47 141.969C750.268 143.913 750.724 145.98 750.82 148.08C751.058 150.174 750.807 152.295 750.088 154.276C749.368 156.257 748.2 158.045 746.674 159.498C745.356 160.816 743.813 161.91 742.398 163.1C742.212 163.234 742.061 163.41 741.957 163.614C741.852 163.819 741.798 164.045 741.798 164.274C741.798 164.503 741.852 164.729 741.957 164.933C742.061 165.137 742.212 165.314 742.398 165.448L746.931 169.919L754.485 177.187C757.59 180.402 759.438 184.625 759.692 189.088C759.74 189.558 759.74 190.032 759.692 190.503C759.584 191.434 759.156 192.299 758.482 192.95C757.808 193.601 756.93 193.998 755.996 194.073C754.131 194.073 752.299 193.687 750.467 193.462C750.242 193.432 750.012 193.453 749.796 193.524C749.581 193.595 749.383 193.713 749.22 193.871C749.056 194.029 748.93 194.221 748.851 194.435C748.772 194.648 748.742 194.876 748.763 195.102C748.808 196.959 749.001 198.809 749.342 200.634C749.57 201.789 750.084 202.868 750.836 203.772C751.589 204.677 752.556 205.378 753.649 205.813C755.344 206.572 757.096 207.196 758.889 207.678C761.642 208.317 764.046 209.986 765.607 212.342C766.154 213.114 766.636 213.886 767.15 214.69C767.665 215.494 767.44 216.234 766.925 216.491C764.804 217.456 762.746 218.517 760.496 219.353C758.246 220.19 756.735 219.353 755.835 216.909C755.568 216.039 755.212 215.198 754.774 214.4C754.616 214.268 754.428 214.175 754.227 214.13C754.026 214.085 753.816 214.09 753.617 214.143C752.17 215.301 750.852 216.62 749.406 217.777C748.827 218.18 748.123 218.362 747.422 218.291C746.721 218.221 746.068 217.901 745.581 217.392C744.288 215.749 743.127 214.007 742.109 212.181C740.735 209.74 738.939 207.562 736.805 205.748C736.645 205.577 736.447 205.444 736.226 205.362C735.587 205.188 734.928 205.09 734.265 205.073C733.88 205.073 733.494 206.424 733.687 206.906C734.105 208 734.523 209.093 734.973 210.123C735.423 211.152 735.905 212.278 736.258 213.339C736.322 213.548 736.34 213.767 736.312 213.983C736.285 214.199 736.212 214.407 736.098 214.593C735.952 214.754 735.773 214.88 735.573 214.963C735.373 215.047 735.157 215.085 734.94 215.076C732.943 214.935 731.053 214.115 729.586 212.752C728.118 211.389 727.16 209.564 726.872 207.582C726.631 206.202 726.566 204.797 726.679 203.4C726.699 202.227 727.099 201.092 727.817 200.164C728.535 199.237 729.535 198.567 730.665 198.254C731.79 197.933 732.915 197.611 733.88 197.193C734.502 196.871 735.002 196.354 735.304 195.721C735.606 195.088 735.693 194.374 735.551 193.687C733.781 188.798 730.373 184.673 725.908 182.012C723.31 180.365 720.177 179.789 717.164 180.404C716.602 180.537 716.099 180.852 715.733 181.3C715.367 181.747 715.158 182.302 715.139 182.88C715.043 184.296 715.505 185.692 716.425 186.772C717.646 188.155 718.964 189.474 720.282 190.792C721.611 192.079 722.7 193.593 723.497 195.263C724.42 197.166 724.603 199.344 724.011 201.374C722.5 206.681 721.118 207.807 715.75 207.807C714.335 207.807 712.953 207.807 711.571 207.807C711.164 207.85 710.769 207.975 710.412 208.175C710.055 208.376 709.742 208.646 709.492 208.971C709.243 209.296 709.062 209.668 708.96 210.065C708.859 210.462 708.84 210.876 708.903 211.28C709.143 213.131 709.53 214.959 710.06 216.748C710.264 217.411 710.306 218.113 710.183 218.796C710.06 219.479 709.775 220.122 709.353 220.672C708.356 222.248 707.263 223.889 706.138 225.336C705.013 226.783 704.145 228.552 703.277 230.096C702.409 231.626 701.953 233.354 701.953 235.113C701.953 236.872 702.409 238.601 703.277 240.131C703.926 241.372 704.645 242.574 705.431 243.733C706.506 245.52 707.79 247.172 709.256 248.654C710.735 249.941 712.857 248.654 714.657 249.04C715.235 249.04 716.039 249.844 716.007 250.391C716.023 250.616 716.023 250.842 716.007 251.066C715.873 253.401 715.249 255.68 714.175 257.756C713.696 258.832 712.922 259.75 711.944 260.405C710.966 261.059 709.822 261.423 708.646 261.455C705.619 261.485 702.609 261.007 699.741 260.04C699.521 259.989 699.292 259.985 699.069 260.028C698.847 260.071 698.636 260.161 698.451 260.292C698.266 260.422 698.111 260.591 697.995 260.786C697.879 260.981 697.806 261.198 697.78 261.423C697.427 267.019 697.009 272.584 696.816 278.18C696.651 282.602 696.114 287.003 695.209 291.335C695.139 291.79 694.959 292.222 694.684 292.591C694.41 292.961 694.049 293.259 693.634 293.458C690.831 295.134 688.592 297.609 687.205 300.566C685.442 303.852 683.969 307.284 682.801 310.826C682.539 311.714 682.194 312.575 681.772 313.399C681.579 313.753 681.065 313.913 680.647 314.106C680.229 314.299 680.325 313.849 680.261 313.688C678.268 308.446 676.275 303.235 674.314 297.993C673.414 295.613 672.514 293.2 671.55 290.82C671.035 289.534 670.2 289.405 668.817 290.338C666.149 292.203 663.449 294.037 660.749 295.838C660.328 295.953 659.884 295.953 659.463 295.838C659.302 295.838 659.109 295.452 659.109 295.259C659.076 294.578 659.141 293.895 659.302 293.232C667.949 268.145 675.986 242.833 685.276 217.938C688.726 208.782 692.53 199.777 696.687 190.921C701.542 180.576 707.128 170.591 713.403 161.041C715.982 157.19 718.138 153.07 719.832 148.755C722.444 142.268 725.606 136.016 729.283 130.068C732.497 124.858 735.391 119.583 738.509 114.405C740.644 111.037 741.709 107.101 741.562 103.115C741.305 98.0015 741.209 92.8875 741.016 87.7414C740.968 86.0919 740.368 84.5061 739.312 83.2384C738.889 82.6801 738.278 82.2941 737.593 82.1522C736.907 82.0102 736.193 82.1219 735.583 82.4666C734.228 83.3875 732.987 84.4673 731.887 85.6829C729.577 88.3287 727.944 91.4965 727.129 94.9137C726.808 96.3932 726.936 98.1301 727.451 98.1301C728.479 98.1301 729.026 97.3581 729.669 96.7149C730.312 96.0716 731.019 95.4927 731.758 94.9137C731.864 94.8647 731.979 94.8394 732.096 94.8394C732.212 94.8394 732.327 94.8647 732.433 94.9137C732.516 94.9736 732.584 95.0506 732.634 95.1394C732.684 95.2282 732.714 95.3268 732.722 95.4284C732.734 96.3462 732.648 97.2627 732.465 98.1623C731.147 102.633 729.765 107.071 728.319 111.51C726.461 116.788 723.909 121.796 720.732 126.402C717.261 131.655 713.832 136.93 710.446 142.226C709.444 143.791 708.552 145.425 707.778 147.115C707.116 148.353 706.713 149.712 706.591 151.111C706.47 152.51 706.633 153.918 707.07 155.252C707.239 155.693 707.378 156.144 707.488 156.603C707.699 157.51 707.717 158.452 707.54 159.366C707.362 160.281 706.994 161.147 706.46 161.91C705.409 163.742 703.925 165.287 702.136 166.409C700.348 167.531 698.311 168.195 696.205 168.343C694.341 168.503 692.476 168.568 690.644 168.761C685.707 169.052 681.044 171.133 677.529 174.614C674.499 177.501 670.88 179.695 666.921 181.047C664.087 182.093 661.317 183.307 658.627 184.681C654.655 186.753 651.62 190.261 650.141 194.491C648.996 197.586 648.86 200.964 649.755 204.14C650.368 206.379 651.242 208.538 652.359 210.573C653.773 213.242 655.188 215.912 656.538 218.646C657.708 221.179 659.222 223.539 661.038 225.657C664.259 229.66 666.465 234.383 667.467 239.423C667.639 240.01 667.623 240.635 667.421 241.212C667.219 241.789 666.842 242.288 666.342 242.64C665.965 242.906 665.567 243.143 665.153 243.347C664.519 243.864 663.735 244.162 662.919 244.196C662.102 244.231 661.296 244.001 660.62 243.54C658.547 242.234 656.23 241.361 653.81 240.974C651.391 240.587 648.918 240.694 646.541 241.289C640.821 242.514 635.167 244.027 629.6 245.824C624.266 247.547 619.266 250.169 614.813 253.575C611.04 256.331 607.85 259.807 605.427 263.803C604.591 265.186 603.723 266.601 602.855 267.952C601.698 269.818 600.862 270.011 598.805 269.014C596.747 268.016 595.044 267.148 593.147 266.28C591.872 265.683 590.451 265.472 589.058 265.672C587.664 265.872 586.36 266.474 585.304 267.405C584.37 268.1 583.499 268.875 582.7 269.721C580.643 271.94 578.617 274.192 576.592 276.475C575.885 277.247 576.174 278.148 577.267 278.598L583.118 280.914L585.625 282.04C586.3 282.361 586.557 283.294 586.075 283.712C583.439 285.964 580.803 288.247 578.103 290.499C577.91 290.71 577.664 290.866 577.391 290.95C577.118 291.035 576.827 291.045 576.548 290.98C576.27 290.914 576.014 290.775 575.807 290.578C575.6 290.38 575.449 290.131 575.371 289.855C573.892 286.639 572.478 283.423 570.999 280.206C570.388 278.952 569.713 277.73 569.07 276.508C568.862 276.25 568.564 276.081 568.236 276.033C567.909 275.986 567.575 276.063 567.302 276.25C562.744 280.592 558.641 285.388 555.055 290.563C552.13 294.776 549.365 299.086 546.472 303.428C543.579 307.77 541.264 311.147 538.436 314.846C531.332 324.505 521.112 331.413 509.505 334.401C504.782 335.631 500.39 337.894 496.647 341.027L482.631 352.574L481.538 353.41C480.831 353.924 479.384 353.41 479.288 352.638C479.192 351.866 479.288 350.322 479.063 349.164C479.063 348.521 478.742 347.685 477.906 347.717C474.522 347.772 471.167 347.094 468.071 345.728C464.974 344.362 462.21 342.341 459.969 339.805C457.622 337.521 455.115 335.431 452.672 333.372C452.368 333.223 452.018 333.196 451.694 333.298C451.371 333.4 451.099 333.622 450.936 333.919C450.7 334.321 450.496 334.74 450.325 335.173C448.654 340.738 447.111 346.334 445.31 351.898C444.153 355.693 443.028 359.489 441.646 363.188C438.677 371.067 434.038 378.21 428.048 384.126C426.088 386.112 424.302 388.264 422.712 390.559C419.819 394.515 416.83 398.374 413.647 402.073C409.983 406.318 406.061 410.307 402.3 414.456C398.539 418.605 394.456 423.076 390.727 427.546C386.534 432.553 382.981 438.063 380.152 443.95C378.641 447.166 376.937 450.189 375.33 453.245C374.886 454.214 374.135 455.01 373.194 455.509C372.253 456.009 371.173 456.186 370.122 456.011C369.088 455.85 368.032 455.904 367.02 456.17C366.008 456.436 365.062 456.907 364.24 457.555C362.729 458.648 361.025 459.645 359.611 460.771L333.894 477.689C331.687 478.984 329.683 480.599 327.947 482.481C326.572 483.944 325.741 485.835 325.595 487.838C325.449 489.841 325.996 491.834 327.144 493.481C327.904 494.636 328.776 495.714 329.748 496.697C330.888 497.835 332.09 498.908 333.348 499.914C335.823 502.036 338.298 504.159 340.838 506.185C347.628 511.511 353.123 518.307 356.911 526.062C357.714 527.767 358.646 529.279 359.546 531.016C364.304 539.764 364.465 536.901 359.096 545.007C355.464 550.442 351.735 555.781 348.135 561.088C347.398 563.312 346.186 565.347 344.581 567.053C342.976 568.759 341.018 570.093 338.845 570.962C335.836 573.184 333.162 575.827 330.905 578.81C328.751 581.544 326.694 584.374 324.476 587.076C323.42 588.276 322.234 589.354 320.94 590.292C320.2 590.873 319.296 591.207 318.356 591.247C317.416 591.288 316.487 591.033 315.7 590.518C315.089 590.164 314.543 589.714 313.964 589.328C313.511 588.987 312.984 588.757 312.426 588.656C311.867 588.556 311.293 588.587 310.75 588.748C308.995 589.4 307.113 589.631 305.253 589.424C303.26 588.942 301.01 589.424 299.338 587.784C299.295 584.989 300.189 582.26 301.878 580.032C303.536 578.753 304.823 577.054 305.606 575.111C305.675 574.787 305.634 574.45 305.488 574.152C305.342 573.855 305.101 573.615 304.803 573.471C304.128 573.471 303.453 573.181 302.745 573.085L298.599 572.667C296.959 572.474 296.413 571.219 297.281 569.451C297.72 568.632 298.203 567.837 298.727 567.07C300.488 564.584 301.463 561.626 301.524 558.58C301.791 553.655 300.618 548.76 298.149 544.492C297.327 543.089 296.31 541.811 295.127 540.697C294.198 539.624 292.905 538.935 291.497 538.763C290.09 538.59 288.668 538.947 287.509 539.764C284.684 541.391 282.116 543.428 279.89 545.811C278.892 546.844 277.817 547.801 276.676 548.673C276.418 548.898 275.84 548.673 275.39 548.673C274.94 548.673 275.133 548.384 275.036 548.191C274.938 547.988 274.873 547.771 274.843 547.547C274.329 538.445 273.847 529.375 273.3 520.305C273.203 519.383 273.341 518.451 273.701 517.596C274.061 516.741 274.63 515.992 275.358 515.416C277.993 513.133 280.501 510.688 283.04 508.308C283.887 507.51 284.662 506.638 285.355 505.703C286.639 503.883 287.238 501.666 287.043 499.446C286.849 497.226 285.875 495.147 284.294 493.577C284.129 493.419 283.931 493.3 283.714 493.227C283.497 493.155 283.267 493.132 283.04 493.159C281.939 493.385 280.862 493.719 279.826 494.156L239.901 510.849C236.012 512.457 232.251 514.323 228.265 515.577C224.148 516.378 219.949 516.68 215.76 516.478C210.199 516.864 204.606 516.992 199.044 517.185C198.843 517.15 198.648 517.085 198.466 516.992C198.659 516.606 198.755 516.06 199.077 515.931C200.101 515.402 201.179 514.982 202.291 514.677C206.791 513.519 211.292 512.393 215.824 511.299C228.265 508.298 240.504 504.516 252.47 499.978L296.22 483.543C297.313 483.124 298.342 482.578 299.435 482.095C299.917 481.87 300.077 480.809 299.756 480.262C299.254 479.343 298.528 478.567 297.646 478.005C296.763 477.442 295.753 477.112 294.709 477.046C293.327 477.046 291.945 476.885 290.562 476.82V476.981C290.562 476.306 290.273 475.469 290.562 475.019C293.005 471.031 295.545 467.139 298.052 463.215L302.617 456.172C302.938 455.689 302.36 454.756 301.717 454.724C300.56 454.724 299.402 454.724 298.245 454.467C296.953 454.338 295.729 453.82 294.737 452.982C293.744 452.144 293.028 451.024 292.684 449.771C292.266 448.451 291.975 447.094 291.816 445.719C291.475 443.438 290.677 441.25 289.469 439.286C288.648 437.743 287.48 436.412 286.058 435.396C284.635 434.381 282.998 433.708 281.272 433.432C279.661 433.16 278.071 432.773 276.515 432.274C276.005 432.142 275.53 431.9 275.123 431.566C274.716 431.232 274.387 430.814 274.157 430.339C273.928 429.865 273.805 429.347 273.795 428.82C273.786 428.293 273.891 427.771 274.104 427.289C274.897 425.092 276.158 423.095 277.801 421.435C282.029 417.033 287.484 414.007 293.455 412.751L298.92 411.658C302.799 410.762 306.37 408.853 309.271 406.126C314.233 401.815 317.718 396.055 319.236 389.658C319.988 386.935 319.932 384.052 319.075 381.36C316.745 374.016 313.505 366.993 309.432 360.454C307.921 358.106 306.217 355.983 304.481 353.699C301.5 349.645 299.39 345.018 298.284 340.108C297.177 335.198 297.099 330.112 298.052 325.171C299.076 319.422 300.984 313.867 303.71 308.703C304.578 307.063 305.542 305.487 306.442 303.846C306.989 302.817 307.471 301.756 307.953 300.63C308.077 300.371 308.138 300.087 308.132 299.8C308.127 299.513 308.053 299.232 307.919 298.978C307.784 298.725 307.592 298.507 307.358 298.341C307.124 298.175 306.854 298.067 306.571 298.025C305.429 297.879 304.273 297.879 303.131 298.025C302.011 298.364 300.933 298.828 299.917 299.408C294.959 301.979 290.18 304.88 285.612 308.092C282.251 310.265 279.821 313.613 278.797 317.484C277.543 322.179 276.129 326.875 274.972 331.635C271.275 346.527 267.996 361.547 263.817 376.342C262.66 380.395 261.31 384.351 260.185 388.404C259.349 391.298 258.61 394.225 258.031 397.216C257.185 401.337 257.108 405.579 257.806 409.728C258.637 416.205 258.55 422.766 257.549 429.219C257.531 429.454 257.441 429.679 257.292 429.862C257.003 430.184 256.617 430.698 256.263 430.698C255.91 430.698 254.72 430.538 254.431 430.087C253.653 428.935 253.067 427.664 252.695 426.324C252.097 424.072 251.646 421.784 251.345 419.473C250.734 414.649 250.348 409.824 249.673 404.903C249.191 401.205 248.58 397.538 247.745 393.904C246.366 387.49 243.589 381.461 239.612 376.246C238.967 375.42 238.533 374.45 238.348 373.418C238.163 372.387 238.233 371.326 238.551 370.328C238.85 369.198 239.305 368.116 239.901 367.111C240.748 365.714 241.682 364.371 242.698 363.091C244.498 360.679 246.459 358.331 248.227 355.887C250.044 353.464 251.74 350.952 253.306 348.36C256.818 342.789 258.326 336.186 257.581 329.641C257.379 328.023 257.612 326.379 258.256 324.881C258.835 323.337 259.478 321.858 260.121 320.346C260.839 318.625 261.2 316.776 261.181 314.91C261.25 313.034 260.769 311.179 259.799 309.571C258.719 307.513 257.205 305.713 255.363 304.297C255.138 304.297 254.592 304.297 254.27 304.586C253.949 304.876 254.045 304.972 254.013 305.197C253.467 310.858 253.306 309.829 248.966 311.308C247.423 311.823 245.752 312.273 244.337 312.884C240.135 314.404 236.583 317.322 234.276 321.15C231.669 325.305 228.067 328.744 223.796 331.153C215.731 336.26 208.04 341.935 200.78 348.135C188.075 358.83 177.215 371.543 168.635 385.766C166.385 389.594 164.199 393.453 161.884 397.216C159.57 400.979 157.159 404.71 154.587 408.313C150.889 413.713 146.211 418.371 140.797 422.046C137.692 424.107 135.221 426.992 133.661 430.377C127.602 442.811 118.18 453.296 106.466 460.642C105.662 461.157 104.858 461.607 104.055 462.057C103.651 462.283 103.191 462.388 102.729 462.36C102.268 462.331 101.824 462.171 101.451 461.897L97.8506 459.742C97.4501 459.506 96.9748 459.431 96.5212 459.533C96.0676 459.634 95.6695 459.904 95.4076 460.288L94.4432 461.286C85.0353 472.264 75.6275 483.221 66.2196 494.156C65.0583 495.58 63.9848 497.073 63.005 498.627C61.767 500.34 61.0422 502.371 60.9155 504.481C60.9155 504.706 60.9155 504.931 60.9155 505.156C60.8587 507.509 60.1208 509.794 58.7913 511.735C57.4618 513.676 55.5979 515.19 53.4257 516.092C50.4318 517.398 47.7804 519.38 45.6786 521.881C45.2233 522.412 44.7173 522.896 44.1678 523.328C43.3754 524.031 42.3879 524.475 41.3369 524.601C40.2859 524.727 39.2214 524.53 38.2852 524.036C37.6524 523.734 37.0587 523.356 36.5172 522.91C36.0399 522.596 35.4812 522.429 34.9099 522.429C34.3387 522.429 33.7799 522.596 33.3026 522.91C27.7558 525.393 22.5837 528.641 17.9371 532.559C13.0832 536.901 8.10064 541.115 3.21454 545.425C2.33643 546.221 1.18478 546.647 0 546.615C0.321454 541.05 0.642904 535.454 0.900068 529.858C1.45529 521.49 2.59386 513.172 4.30747 504.963C4.43806 504.275 4.72395 503.626 5.14329 503.066C5.28772 502.906 5.46758 502.781 5.66851 502.703C5.86945 502.625 6.0859 502.595 6.30052 502.615C7.42519 502.938 8.43417 503.576 9.2087 504.454C9.98322 505.331 10.491 506.412 10.6723 507.568C10.8973 508.712 10.9944 509.877 10.9616 511.042C11.1861 515.706 12.0514 520.316 13.5332 524.744C13.6833 525.121 13.9238 525.456 14.2339 525.719C14.5439 525.982 14.9138 526.164 15.3109 526.25C15.708 526.336 16.1201 526.322 16.5108 526.211C16.9016 526.1 17.2589 525.894 17.5514 525.612C18.4796 524.616 19.3186 523.539 20.0588 522.396C24.4627 515.963 28.8023 509.756 33.1741 503.419C34.0849 502.067 35.0723 500.767 36.1315 499.528C36.6663 499.119 37.2788 498.823 37.9316 498.659C38.1629 498.595 38.4075 498.595 38.6388 498.659C43.6213 499.978 44.3928 499.142 48.9896 496.086C55.1937 491.969 61.3013 487.724 67.4089 483.478C68.5362 482.669 69.6099 481.788 70.6235 480.841C71.0686 480.432 71.4242 479.935 71.6676 479.381C71.9111 478.827 72.0372 478.229 72.0379 477.625C72.0379 477.174 72.0379 476.692 72.0379 476.241C71.6521 468.458 71.4914 470.034 76.6025 463.794C79.5599 460.192 82.5816 456.654 85.6032 453.084C89.343 448.624 93.3583 444.402 97.6256 440.444C99.5222 438.739 101.29 436.874 103.058 435.008C105.966 432.183 108.042 428.614 109.063 424.689C110.083 420.765 110.007 416.636 108.844 412.751C108.461 411.407 107.999 410.086 107.462 408.795C107.307 408.354 107.063 407.95 106.744 407.609C106.425 407.268 106.039 406.996 105.61 406.812C105.181 406.628 104.718 406.534 104.252 406.538C103.785 406.542 103.324 406.642 102.897 406.833C101.363 407.369 99.8605 407.992 98.3971 408.699C94.2182 410.757 90.0714 412.88 85.8925 414.906C80.0695 417.844 74.0428 420.36 67.859 422.432C66.091 423.011 64.3873 423.719 62.6835 424.459C59.6631 425.749 57.0036 427.759 54.9365 430.312C54.5275 430.871 54.0645 431.388 53.5543 431.856C53.1811 432.326 52.6713 432.668 52.0955 432.835C51.5196 433.002 50.9061 432.986 50.3397 432.789C48.6308 432.04 46.7796 431.673 44.9145 431.711C43.0494 431.75 41.2151 432.195 39.5389 433.014C37.809 433.704 36.0375 434.284 34.2348 434.751C33.5514 434.832 32.8609 434.832 32.1775 434.751C32.1775 434.333 31.7275 433.818 31.8561 433.497C32.4443 432.234 33.1099 431.01 33.8491 429.83C42.9373 415.452 53.5418 402.092 65.4802 389.98C79.5778 375.752 94.8353 362.723 111.095 351.03C113.182 349.562 115.451 348.373 117.845 347.492C126.139 344.276 134.368 341.059 142.565 337.843C150.28 334.787 150.408 334.627 154.716 327.165C155.77 324.855 157.121 322.692 158.734 320.732C160.873 318.945 163.228 317.432 165.742 316.229C179.886 308.188 194.351 300.694 208.945 293.49C210.36 292.75 211.935 292.268 213.446 291.656L215.278 293.522C212.815 298.559 209.163 302.919 204.638 306.226C199.591 309.99 194.705 313.978 189.786 317.87C188.907 318.604 188.08 319.4 187.311 320.25C187.311 320.25 187.311 320.732 187.311 320.925C187.311 321.118 187.536 321.311 187.697 321.311C188.604 321.424 189.522 321.424 190.429 321.311C198.594 319.413 206.727 317.516 214.892 315.522C217.613 314.819 220.221 313.737 222.639 312.305C224.439 311.276 226.271 310.247 228.039 309.089C234.694 304.811 241.412 300.662 248.42 296.963C253.56 294.202 258.435 290.972 262.982 287.314C267.547 283.68 271.64 279.487 275.165 274.835C277.735 271.808 279.553 268.215 280.469 264.35C280.609 263.548 280.992 262.809 281.568 262.233C282.143 261.658 282.882 261.274 283.683 261.133C284.564 260.854 285.468 260.649 286.383 260.522C286.673 260.522 287.316 261.069 287.284 261.294C287.284 263.61 286.833 265.894 286.641 268.209C286.641 268.853 286.994 269.046 287.573 268.853C289.913 267.885 292.083 266.549 294.002 264.897C298.502 261.68 303.003 258.271 307.439 254.894C309.841 253.067 312.568 251.714 315.475 250.906C329.589 246.908 343.959 243.877 358.486 241.836C364.678 240.764 370.943 240.173 377.226 240.067C377.837 240.067 378.159 240.292 378.062 240.838C378.037 241.044 377.947 241.235 377.805 241.385C377.066 241.996 376.358 242.607 375.619 243.154C368.808 248.432 362.462 254.286 356.653 260.651C356.479 260.812 356.365 261.027 356.332 261.262C356.203 261.681 356.203 262.13 356.332 262.549C356.453 262.735 356.614 262.892 356.803 263.008C356.992 263.125 357.204 263.199 357.425 263.224C361.796 262.74 366.105 261.802 370.283 260.426C378.898 257.596 387.513 254.765 396.16 251.999L420.076 244.344C422.489 243.514 425.091 243.402 427.566 244.023C440.451 247.259 452.857 252.168 464.469 258.625C465.613 259.4 466.688 260.272 467.684 261.23C468.23 261.616 468.841 262.195 469.419 262.227C471.5 262.527 473.476 263.333 475.173 264.575C478.388 266.312 481.603 268.081 485.042 269.753C490.295 272.307 496.047 273.669 501.886 273.742C512.37 273.896 522.818 272.465 532.874 269.496C551.122 264.526 568.238 256.073 583.278 244.602C589.166 240.074 594.554 234.931 599.351 229.26C604.985 222.71 609.542 215.306 612.852 207.324C616.067 199.798 619.281 192.336 622.496 184.81C622.826 183.941 623.356 183.162 624.043 182.536C624.73 181.911 625.554 181.455 626.45 181.208C635.097 178.474 643.712 175.644 652.327 172.813C654.095 172.234 655.895 171.752 657.631 171.076C659.548 170.473 661.176 169.187 662.207 167.461C663.238 165.736 663.6 163.692 663.224 161.717C663.02 160.336 662.719 158.971 662.324 157.632C659.656 147.726 657.052 137.82 654.256 127.945C654.004 127.177 653.937 126.36 654.06 125.561C654.183 124.762 654.492 124.003 654.963 123.346C656.249 121.416 657.566 119.519 658.917 117.621C658.917 117.46 659.302 117.428 659.527 117.332C659.752 117.235 660.331 117.332 660.46 117.943C661.392 122.253 662.356 126.595 663.256 130.808C664.542 136.983 665.635 143.159 667.499 149.205C667.917 150.492 669.139 150.749 670.135 149.656C677.027 142.061 683.304 133.93 688.908 125.34C691.899 120.873 693.865 115.798 694.662 110.481C695 108.167 695 105.816 694.662 103.501C694.47 102.354 694.592 101.176 695.016 100.092C696.784 95.7822 698.23 91.3758 700.352 87.2268C704.362 79.2989 709.813 72.1874 716.425 66.2562C718.996 63.8762 721.729 61.6891 724.397 59.4377C725.297 58.6979 726.261 58.0225 727.193 57.3149C730.804 54.6859 733.357 50.8536 734.394 46.5081C735.712 41.3298 737.191 36.1836 738.605 31.0053C738.605 30.5551 738.766 30.1048 738.894 29.6545C739.06 27.9043 739.635 26.2177 740.573 24.7313C741.511 23.2449 742.786 22.0006 744.295 21.0991C752.738 14.1304 761.45 7.49403 770.429 1.19003C771.219 0.723419 772.047 0.325302 772.904 0C772.904 0 773.194 0.35371 773.161 0.514526C773.143 1.19314 773.024 1.86534 772.808 2.50873C771.162 6.13146 770.528 10.1331 770.976 14.0874C771.071 15.0177 771.071 15.9554 770.976 16.8857C770.939 17.5918 770.729 18.2779 770.365 18.8836C770 19.4894 769.492 19.9962 768.886 20.3593C767.296 21.2996 765.642 22.1271 763.936 22.8358C760.872 24.0048 758.074 25.7767 755.706 28.0464C754.17 29.4822 752.997 31.2643 752.287 33.2446C751.577 35.2249 751.35 37.3462 751.624 39.4321C751.697 39.8898 751.804 40.3415 751.945 40.783C752.04 41.3626 752.361 41.881 752.837 42.2246C753.313 42.5682 753.905 42.7091 754.485 42.6163C755.835 42.2947 757.185 41.973 758.503 41.5227C764.643 39.3999 770.815 37.2128 776.922 35.09L804.535 25.216C805.783 24.5964 807.161 24.2875 808.554 24.3154C808.554 31.4878 808.554 38.6923 808.554 45.8648C808.554 49.5957 808.553 53.2945 808.779 56.9933C808.779 58.312 808.779 59.6306 808.779 60.9493C808.798 61.2767 808.93 61.5872 809.153 61.8277C809.376 62.0682 809.675 62.2239 810 62.268V74.8761C807.911 76.7094 805.725 78.4462 803.571 80.376C801.319 82.4349 799.872 85.2279 799.489 88.2559C799.231 90.1214 798.846 91.9548 798.524 93.7559C798.405 94.2096 798.155 94.6186 797.807 94.9328C797.459 95.247 797.027 95.4527 796.563 95.5248L789.652 96.2967C788.956 96.3931 788.323 96.7544 787.886 97.3056C787.449 97.8567 787.241 98.5552 787.305 99.2558C787.175 101.371 787.84 103.46 789.17 105.11C790.681 106.879 792.384 108.583 793.927 110.191C797.234 113.491 800.049 117.25 802.285 121.352C802.82 122.059 803.186 122.879 803.356 123.749C803.526 124.619 803.495 125.516 803.265 126.373C803.036 127.229 802.614 128.021 802.032 128.69C801.45 129.358 800.723 129.885 799.906 130.229C797.085 131.799 794.664 134 792.834 136.662C792.681 136.834 792.567 137.038 792.5 137.259C792.432 137.48 792.413 137.712 792.444 137.941C792.474 138.17 792.554 138.39 792.676 138.585C792.799 138.781 792.963 138.947 793.156 139.074C798.279 142.723 803.65 146.012 809.229 148.916C809.421 148.916 809.679 148.916 809.936 148.916L810.354 159.176ZM325.729 337.167C330.262 336.074 334.794 335.077 339.263 333.951C350.291 331.072 361.09 327.373 371.569 322.887C373.048 322.244 374.526 321.568 375.973 320.861C376.361 320.607 376.659 320.237 376.826 319.805C376.993 319.372 377.021 318.898 376.905 318.448C376.23 316.712 375.523 314.975 374.88 313.238C374.37 312.06 374.107 310.79 374.107 309.507C374.107 308.224 374.37 306.954 374.88 305.776C376.391 302.367 377.869 298.957 379.541 295.645C381.212 292.332 382.755 289.984 384.331 287.121C385.139 285.713 385.827 284.239 386.388 282.715C386.594 282.04 386.643 281.327 386.532 280.63C386.42 279.934 386.151 279.272 385.745 278.695C385.359 278.084 384.555 277.698 384.041 278.019C379.894 280.592 375.78 283.23 371.633 285.771C367.333 288.552 362.489 290.383 357.425 291.142C348.488 292.3 343.056 298.089 339.52 305.969C339.166 306.773 340.034 307.577 341.159 307.481C341.612 307.369 342.075 307.305 342.542 307.288C342.932 307.415 343.285 307.636 343.57 307.931C343.615 308.038 343.638 308.153 343.638 308.269C343.638 308.385 343.615 308.5 343.57 308.606C342.283 310.81 340.631 312.779 338.684 314.428C335.695 317.387 332.609 320.217 329.715 323.241C326.068 326.875 323.364 331.347 321.84 336.267C321.84 336.814 322.418 337.779 322.965 337.682L325.729 337.167ZM323.544 378.304C323.952 381.604 325.047 384.781 326.758 387.632C326.842 387.773 326.955 387.894 327.089 387.988C327.224 388.082 327.376 388.146 327.538 388.177C327.699 388.207 327.864 388.203 328.024 388.164C328.183 388.126 328.332 388.054 328.462 387.953C329.265 387.117 330.133 386.313 330.873 385.412C333.735 381.999 337.666 379.654 342.027 378.755C344.052 378.304 346.11 377.79 348.103 377.211C350.582 376.552 352.851 375.268 354.692 373.48C354.831 373.294 354.939 373.088 355.014 372.869C355.207 372.386 355.014 372.032 354.403 371.936C351.446 371.357 348.456 370.81 345.499 370.199C344.845 370.026 344.21 369.789 343.602 369.492C343.409 369.492 343.152 369.138 343.184 369.009C343.217 368.88 343.377 368.012 343.602 367.948C344.72 367.639 345.859 367.414 347.01 367.272C350.915 366.543 354.928 366.627 358.799 367.518C362.671 368.409 366.317 370.088 369.511 372.451L370.122 372.804C370.436 372.933 370.786 372.943 371.107 372.83C371.427 372.717 371.694 372.491 371.858 372.193C372.244 371.607 372.588 370.995 372.887 370.36C373.425 369.073 374.244 367.923 375.285 366.993C376.325 366.064 377.559 365.379 378.898 364.989C381.105 364.218 383.121 362.984 384.812 361.37C386.503 359.756 387.829 357.798 388.702 355.629C390.47 351.609 391.917 347.395 393.46 343.278C393.568 343.068 393.633 342.839 393.653 342.603C393.812 341.689 393.755 340.751 393.487 339.863C393.219 338.975 392.747 338.162 392.11 337.489C390.888 336.396 389.506 337.65 388.252 338.036C386.047 338.824 384.047 340.099 382.402 341.767C379.616 344.347 376.164 346.096 372.437 346.816C367.229 347.974 361.989 349.004 356.685 349.647C352.973 350.116 349.5 351.736 346.753 354.278C342.812 357.639 340.305 362.38 339.745 367.53C339.584 368.752 339.134 369.009 337.913 369.106C336.291 369.049 334.669 369.211 333.091 369.588C330.232 370.599 327.6 372.161 325.344 374.187C324.778 374.72 324.326 375.363 324.017 376.077C323.707 376.79 323.546 377.559 323.544 378.336V378.304ZM490.25 297.896V288.247C490.19 287.79 489.981 287.366 489.655 287.041C489.33 286.715 488.906 286.506 488.449 286.446C480.991 285.623 473.476 287.395 467.169 291.464C465.562 292.412 464.185 293.706 463.14 295.252C462.095 296.799 461.407 298.559 461.126 300.405C461.133 300.738 461.241 301.061 461.437 301.331C461.632 301.601 461.905 301.806 462.219 301.917C463.151 301.917 464.083 302.174 464.983 302.206L470.577 302.367C470.744 302.355 470.912 302.382 471.068 302.444C471.225 302.506 471.365 302.602 471.479 302.726C471.593 302.849 471.678 302.996 471.728 303.157C471.777 303.317 471.79 303.487 471.766 303.653C471.766 304.104 471.541 304.554 471.477 305.004C471.119 306.484 471.298 308.042 471.98 309.403C472.663 310.763 473.806 311.837 475.206 312.434C476.631 313.234 478.22 313.7 479.852 313.794C481.484 313.889 483.116 313.611 484.624 312.981C486.103 312.337 487.517 311.533 488.964 310.761C489.382 310.557 489.732 310.235 489.972 309.836C490.211 309.436 490.33 308.976 490.314 308.51L490.25 297.896ZM711.089 87.5484C711.089 87.2911 711.089 88.1917 711.346 89.1244C711.393 89.3502 711.492 89.5619 711.636 89.7425C711.779 89.923 711.963 90.0675 712.172 90.1643C712.382 90.2612 712.611 90.3078 712.841 90.3004C713.071 90.2929 713.297 90.2316 713.5 90.1214C719.35 86.9051 725.297 83.6888 731.083 80.2795C736.003 77.2091 741.255 74.7058 746.738 72.8176C749.928 71.7133 752.853 69.9561 755.327 67.658C757.801 65.3599 759.77 62.5712 761.107 59.4698C761.256 59.0324 761.353 58.579 761.396 58.1189C761.491 57.5446 761.36 56.9557 761.03 56.4759C760.701 55.9962 760.198 55.6629 759.628 55.5459C759.07 55.3768 758.484 55.321 757.905 55.3817C757.325 55.4425 756.763 55.6186 756.253 55.8997C754.877 56.7517 753.547 57.675 752.267 58.6658L743.234 65.0984C740.807 66.9408 737.782 67.8123 734.748 67.5429C731.007 67.2916 727.288 68.2868 724.172 70.3731C720.292 72.9321 716.721 75.9326 713.532 79.3145C712.531 80.3944 711.79 81.6892 711.367 83.0997C710.943 84.5101 710.848 85.9989 711.089 87.4518V87.5484ZM140.7 364.603C133.789 365.117 135.236 364.185 131.057 369.717L125.946 376.375L119.067 385.412C118.649 385.959 118.231 386.538 117.845 387.117C117.58 387.499 117.437 387.954 117.437 388.42C117.437 388.885 117.58 389.34 117.845 389.722L125.206 399.918C125.506 400.275 125.695 400.711 125.752 401.173C125.809 401.635 125.731 402.104 125.528 402.523C124.651 404.448 124.448 406.612 124.949 408.666C125.065 408.977 125.259 409.253 125.512 409.467C125.766 409.681 126.07 409.826 126.396 409.889C126.974 409.948 127.559 409.884 128.11 409.699C128.661 409.515 129.167 409.215 129.593 408.819C130.019 408.423 130.356 407.941 130.581 407.404C130.805 406.867 130.913 406.289 130.896 405.707C130.896 404.55 130.896 403.392 130.896 402.234C130.735 400.368 130.51 398.503 130.35 396.67C129.819 392.22 131.029 387.737 133.725 384.158C136.939 379.88 139.8 375.345 142.822 370.939C143.851 369.395 144.944 367.723 146.037 366.307C146.147 366.12 146.218 365.912 146.245 365.697C146.273 365.481 146.257 365.262 146.197 365.053C146.09 364.871 145.94 364.718 145.761 364.606C145.582 364.494 145.379 364.427 145.169 364.41C143.497 364.281 142.083 364.474 140.7 364.603ZM418.501 268.113C418.855 270.622 419.08 273.163 419.594 275.639C419.83 276.903 420.457 278.06 421.385 278.949C422.314 279.837 423.497 280.412 424.769 280.592C425.898 280.913 427.107 280.786 428.145 280.238C430.138 279.081 432.131 277.923 434.06 276.668C434.793 276.101 435.462 275.454 436.053 274.739C436.983 273.562 437.49 272.106 437.49 270.606C437.49 269.105 436.983 267.649 436.053 266.473C432.838 263.449 429.623 260.362 426.57 257.306C425.059 255.891 423.516 254.508 421.941 253.125C421.555 252.771 420.301 253.125 420.205 253.639C419.368 258.374 418.799 263.153 418.501 267.952V268.113ZM317.179 458.391C317.21 457.731 317.145 457.07 316.986 456.429C315.379 451.604 313.771 446.78 312.068 441.955C311.907 441.537 311.714 441.119 311.521 440.669C311.468 440.512 311.383 440.368 311.272 440.245C311.161 440.123 311.026 440.024 310.876 439.954C310.726 439.885 310.563 439.847 310.397 439.843C310.232 439.839 310.068 439.868 309.914 439.929C309.284 440.201 308.672 440.513 308.082 440.862C301.331 445.429 302.103 443.628 305.221 450.254C305.951 451.951 306.8 453.596 307.76 455.175C308.606 456.567 309.835 457.687 311.3 458.4C312.765 459.113 314.404 459.389 316.022 459.195C316.407 459.034 316.729 458.552 317.179 458.23V458.391ZM422.326 320.861L429.206 320.378C430.009 320.378 430.556 319.156 430.266 318.288C430.142 317.356 429.814 316.463 429.308 315.672C428.801 314.88 428.127 314.21 427.333 313.707C426.54 313.204 425.646 312.881 424.714 312.761C423.782 312.641 422.836 312.727 421.941 313.013C420.602 313.297 419.29 313.695 418.019 314.203C417.747 314.293 417.497 314.437 417.282 314.626C417.067 314.815 416.893 315.046 416.77 315.305C416.647 315.563 416.578 315.844 416.566 316.13C416.554 316.416 416.6 316.701 416.701 316.969C416.972 318.199 417.71 319.277 418.76 319.973C419.809 320.669 421.088 320.93 422.326 320.7V320.861ZM511.048 293.361C513.169 293.844 514.005 293.361 514.262 291.946C514.519 290.531 514.937 288.73 515.259 287.25C515.354 286.803 515.291 286.337 515.08 285.932C514.869 285.527 514.523 285.208 514.102 285.031C512.674 284.32 511.19 283.728 509.665 283.262C509.183 283.101 508.348 283.584 507.994 284.034C507.486 284.783 507.075 285.593 506.772 286.446C504.651 290.788 506.612 291.946 509.794 293.039C510.207 293.125 510.626 293.179 511.048 293.2V293.361ZM680.1 153.708C680.518 153.708 681.161 153.708 681.322 153.29C683.476 149.012 685.565 144.702 687.751 140.425C687.798 140.318 687.822 140.203 687.822 140.087C687.822 139.971 687.798 139.856 687.751 139.749C687.558 139.363 687.333 138.881 687.012 138.752C686.589 138.732 686.169 138.821 685.79 139.01C685.592 139.132 685.435 139.311 685.34 139.524C683.411 143.931 681.483 148.305 679.586 152.743C679.425 152.743 679.908 153.194 680.1 153.547V153.708ZM157.577 346.688C157.191 346.495 156.773 346.077 156.484 346.141C154.073 346.932 151.874 348.263 150.055 350.033C149.82 350.286 149.641 350.586 149.53 350.913C149.419 351.24 149.379 351.587 149.412 351.93C149.428 352.536 149.564 353.132 149.812 353.684C150.061 354.236 150.416 354.733 150.858 355.147C151.276 355.533 151.63 355.694 152.08 355.147C154.439 352.937 156.368 350.309 157.77 347.395C157.738 347.106 157.609 346.816 157.577 346.591V346.688ZM777.983 126.402C777.954 126.123 777.878 125.851 777.758 125.598C776.054 123.153 774.319 120.741 772.583 118.329C772.519 118.236 772.437 118.157 772.342 118.097C772.246 118.037 772.14 117.997 772.029 117.979C771.918 117.961 771.805 117.965 771.695 117.992C771.586 118.019 771.483 118.068 771.393 118.136C770.75 118.489 770.043 119.358 770.268 119.712C771.779 122.285 773.322 124.826 774.865 127.334C774.865 127.527 775.251 127.624 775.411 127.753C775.487 127.846 775.582 127.922 775.691 127.974C775.799 128.026 775.918 128.053 776.038 128.053C776.159 128.053 776.278 128.026 776.386 127.974C776.495 127.922 776.59 127.846 776.665 127.753L777.983 126.402Z" fill="#05003E"/>
<path d="M264.522 139.989L274.507 141.727C276.85 142.17 279.227 142.416 281.611 142.462C283.073 142.56 284.537 142.293 285.871 141.686C287.204 141.079 288.366 140.152 289.251 138.986C289.716 138.147 290.304 137.382 290.993 136.713C292.338 135.671 293.303 134.217 293.739 132.574C294.175 130.932 294.057 129.192 293.406 127.622C293.139 126.683 293.139 125.688 293.406 124.748C293.586 123.847 294.116 123.054 294.88 122.542C295.298 122.341 295.756 122.236 296.22 122.236C296.684 122.236 297.142 122.341 297.56 122.542C300.978 125.216 304.262 128.157 307.546 130.898C308.057 131.417 308.667 131.83 309.34 132.111C310.013 132.393 310.736 132.538 311.466 132.538C312.196 132.538 312.919 132.393 313.592 132.111C314.265 131.83 314.875 131.417 315.386 130.898C317.034 129.473 319.025 128.501 321.164 128.079C323.303 127.657 325.516 127.799 327.583 128.491C339.445 131.115 350.614 136.219 360.353 143.465C364.642 146.674 368.663 150.15 372.751 153.492C374.338 155.331 376.518 156.56 378.916 156.968C379.787 155.297 380.792 153.759 381.529 152.021C382.87 148.679 386.22 147.275 388.231 144.668C388.442 144.278 388.553 143.842 388.553 143.398C388.553 142.955 388.442 142.518 388.231 142.128C387.269 140.479 385.929 139.081 384.322 138.047C382.715 137.013 380.885 136.373 378.983 136.179C374.588 135.661 370.359 134.197 366.587 131.889C362.815 129.581 359.59 126.483 357.136 122.809C353.311 117.832 349.754 112.656 346.481 107.301C345.51 105.189 344.898 102.929 344.672 100.616C344.672 100.282 345.074 99.6804 345.476 99.4799C345.878 99.2794 346.615 99.4799 346.749 99.4799C350.167 104.427 356.6 105.162 360.152 109.373C361.827 111.111 363.771 112.582 365.58 114.186C368.065 118.041 371.96 120.775 376.436 121.807C378.009 123.407 379.664 124.924 381.395 126.352C381.796 126.427 382.209 126.411 382.603 126.307C382.997 126.203 383.363 126.013 383.674 125.751C383.851 125.398 383.943 125.009 383.943 124.614C383.943 124.22 383.851 123.831 383.674 123.478C378.345 121.589 373.984 117.671 371.544 112.582C365.834 106.015 361.585 98.3141 359.08 89.9878C359.08 89.3862 359.549 88.3835 360.018 87.7151C360.487 87.0466 361.09 87.7151 361.425 87.7151C363.112 88.6283 364.705 89.7028 366.183 90.9236C372.483 96.9397 378.715 103.023 384.88 109.173C386.494 110.945 387.931 112.87 389.169 114.921C391.649 118.531 390.509 123.411 393.592 126.954C396.11 130.561 397.444 134.858 397.412 139.254C397.537 140.702 397.951 142.11 398.63 143.396C399.31 144.681 400.24 145.819 401.366 146.74C406.626 151.764 410.325 158.192 412.021 165.257C412.421 166.632 412.421 168.093 412.021 169.468C411.871 170.435 411.432 171.334 410.763 172.05C410.094 172.765 409.225 173.263 408.268 173.479C405.895 173.879 403.471 173.879 401.098 173.479C398.35 173.011 395.737 170.805 393.123 170.939C390.248 171.025 387.409 170.283 384.947 168.8C384.515 168.611 384.046 168.519 383.575 168.531C383.103 168.543 382.639 168.658 382.217 168.869C381.795 169.079 381.425 169.38 381.132 169.749C380.84 170.118 380.632 170.547 380.524 171.006C380.291 172.915 380.291 174.845 380.524 176.754C380.529 177.107 380.617 177.454 380.78 177.767C380.943 178.081 381.176 178.352 381.462 178.559C381.748 178.767 382.079 178.905 382.428 178.963C382.777 179.021 383.135 178.997 383.473 178.894C384.427 178.738 385.4 178.738 386.354 178.894C386.631 179.281 386.827 179.721 386.93 180.185C387.033 180.65 387.041 181.131 386.953 181.599C386.866 182.067 386.684 182.513 386.42 182.909C386.156 183.306 385.815 183.645 385.416 183.907C383.572 185.424 381.458 186.58 379.184 187.316C373.22 188.653 374.292 191.193 376.973 195.405C379.898 198.641 382.173 202.408 383.674 206.501C383.674 207.704 383.004 209.643 381.865 209.777C380.909 209.911 379.939 209.911 378.983 209.777C378.525 209.62 378.027 209.628 377.574 209.799C377.121 209.97 376.743 210.293 376.503 210.713C376.084 211.285 375.858 211.975 375.858 212.684C375.858 213.393 376.084 214.084 376.503 214.656C377.173 215.86 378.581 216.662 379.452 217.731C379.817 218.045 380.116 218.427 380.331 218.857C380.546 219.287 380.673 219.755 380.704 220.235C380.735 220.714 380.67 221.195 380.513 221.649C380.355 222.103 380.109 222.521 379.787 222.879C379.143 223.608 378.28 224.112 377.328 224.316C376.375 224.521 375.381 224.415 374.493 224.015C372.694 223.336 371.085 222.236 369.802 220.806C362.698 211.648 355.662 202.424 348.893 192.998C346.786 190.359 345.38 187.232 344.806 183.907C344.081 178.701 342.104 173.746 339.042 169.468C337.254 167.207 335.788 164.71 334.686 162.048C334.171 160.489 333.297 159.072 332.133 157.911C330.969 156.75 329.548 155.877 327.985 155.364C326.751 154.705 325.305 154.561 323.964 154.963C320.787 157.133 317.132 158.509 313.309 158.973C311.864 159.147 310.532 159.835 309.556 160.912C307.407 162.872 304.822 164.294 302.014 165.061C299.206 165.828 296.255 165.918 293.406 165.324C290.5 165.077 287.699 164.126 285.247 162.553C282.794 160.981 280.763 158.834 279.332 156.299C279.447 155.633 279.805 155.032 280.337 154.612C280.869 154.193 281.537 153.984 282.214 154.027C282.668 153.957 283.101 153.789 283.483 153.535C283.865 153.281 284.187 152.947 284.426 152.556C284.727 151.713 284.727 150.792 284.426 149.949C284.36 149.605 284.22 149.278 284.015 148.994C283.81 148.709 283.545 148.472 283.238 148.3C282.932 148.128 282.591 148.025 282.241 147.998C281.89 147.971 281.538 148.021 281.209 148.144C280.381 148.459 279.708 149.082 279.332 149.882C278.461 152.088 280.941 154.294 279.332 156.567C278.193 155.698 276.987 154.963 275.982 154.027C274.486 152.491 272.657 151.318 270.635 150.6C268.614 149.881 266.453 149.636 264.321 149.882L264.522 139.989ZM358.342 190.926C358.051 191.273 357.803 191.655 357.605 192.062C356.466 195.204 356.6 197.076 358.745 198.346C362.001 200.294 364.901 202.781 367.322 205.699C367.859 206.434 368.864 206.635 369.668 207.17C370.472 207.704 371.343 207.17 372.147 206.501C372.441 206.143 372.602 205.694 372.602 205.231C372.602 204.768 372.441 204.319 372.147 203.961C369.101 199.151 365.247 194.9 360.755 191.394C360.688 190.926 359.817 191.06 358.611 190.926H358.342Z" fill="#05003E"/>
<path d="M265.321 140.216L264.851 150.723C261.429 153.434 258.141 156.348 254.651 158.856C250.973 161.166 248.072 164.545 246.329 168.549C245.535 170.628 244.282 172.495 242.666 174.011C241.049 175.526 239.112 176.648 237.001 177.293C236.091 177.46 235.159 177.46 234.249 177.293C233.31 177.293 232.504 174.65 232.773 173.497C233.319 171.1 234.671 168.969 236.598 167.465L254.919 153.027C256.798 151.468 258.543 149.841 260.355 148.282C262.167 146.723 260.355 145.368 259.349 144.758C258.532 144.242 257.601 143.941 256.64 143.882C255.678 143.823 254.718 144.007 253.845 144.419C249.282 147.198 244.92 150.248 240.423 152.959C237.956 154.438 235.348 155.664 232.639 156.62C231.479 157.037 230.223 157.099 229.029 156.797C227.835 156.496 226.756 155.844 225.927 154.925C224.988 153.908 223.78 152.756 224.585 151.129C225.391 149.503 226.129 148.011 227.068 147.944C235.678 146.668 243.878 143.397 251.027 138.386C253.03 136.948 255.468 136.262 257.919 136.448C260.371 136.633 262.68 137.679 264.449 139.403L265.321 140.216Z" fill="#05003E"/>
<path d="M351.799 177.669C349.652 177.173 347.784 175.857 346.592 174.002C347.081 174.097 347.585 174.076 348.065 173.942C348.545 173.808 348.987 173.565 349.356 173.23C350.169 173.474 350.889 173.957 351.423 174.617C351.956 175.277 352.278 176.083 352.346 176.929C352.204 177.203 352.019 177.453 351.799 177.669Z" fill="#05003E"/>
<path d="M356.364 205.298C356.364 204.687 356.364 204.108 356.589 203.497C356.814 202.886 356.814 203.24 356.943 203.111C357.159 203.433 357.312 203.793 357.393 204.173C357.393 204.848 357.071 205.331 356.268 205.234L356.364 205.298Z" fill="#05003E"/>
<path d="M352.346 176.929C353.455 177.052 354.472 177.607 355.175 178.474C355.26 178.643 355.304 178.83 355.304 179.02C355.304 179.21 355.26 179.397 355.175 179.567C355.026 179.693 354.85 179.785 354.661 179.835C354.472 179.885 354.274 179.892 354.082 179.857C353.251 179.169 352.457 178.439 351.703 177.669C351.957 177.461 352.175 177.21 352.346 176.929Z" fill="#05003E"/>
</svg>
