<svg width="676" height="899" viewBox="0 0 676 899" fill="none" xmlns="http://www.w3.org/2000/svg">
<g clip-path="url(#clip0_113_373)">
<path d="M164.26 699.189C161.479 697.034 157.728 695.937 153.486 697.99C153.277 698.098 152.947 698.307 152.812 698.226C147.836 694.698 141.897 697.472 136.652 695.755C135.608 695.412 131.985 697.203 131.063 697.681C130.14 698.159 128.888 697.97 127.844 697.748C127.366 697.647 127.023 696.779 126.679 696.22C126.336 695.661 126.08 695.089 125.4 693.756C125.622 695.977 125.764 697.371 125.999 699.741C121.064 698.495 116.693 697.297 112.276 696.321C110.62 695.951 108.842 696.126 107.125 696.004C103.758 695.762 100.391 695.722 97.0919 695.143C94.486 694.685 91.3347 695.143 89.8129 691.777C89.4897 691.063 87.7322 690.955 86.6144 690.673C85.4966 690.39 84.4529 690.255 83.0456 690L83.793 693.44C80.5878 692.49 77.3894 691.198 74.0562 690.639C68.7973 689.764 63.4441 689.387 58.138 688.788C57.6344 688.725 57.1367 688.621 56.6499 688.478C53.209 687.441 49.7749 686.391 46.4215 685.375L44.4688 688.64C44.2062 687.852 44.1658 686.815 43.6271 686.337C42.7786 685.583 41.607 685.213 39.5869 684.197C42.543 684.062 44.4015 683.786 46.2195 683.927C50.9331 684.291 55.6466 684.843 60.3601 685.274C61.9088 685.428 63.6798 685.065 64.9861 685.698C71.9554 689.064 79.194 688.929 87.3147 687.717C85.8333 685.61 84.5203 683.82 83.2745 681.968C77.3894 673.102 71.8274 663.994 65.5584 655.411C60.8853 649.009 58.6632 641.947 57.0202 634.407C56.5814 632.763 55.7963 631.232 54.7173 629.917C51.0408 625.137 46.9064 620.68 43.6002 615.665C42.0582 613.329 41.5801 610.037 41.3781 607.116C41.0357 601.961 40.9885 596.792 41.2367 591.632C41.304 589.936 42.2871 588.152 43.2567 586.65C43.984 585.492 45.3105 584.698 46.5158 583.614L69.8949 591.484L67.3092 584.213C75.0798 586.455 79.7057 593.086 86.6144 596.694C86.2845 593.84 86.0017 591.383 85.7188 588.926L87.0319 588.603C87.6312 590.757 88.6749 592.904 88.7153 595.072C88.7826 598.223 87.4359 601.333 89.6513 604.443C90.2506 605.284 88.8904 607.365 88.7759 608.906C88.6547 610.562 88.9308 612.272 89.0924 614.878C91.1125 611.895 92.5939 609.701 94.1965 607.324L95.5432 608.94L97.6441 602.168L98.2635 602.538C97.7047 600.572 97.1458 598.606 96.56 596.56C101.098 596.102 101.61 595.213 99.6238 591.72C101.361 590.292 104.714 593.066 105.61 589.532C106.519 590.164 107.63 590.622 108.303 591.457C109.336 592.97 110.279 594.544 111.125 596.169L110.222 596.573L118.761 607.843C122.491 604.026 120.303 600.222 119.252 595.092L126.06 597.785C125.932 595.092 127.838 595.732 130.134 595.853C137.823 596.243 145.533 596.109 153.23 596.398C160.462 596.674 166.791 599.495 172.3 604.106C173.628 605.171 174.749 606.472 175.606 607.944C178.037 612.393 180.69 616.554 185.585 618.661C186.259 618.892 186.95 619.069 187.652 619.193L189.41 613.807C194.419 617.907 195.241 623.191 196.702 627.985C198.204 632.892 198.985 638.022 200.439 643.024C202.574 636.81 199.443 630.846 199.14 623.683C207.22 634.185 215.509 643.307 221.785 653.66C228.155 664.169 234.579 674.529 242.908 683.995C242.39 682.534 241.972 681.376 241.38 679.713C250.982 677.842 259.998 679.04 268.987 682.271C263.062 680.757 258.416 682.413 253.958 686.526C252.497 687.872 248.894 686.889 246.046 686.977C246.046 687.105 245.857 687.845 245.703 688.579C245.48 688.303 245.258 688.034 245.029 687.758C243.871 688.505 242.046 689.003 241.662 690.026C239.757 695.318 235.946 697.963 230.431 697.687C228.781 697.607 227.064 698.361 224.997 698.361L229.037 695.668L208.984 700.037C208.984 700.495 208.984 700.952 208.984 701.383L211.833 702.137C211.752 704.285 210.526 704.689 208.21 704.278C202.19 703.208 196.089 702.386 190.029 701.585C189.086 701.457 188.07 701.881 186.077 702.258L190.258 703.854C187.565 704.527 186.77 704.184 184.871 702.063C184.381 701.663 183.793 701.401 183.168 701.303C178.528 700.077 173.916 698.717 169.216 697.782C167.889 697.465 166.34 698.529 164.26 699.189ZM133.817 693.238C135.036 692.295 135.534 691.938 135.999 691.534C138.18 689.643 141.278 687.064 143.406 688.801C146.51 691.339 147.978 689.474 150.139 688.256C151.385 687.583 153.041 687.435 154.065 686.539C155.088 685.644 156.476 683.927 156.294 682.796C155.903 680.272 151.271 677.875 148.624 678.353C146.348 678.764 144.025 679.908 142.133 677.417C141.958 677.182 141.015 677.209 140.679 677.417C137.911 679.397 135.056 678.966 132.073 678.091C130.847 677.72 129.319 677.492 129.481 679.767C129.481 679.955 127.763 680.023 127.393 680.541C126.403 682.039 125.503 683.594 124.7 685.2C125.757 685.482 126.821 685.731 127.864 686.055C128.908 686.378 129.885 686.728 131.427 687.293L128.322 688.64C128.983 689.099 129.682 689.502 130.41 689.845C131.871 690.403 134.928 688.552 133.817 693.238V693.238ZM79.0997 599.616C78.9987 595.961 76.1235 595.213 73.6725 594.231C72.9991 593.968 71.511 594.311 71.3022 594.776C71.1157 595.228 71.0333 595.716 71.0613 596.205C71.0893 596.693 71.2268 597.169 71.4638 597.597C73.356 599.973 75.5511 602.033 79.0997 599.616ZM191.753 680.79L190.346 681.692C191.288 683.712 191.995 685.967 193.335 687.711C193.665 688.148 196.029 687.037 198.668 686.29L191.753 680.79ZM206.93 700.057L207.031 698.347L199.382 698.172L199.321 699.613L206.93 700.057Z" fill="#05003E"/>
<path d="M255.292 695.884C252.874 696.927 252.342 700.233 254.504 702.69C247.097 703.491 239.521 702.515 232.599 706.116L230.842 703.619C233.906 702.535 237.185 701.848 239.932 700.253C241.649 699.243 242.525 696.833 243.851 695.103C244.39 694.43 245.245 693.198 245.723 693.299C248.975 693.999 252.14 694.989 255.292 695.884Z" fill="#05003E"/>
<path d="M288.824 701.155C287.928 701.593 287.04 702.064 286.13 702.455C284.676 703.081 283.208 704.117 281.727 704.144C279.33 704.191 277.343 704.326 276.616 707.046H276.717L274.603 704.959L274.528 705.093L279.734 700.435L276.286 699.546C275.842 700.765 275.451 701.822 275.06 702.912L272.576 700.132L266.953 700.926L266.717 700.145L272.407 698.341L272.286 697.742L263.647 699.627C263.647 697.978 263.647 696.766 263.613 696.16L277.882 697.163L277.754 697.076C280.232 697.789 282.737 698.422 285.161 699.257C286.431 699.79 287.656 700.425 288.824 701.155Z" fill="#05003E"/>
<path d="M76.4268 707.126C87.2005 702.131 98.4995 704.299 110.054 705.901C108.708 706.318 107.112 707.402 106.068 707.012C103.435 706.029 101.462 706.493 99.0988 707.84C97.8531 708.513 95.8195 707.9 94.1429 707.84C89.692 707.719 85.2478 707.604 80.8036 707.436C79.3693 707.382 77.9485 707.167 76.5076 707.045L76.4268 707.126Z" fill="#05003E"/>
<path d="M72.7694 577.402C75.5908 578.54 78.3111 579.381 79.402 575.309C84.1155 576.312 83.5297 580.99 86.3376 584.343L72.4395 578.58L72.7694 577.402Z" fill="#05003E"/>
<path d="M101.038 587.62C97.9807 587.452 94.9169 587.311 91.8599 587.095C89.0789 586.893 88.5874 585.116 88.7355 581.811L101.321 586.967L101.038 587.62Z" fill="#05003E"/>
<path d="M202.055 715.904C201.759 715.581 201.516 715.13 201.153 714.955C199.92 714.376 198.641 713.891 196.81 713.137C198.156 712.256 198.904 711.751 200.432 710.748L195.719 708.519C200.284 707.59 200.782 707.846 201.139 711.926H208.459L208.587 712.929L201.92 715.85L202.055 715.904Z" fill="#05003E"/>
<path d="M122.956 704.426L126.323 707.199C122.848 712.161 118.566 705.853 115.017 708.499L114.653 706.822L122.956 704.426Z" fill="#05003E"/>
<path d="M46.6377 722.14C49.5803 718 52.6979 718.02 58.0848 721.709C56.6775 723.951 55.1086 724.247 52.873 722.678C52.1121 722.14 50.7587 722.443 49.6746 722.362L46.6377 722.14Z" fill="#05003E"/>
<path d="M224.728 701.525C224.377 702.272 224.007 703.06 223.644 703.847C220.526 701.188 216.109 709.085 213.489 702.38C216.91 699.68 220.822 700.461 224.728 701.525Z" fill="#05003E"/>
<path d="M72.642 700.758C70.2449 696.78 67.9285 692.734 62.0029 692.943L62.8244 691.562C66.5952 692.996 70.4065 694.343 74.083 695.985C74.4938 696.167 74.3254 698.106 74.083 699.136C73.9281 699.742 73.073 700.166 72.5477 700.684L72.642 700.758Z" fill="#05003E"/>
<path d="M255.237 692.707L267.358 690.055L267.694 691.522L255.574 694.155C255.5 693.677 255.365 693.192 255.237 692.707Z" fill="#05003E"/>
<path d="M151.789 702.381C154.631 699.796 157.364 698.961 160.543 700.072C161.135 700.281 161.539 701.021 162.031 701.513C161.358 702.031 160.738 703.001 160.098 702.994C157.519 702.974 154.961 702.617 151.789 702.381Z" fill="#05003E"/>
<path d="M277.875 697.143C276.98 693.979 279.7 695.305 280.764 695.056C282.73 694.598 284.804 694.652 287.06 694.477C287.06 694.43 287.114 695.15 287.174 695.985L292.063 695.487C288.198 698.577 284.717 697.176 281.424 697.163C280.198 697.163 278.973 697.096 277.741 697.055L277.875 697.143Z" fill="#05003E"/>
<path d="M264.213 688.478L255.897 687.549C258.584 683.853 261.608 684.136 264.213 688.478Z" fill="#05003E"/>
<path d="M80.0293 716.524L86.4801 714.578C86.6215 715.029 86.7697 715.473 86.9111 715.925C85.4297 718.415 83.322 719.19 80.4939 718.018L80.0293 716.524Z" fill="#05003E"/>
<path d="M280.488 692.519C282.98 690.499 285.074 686.689 289.363 690.58L280.488 692.519Z" fill="#05003E"/>
<path d="M321.334 716.484C324.476 714.276 327.594 712.061 330.687 709.839L328.741 709.166C326.182 711.5 323.713 713.939 321.334 716.484Z" fill="#05003E"/>
<path d="M40.94 699.835C53.5588 696.368 66.2516 692.895 79.1801 690.916C82.0352 690.478 85.9137 696.086 89.4018 698.853C89.91 699.213 90.5159 699.41 91.139 699.418C103.313 699.862 115.501 700.711 127.655 700.569C143.897 700.387 160.65 694.349 172.858 713.32C177.269 720.2 178.009 722.037 170.979 724.952C157.788 730.419 144.045 734.963 131.716 741.944C124.874 745.828 118.922 748.985 110.943 747.828C109.259 747.585 107.441 748.46 106.997 748.548C105.434 751.914 104.977 755.28 103.138 756.438C97.8995 759.757 92.3982 762.685 86.8901 765.586C126.962 774.23 174.77 774.675 236.571 761.278C247.635 755.603 258.24 750.042 269.007 744.852C273.31 742.779 278.481 739.783 282.67 740.611C288.265 741.722 293.841 742.974 299.403 744.3C319.603 737.864 341.151 730.131 364.045 721.102C357.882 719.042 351.597 716.932 345.191 714.774C336.774 716.181 328.357 717.675 319.954 719.122L319.711 718.234C315.536 722.854 311.648 727.726 308.069 732.822C300.783 722.993 294.911 709.711 290.487 697.351C291.019 697.055 291.545 696.752 292.07 696.449C277.209 691.212 262.28 685.853 247.628 680.454C227.622 676.536 207.523 670.43 186.884 676.415C184.447 677.122 181.315 676.415 178.71 675.641C159.539 669.818 140.638 670.195 121.474 676.314C121.178 678.798 120.861 681.397 120.37 685.456C100.27 684.938 80.4595 684.614 60.656 683.759C56.3061 683.571 50.8788 682.709 47.8621 680.003C40.7717 673.561 33.9034 675.964 27.493 678.919C21.8839 681.484 10.3358 675.365 11.3862 688.775C11.4266 689.307 9.5008 690.121 8.38302 690.505C5.5751 691.441 2.78741 692.524 -0.0205078 693.514V702.993L34.3209 707.584C37.6001 703.632 38.8728 700.401 40.94 699.835ZM274.596 722.482C274.805 723.37 275.02 724.259 275.229 725.174C271.324 726.319 267.472 727.867 263.472 728.258C262.577 728.338 261.196 724.131 259.58 721.021L274.596 722.482ZM195.193 697.069C199.604 700.3 203.025 704.851 207.125 708.567C209.415 710.633 212.162 713.05 214.963 713.535C226.511 715.554 238.161 716.854 249.83 718.429L238.457 729.348L202.095 726.265L197.712 706.46C196.459 706.325 195.018 706.608 194.257 706.015C191.941 704.198 189.887 702.037 187.733 700.017C190.291 698.933 194.015 696.22 195.173 697.069H195.193Z" fill="#05003E"/>
<path d="M1.75746 720.638C1.1447 720.119 0.565623 719.574 0 719.002V730.527C1.81807 731.618 3.6137 732.672 5.38688 733.691C7.68304 728.063 6.61912 724.778 1.75746 720.638Z" fill="#05003E"/>
<path d="M641.356 77.4784C641.672 82.6418 641.922 89.4613 638.945 92.8205C632.131 100.522 632.831 109.556 630.865 118.24C629.168 125.78 626.67 133.145 624.32 140.523C622.873 145.284 621.815 150.153 621.155 155.084C620.293 161.298 618.832 168.656 629.72 170.568C614.193 169.679 615.869 181.521 613.775 189.417C612.913 192.662 616.421 197.025 617.943 200.862L621.074 201.333C618.973 203.514 617.277 206.496 614.691 207.715C607.749 210.987 600.032 222.142 601.271 229.715C601.608 231.795 605.399 233.189 607.149 235.269C608.9 237.349 610.105 239.907 611.546 242.257C608.853 243.731 605.486 247.043 603.675 246.356C595.076 243.112 593.797 247.346 593.938 253.99C594.017 254.897 593.928 255.809 593.675 256.683C589.931 266.7 593.002 272.133 604.449 272.349C605.688 272.349 606.907 273.789 611.183 276.489C603.338 279.451 597.716 281.295 592.409 283.719C590.329 284.668 587.655 286.735 587.352 288.626C586.147 296.18 588.08 302.831 594.497 308.149C601.392 313.885 600.975 317.042 593.655 322.34C582.814 330.196 581.703 338.127 590.834 346.818C595.11 350.897 594.126 354.223 590.894 357.77C589.703 359.117 587.918 359.898 586.369 360.887C574.007 368.797 573.03 372.177 579.75 389.411L564.869 389.828C564.909 391.053 564.95 392.279 564.997 393.504L574.532 396.87C573.293 401.69 569.65 407.843 571.098 412.508C572.444 416.944 578.653 421.071 583.662 423.071C589.157 425.265 595.736 424.875 602.914 425.763C599.062 432.334 594.369 433.956 587.662 434.649C559.051 437.612 540.096 422.963 523.693 402.827C519.444 397.624 514.852 392.662 510.179 387.815C508.785 386.368 506.206 384.449 504.792 384.833C496.132 387.236 486.456 381.393 478.369 387.916C477.81 388.367 476.632 388.159 475.743 388.132C466.121 387.822 449.091 373.321 449.536 364.375C450.344 348.278 448.566 332.95 440.782 318.463C439.759 316.564 440.109 313.952 439.617 309.448C445.004 313.764 448.438 317.089 452.411 319.6C457.589 322.865 462.976 326.063 468.706 328.136C471.676 329.213 475.581 327.8 479.063 327.51C477.999 324.582 476.841 321.687 475.898 318.759C474.955 315.83 474.241 312.808 473.285 309.334C487.257 311.407 487.749 310.977 487.291 298.563C487.042 291.831 487.042 291.831 494.846 291.494C491.479 300.879 501.937 314.134 514.374 316.261C517.74 316.833 521.067 317.318 523.915 316.167C527.955 314.78 532.305 311.818 535.861 312.572C538.116 313.057 539.51 318.954 540.668 322.603C541.961 326.676 542.54 330.964 543.436 335.158L546.601 335.541C549.853 329.261 553.22 323.034 556.344 316.692C565.145 298.798 574.39 281.08 582.343 262.836C585.656 255.222 585.669 246.289 588.073 238.211C589.662 232.886 591.797 227.096 595.48 223.118C605.735 212.064 603.944 197.718 607.722 184.941C610.334 176.108 611.964 166.987 614.617 158.161C618.973 143.694 624.428 128.722 626.205 113.986C628.266 96.9539 625.848 79.3768 625.37 62.042L621.815 61.7256C619.425 69.0634 617.027 76.408 615.028 82.5274C610.631 88.3505 607.493 94.6449 602.409 98.5764C598.153 101.841 591.635 102.286 585.622 104.13L589.844 110.936C583.279 113.326 578.841 116.8 572.545 118.611C567.933 119.957 562.936 119.957 558.236 121.102C547.57 123.666 539.45 129.052 538.217 141.237C527.275 139.89 517.141 138.988 507.155 137.272C500.516 136.127 498.159 137.635 498.402 144.556C498.9 157.797 495.87 159.366 482.719 153.98C479.278 152.567 475.837 151.133 472.396 149.726C461.946 145.444 461.441 145.687 457.986 156.37C456.519 160.914 454.263 162.611 448.559 162.469C441.099 162.288 433.597 164.752 426.096 166.017C423.706 166.421 420.568 167.714 418.979 166.731C407.33 159.534 400.798 168.905 393.101 173.947C388.583 176.889 384.866 181.056 380.207 183.695C372.012 188.347 365.595 193.585 365.473 203.932C365.473 207.298 363.325 210.664 361.13 216.998C357.171 211.727 353.723 208.731 352.377 205.015C346.842 189.99 336.33 185.547 321.793 192.763C320.446 193.436 319.099 194.19 318.022 194.783C317.052 194.372 316.486 194.143 315.941 193.888L304.831 188.65C306.602 192.137 307.699 196.257 310.325 198.957C313.717 202.509 317.792 205.339 322.304 207.277C336.142 212.932 362.652 233.357 371.567 246.074L370.052 248.093C358.942 239.968 348.188 231.304 336.62 223.858C325.052 216.413 312.514 210.112 299.949 203.05C300.939 211.229 294.979 209.048 290.199 208.812C283.465 208.469 276.731 207.614 269.998 208.004C267.533 208.153 265.284 211.216 262.901 212.946C265.082 215.288 266.813 218.513 269.513 219.819C282.01 225.878 295.101 230.779 307.336 237.322C315.975 241.94 323.792 248.194 331.462 254.327C333.953 256.347 334.829 260.244 336.445 263.287C328.129 268.72 322.668 267.737 318.729 259.874C313.12 248.679 303.053 242.809 290.737 237.517C291.222 241.274 291.545 243.758 292.084 248.033C287.094 245.697 283.229 244.175 279.647 242.169C272.395 238.13 265.318 235.296 258.335 236.703C265.998 244.781 273.607 254.273 278.3 265.246C290.508 293.79 286.172 310.438 286.172 310.438C286.172 310.438 284.057 313.804 281.048 319.19C282.166 319.735 283.246 320.356 284.28 321.048C286.549 322.535 290.899 322.805 293.451 321.721C303.619 317.392 312.709 308.176 325.099 316.827C325.914 317.392 327.53 316.827 328.769 316.867C337.307 317.257 347.522 314.888 354.033 318.651C369.473 327.564 386.253 332.115 402.751 337.75C413.524 341.459 416.959 338.982 417.982 328.661C418.326 325.255 421.349 322.118 423.187 318.853C425.631 321.202 429.247 323.135 430.311 325.962C435.409 339.958 440.014 354.135 444.304 368.373C445.152 371.181 443.839 374.594 443.361 379.286C437.779 377.064 433.564 375.489 429.436 373.725C416.784 368.34 404.293 358.915 391.512 358.471C377.372 358.006 369.601 352.304 360.8 343.802C355.063 338.261 347.259 334.653 340.047 330.762C338.465 329.907 335.489 331.509 333.159 331.98C333.785 334.067 334.398 336.154 335.038 338.234C335.61 340.072 336.209 341.903 337.058 344.569C327.772 344.569 319.954 342.624 316.049 335.521C311.497 327.254 305.416 325.336 296.952 327.207C297.377 334.963 292.683 338.362 285.323 335.447C282.462 334.31 279.068 333.259 277.243 331.098C276.765 330.526 276.24 329.866 275.721 329.153C271.447 337.432 267.771 346.006 264.719 354.808C270.516 363.082 275.715 371.773 281.479 380.08C285.256 385.52 289.774 390.468 295.76 397.866L303.255 375.442C304.555 375.644 305.618 375.536 306.319 375.974C318.15 383.345 330.035 390.636 341.657 398.304C345.077 400.559 347.717 403.932 350.747 406.793C347.259 408.139 343.764 409.526 340.283 410.906C340 411.02 339.771 411.256 339.495 411.384C329.099 416.042 323.422 414.332 317.274 404.881C315.2 401.683 312.83 398.674 311.059 396.223L298.097 401.097C299.309 403.925 301.134 407.405 302.292 411.081C304.157 416.971 302.083 420.055 295.41 418.634C293.006 418.122 290.744 416.985 288.367 416.305C280.421 414.029 273.836 418.203 272.328 425.784L278.442 456.838C278.442 456.838 285.27 456.124 294.104 455.673C296.937 454.596 299.567 453.046 301.881 451.089C304.373 449.015 309.733 447.225 312.042 448.45C324.277 454.94 335.031 454.415 342.62 446.094C351.373 448.861 358.316 451.203 365.366 453.196C367.166 453.631 369.06 453.458 370.753 452.705C378.072 449.251 385.25 445.508 391.102 442.56C393.263 448.221 393.721 453.863 396.805 456.212C399.694 458.413 408.124 458.79 409.235 457.027C411.572 453.31 412.716 446.646 410.77 443.024C406.346 434.811 410.939 432.307 417.154 428.725L423.632 439.396C425.308 434.986 427.86 431.714 427.342 428.995C425.517 419.462 432.54 415.134 438.244 410.61C442.041 407.6 447.57 406.57 450.95 412.629C451.381 413.397 452.148 414.44 452.862 414.528C465.555 416.089 462.821 424.518 462.087 432.704C461.757 436.4 463.831 440.311 465.38 446.309L460.283 450.907C469.642 453.795 474.322 451.446 472.949 443.502C470.753 430.765 467.259 418.197 463.521 405.803C461.575 399.266 458.013 393.181 454.768 386.011C473.231 394.406 492.624 399.697 507.169 410.96C518.663 419.859 524.676 435.868 531.78 449.399C532.696 451.15 525.895 458.023 521.491 460.695C517.714 462.991 512.259 462.675 506.556 463.684C506.058 467.542 505.492 471.958 504.873 476.792C496.839 478.926 492.631 473.924 487.924 468.882C484.328 465.031 479.844 461.82 475.312 458.965C469.925 455.599 465.353 455.094 461.932 462.392C460.215 466.068 455.562 468.451 452.613 471.042C447.536 462.607 441.806 455.377 438.749 447.211C436.728 441.752 434.385 438.036 429.752 441.435C427.059 443.455 425.645 450.914 427.315 454.139C436.782 472.436 447.307 490.215 457.616 508.095C459.246 510.936 462.121 513.164 463.414 516.1C464.606 518.792 465.367 522.407 464.484 525.013C464.053 526.298 459.401 526.911 456.808 526.608C453.832 526.258 450.99 524.629 448.149 523.424C434.345 517.567 425.315 523.693 419.868 533.461C413.807 526.911 408.279 520.341 402.037 514.477C399.512 512.101 395.593 510.653 392.058 509.879C383.849 508.088 381.338 510.822 383.015 518.846C383.311 520.273 383.493 521.714 383.748 523.269C369.056 521.97 368.342 520.718 364.894 507.442C363.925 503.74 358.639 501.094 355.333 497.964C353.885 501.114 352.343 504.231 351.05 507.435C350.498 508.782 350.471 510.357 350.141 512.148L359.898 514.928C348.666 523.007 349.091 524.75 360.8 530.836C364.261 532.633 366.746 536.221 369.675 538.995L367.79 541.688L355.245 536.026C355.562 543.344 358.659 548.204 366.154 549.187C372.214 549.982 377.379 548.81 377.352 540.92C377.352 539.931 380.718 537.77 381.802 538.147C390.159 541.028 402.966 551.422 398.28 563.594C391.479 565.317 388.819 560.281 384.947 556.323C382.503 553.819 377.776 551.321 374.779 551.954C370.187 552.93 363.79 553.085 364.49 561.783C365.319 572.042 362.47 572.762 350.565 568.239C342.963 572.332 336.505 578.518 330.001 578.532C323.712 578.532 317.375 572.21 311.82 569.107C312.258 565.068 312.494 562.624 312.797 560.174C310.278 560.544 307.719 560.753 305.255 561.325C293.047 564.132 296.501 572.81 299.262 582.941C289.263 583.123 280.59 583.217 271.93 583.48C269.001 583.567 266.085 584.086 263.177 584.402C261.103 584.631 258.961 585.297 256.961 585.008C255.776 595.597 227.374 601.744 227.374 601.744L262.389 615.14C262.389 615.14 256.948 619.402 250.666 630.624C281.209 621.024 311.941 611.983 342.33 601.946C371.413 592.339 399.613 580.652 425.591 564.247C433.301 559.379 442.708 557.151 450.943 552.977C462.673 547.04 473.837 540.052 485.662 534.309C489.439 532.472 494.53 532.741 499.008 532.815C505.442 532.922 511.861 533.475 518.219 534.471C519.909 534.734 522.683 537.642 522.447 538.854C521.235 545.081 508.138 552.533 498.779 551.51L509.822 542.502C504.314 543.808 501.068 544.394 497.923 545.35C490.516 547.598 482.8 549.234 475.965 552.58C466.989 556.976 458.875 563.008 450.135 567.902C443.401 571.652 437.207 577.158 428.089 573.355C423.086 571.275 413.949 578.915 413.504 585.472C412.891 595.193 412.104 603.931 403.404 611.296C398.253 615.679 396.67 623.973 393.263 630.408C385.856 644.417 371.763 647.689 358.181 638.965C353.811 636.151 348.754 634.34 344.303 631.66C341.535 629.998 339.522 627.056 336.687 625.602C331.872 623.016 326.772 621.001 321.49 619.597C320.634 619.381 316.446 625.864 317.16 626.793C325.449 637.564 320.298 647.548 317.699 658.602C314.702 671.325 309.059 681.908 300.03 690.76C297.617 692.992 294.94 694.918 292.057 696.496C291.532 696.799 291.007 697.102 290.475 697.398C294.899 709.758 300.77 723.04 308.056 732.869C311.635 727.773 315.523 722.901 319.698 718.281C320.23 717.695 320.776 717.109 321.315 716.53C323.698 713.995 326.167 711.558 328.722 709.219C338.613 700.212 349.804 692.915 362.208 688.31C372.577 684.459 383.27 680.285 394.199 675.701C398.975 662.165 403.734 648.625 408.474 635.08C411.262 627.11 417.659 626.632 424.366 628.517C438.183 632.401 452.027 636.252 465.744 640.486C470.035 638.009 474.333 635.453 478.638 632.818C468.592 630.698 458.566 628.436 448.526 626.302C443.886 625.312 439.355 623.838 432.668 622.02C440.021 616.211 445.233 611.633 450.916 607.701C464.249 598.472 477.083 587.862 495.446 590.777C497.627 591.127 500.159 589.431 502.482 588.758C523.882 582.396 539.517 568.703 552.762 551.732C555.368 548.366 559.496 545.121 563.536 544.084C573.717 541.472 583.918 538.968 594.147 536.679C605.567 523.929 616.706 510.169 627.566 495.399C621.687 497.721 615.445 500.488 610.058 499.559C602.2 498.213 599.911 499.882 597.305 506.473C591.79 520.381 582.114 525.558 571.003 521.384C571.461 519.452 571.717 517.345 572.451 515.467C579.063 498.186 585.683 480.898 592.49 463.691C594.706 458.083 596.322 451.688 600.214 447.38C618.442 427.184 636.932 407.19 661.772 394.197C663.866 393.1 665.462 390.569 666.573 388.354C668.506 384.517 668.876 379.414 671.738 376.66C673.02 375.479 674.451 374.47 675.994 373.658V118.341C665.418 102.616 653.644 87.7302 640.777 73.8162C641.075 75.0179 641.269 76.2432 641.356 77.4784ZM563.246 270.457C571.286 275.169 571.394 279.33 566.505 282.911C565.091 283.948 562.337 283.248 560.196 283.342L563.246 270.457ZM376.2 435.087C373.668 434.111 370.227 433.808 368.793 431.997C366.463 429.015 365.426 425.056 363.595 420.849C372.887 415.255 375.776 421.764 378.119 427.641C378.921 429.587 376.927 432.576 376.2 435.087ZM476.888 498.913L464.909 491.4L467.494 487.462L479.157 495.634C478.396 496.725 477.642 497.822 476.888 498.913V498.913ZM431.577 609.317C431.22 608.496 430.863 607.668 430.5 606.84L450.216 597.873C450.728 598.936 451.235 600 451.738 601.064L431.577 609.317ZM542.816 434.185C546.715 437.995 550.85 441.59 554.385 445.724C555.449 446.962 554.863 449.547 555.058 451.52C552.802 451.378 549.254 452.072 548.5 450.961C545.22 446.121 542.749 440.755 539.982 435.579L542.816 434.185ZM556.459 516.187C553.684 520.482 549.947 524.164 547.032 528.392C544.392 532.236 540.076 536.726 540.513 540.51C541.591 549.712 537.982 555.569 531.996 562.052C526.279 568.205 522.057 574.991 510.636 570.366C513.249 565.909 515.72 561.756 518.131 557.575C523.578 548.15 530.689 539.177 533.941 529.038C536.938 519.701 543.052 515.177 550.621 511.051C552.014 510.283 555.186 509.987 555.583 510.633C556.526 512.101 557.253 514.915 556.432 516.187H556.459Z" fill="#05003E"/>
</g>
<defs>
<clipPath id="clip0_113_373">
<rect width="676" height="899" fill="white"/>
</clipPath>
</defs>
</svg>
