<svg width="879" height="748" viewBox="0 0 879 748" fill="none" xmlns="http://www.w3.org/2000/svg">
<path d="M841.688 238.38C841.688 240.601 893.5 228.499 874.5 323.228C874.5 419.648 841.688 438.022 841.688 534.614C841.688 538.746 841.688 542.827 842 546.959C841.532 549.542 841.273 552.125 840.597 554.656C838.159 563.323 837.107 572.317 837.48 581.309C837.48 585.803 837.844 590.297 837.999 594.79C838.381 603.404 837.039 612.007 834.051 620.101C828.855 633.014 824.595 645.928 819.451 658.996C809.06 684.823 798.981 710.65 787.758 735.857C786.667 738.233 785.68 740.66 784.589 743.036C782.719 747.014 780.952 747.788 776.484 746.755C775.746 746.613 775.048 746.313 774.438 745.876C773.828 745.439 773.321 744.875 772.951 744.224C771.496 741.59 770.093 739.059 768.743 736.27C764.554 728.302 759.833 720.623 754.611 713.284C752.853 710.874 750.963 708.563 748.948 706.362C747.467 704.636 745.55 703.334 743.395 702.59C741.24 701.845 738.924 701.685 736.686 702.127C732.578 702.674 728.539 703.644 724.632 705.019C713.565 708.859 701.609 709.398 690.238 706.569C673.568 703.26 657.962 695.954 644.777 685.288C640.335 681.811 636.431 677.704 633.191 673.098C631.187 670.371 629.691 667.309 628.774 664.058C628.203 661.889 627.528 659.771 626.956 657.601C624.14 656.549 621.099 656.228 618.123 656.671C616.636 656.752 615.159 656.959 613.707 657.291C613.015 657.581 612.408 658.041 611.945 658.629C611.481 659.216 611.176 659.911 611.058 660.649C611.294 662.872 611.659 665.079 612.149 667.261C613.084 670.876 614.487 674.337 615.318 678.004C615.802 680.558 616.029 683.154 615.993 685.752C615.886 686.876 615.411 687.934 614.642 688.765C613.873 689.595 612.851 690.152 611.733 690.35C610.238 690.581 608.726 690.685 607.213 690.66C602.017 690.298 596.822 689.781 591.626 689.317L586.067 688.748C585.08 688.748 584.612 689.265 584.976 690.246C585.435 691.642 586.026 692.991 586.742 694.275C591.938 701.765 596.77 709.203 601.758 716.642C602.781 718.18 603.668 719.805 604.407 721.497C604.427 721.848 604.356 722.198 604.202 722.515C604.047 722.831 603.814 723.103 603.524 723.305C594.25 725.051 584.686 724.501 575.676 721.703C554.267 714.307 533.617 704.897 514.004 693.604C509.536 690.918 504.808 688.438 500.184 686.114C500.184 686.114 499.561 686.114 499.353 686.476C499.145 686.837 498.678 687.147 498.782 687.354C499.867 693.266 502.562 698.768 506.575 703.263C511.355 708.428 515.719 714.214 520.187 719.741C521.125 720.906 521.959 722.151 522.681 723.46C523.088 724.092 523.305 724.827 523.305 725.578C523.305 726.328 523.088 727.063 522.681 727.695C521.107 730.512 518.604 732.703 515.594 733.898C512.584 735.094 509.252 735.219 506.159 734.255C498.346 732.538 491.52 727.847 487.144 721.187C482.182 713.2 474.95 706.854 466.361 702.953C464.991 702.337 463.656 701.647 462.361 700.887C461.874 700.587 461.29 700.484 460.73 700.599C460.169 700.714 459.674 701.039 459.347 701.507C456.588 704.544 454.389 708.041 452.853 711.838C451.856 714.278 451.62 716.959 452.177 719.534C452.893 723.238 452.551 727.067 451.19 730.588C450.779 731.633 450.164 732.587 449.379 733.394C448.594 734.201 447.655 734.845 446.618 735.288C443.523 736.722 440.068 737.208 436.695 736.683C432.583 736.143 428.507 735.367 424.485 734.359C390.558 724.596 356.267 716.022 322.912 704.348C311.586 700.371 300.207 696.393 289.193 691.589C277.422 686.534 264.761 683.849 251.941 683.686C240.303 683.377 228.665 683.067 216.975 682.963C213.224 682.915 209.526 682.088 206.116 680.535C202.724 679.032 199.255 677.704 195.725 676.558C184.884 673.175 173.262 673.175 162.421 676.558C158.421 677.746 154.524 679.141 150.679 680.535C146.835 681.93 142.262 683.79 138.054 685.443C132.986 687.509 127.526 688.454 122.053 688.213C116.581 687.973 111.226 686.552 106.361 684.048L101.166 681.517C100.673 681.253 100.301 680.811 100.127 680.282C99.9533 679.753 99.9902 679.178 100.23 678.676C101.997 675.008 103.711 671.238 105.686 667.622C107.192 664.992 107.655 661.897 106.985 658.944C105.822 652.316 104.084 645.801 101.789 639.471C98.0587 629.67 93.4326 620.229 87.9688 611.268C70.8827 582.497 48.3309 557.304 21.5696 537.093C14.9713 531.928 8.47687 527.021 1.98242 521.959C1.98242 521.959 1.98242 521.287 1.98242 520.978C1.98242 520.668 2.24218 520.203 2.45 520.151C6.54953 519.617 10.7095 519.756 14.7634 520.564C23.6384 522.006 32.3426 524.342 40.7412 527.537C46.4044 529.655 51.9117 532.083 57.5229 534.201C66.6671 537.61 75.8632 540.916 85.0593 544.222C85.7638 544.346 86.485 544.346 87.1895 544.222C88.1247 544.222 88.3845 542.879 87.865 541.381C87.865 541.071 87.8649 540.709 87.5012 540.348C87.1376 539.986 86.9298 538.953 86.7219 538.23C85.7867 534.821 82.2537 532.083 83.9163 527.899C87.5434 528.141 91.081 529.126 94.3074 530.792C105.283 534.711 115.991 539.335 126.364 544.635C140.539 551.669 153.345 561.148 164.188 572.631C166.712 575.32 169.477 577.776 172.449 579.966C176.393 583.199 181.106 585.372 186.136 586.276C191.167 587.18 196.347 586.786 201.18 585.131C203.739 584.511 206.167 583.445 208.35 581.98C208.614 581.725 208.799 581.398 208.881 581.041C208.964 580.684 208.942 580.311 208.818 579.966C204.721 572.788 198.857 566.763 191.776 562.455C163.01 545.391 132.774 530.906 101.425 519.169C78.7727 511.163 56.1202 503.002 33.5195 494.892C29.9865 493.601 26.5055 492.155 23.1284 491.018C14.5917 487.978 6.85036 483.07 0.475665 476.659C0.127505 476.239 -0.0403843 475.701 0.00824293 475.159C0.0568702 474.618 0.318191 474.117 0.735538 473.766L5.9311 469.582C8.01817 467.945 10.5983 467.054 13.2567 467.051C15.9064 467.051 18.4523 467.051 21.154 467.051C36.7407 467.568 52.639 469.685 68.3296 471.287C73.2135 471.752 78.0973 472.061 82.9811 472.165C85.9426 472.165 87.6051 470.667 88.4364 467.516C88.5293 466.42 88.7029 465.332 88.956 464.262C89.1383 463.962 89.3879 463.708 89.6853 463.519C89.9828 463.331 90.3201 463.214 90.6706 463.177C91.7997 463.273 92.9054 463.552 93.9438 464.003C121.948 475.884 150.056 487.506 177.956 499.748C202.687 510.647 226.586 523.405 250.382 536.215C261.293 542.104 272.238 547.941 283.218 553.726C284.539 554.4 285.911 554.97 287.322 555.43C288.102 555.74 289.972 554.656 289.92 553.933C289.97 553.19 289.789 552.451 289.401 551.815C288.424 550.699 287.327 549.694 286.127 548.819C280.932 544.79 275.373 540.606 269.761 536.887C237.599 515.377 203.613 496.693 168.188 481.049C160.966 477.847 153.589 474.954 146.159 472.32C135.895 468.659 126.04 463.951 116.752 458.27C108.394 453.188 101.291 446.304 95.97 438.125C95.8258 437.789 95.7043 437.444 95.6063 437.092C96.2817 437.092 97.0092 436.42 97.6326 436.524C98.7338 436.731 99.8124 437.042 100.854 437.453C106.829 439.674 112.804 441.947 118.83 444.117C121.941 445.404 125.157 446.423 128.442 447.164C131.923 447.732 134.885 445.408 138.054 444.323C148.702 440.473 160.078 439.026 171.358 440.088C181.49 441.169 191.198 444.717 199.621 450.418C206.632 454.862 212.789 460.512 217.806 467.103C223.54 474.538 230.371 481.068 238.069 486.473C241.082 488.694 244.043 491.018 247.057 493.291C248.615 494.479 250.07 494.169 250.59 492.516C251.889 488.229 253.343 483.942 254.279 479.603C254.591 476.995 254.591 474.359 254.279 471.751C254.279 469.892 253.603 468.084 253.447 466.224C253.108 463.046 253.451 459.833 254.454 456.796C255.457 453.76 257.097 450.97 259.266 448.611C262.065 445.561 265.369 443.01 269.034 441.069C272.619 439.055 276.36 437.298 280.101 435.594C285.23 433.221 290.148 430.422 294.804 427.226C295.927 426.541 296.79 425.506 297.26 424.282C297.73 423.058 297.78 421.714 297.402 420.459C296.284 416.122 296.284 411.574 297.402 407.236C298.468 402.444 298.253 397.457 296.778 392.773C295.039 385.741 296.179 378.309 299.948 372.112C308.936 354.975 310.963 335.061 305.611 316.481C304.312 311.315 302.545 306.46 301.039 301.45C299.532 296.439 297.713 290.706 296.415 285.23C295.557 281.212 294.984 277.138 294.7 273.04C294.592 271.918 294.741 270.787 295.137 269.731C295.533 268.675 296.166 267.722 296.986 266.945C297.554 267.667 297.958 268.502 298.174 269.393C298.389 270.284 298.409 271.211 298.233 272.11C298.216 273.509 298.303 274.908 298.493 276.294C298.493 276.966 299.064 277.017 299.584 276.294C300.727 274.848 301.922 273.453 303.013 272.007C304.067 270.021 305.648 268.359 307.585 267.203C308.82 266.687 309.807 265.716 310.34 264.494C310.872 263.272 310.909 261.892 310.443 260.643C310.296 259.548 310.477 258.434 310.962 257.441C311.764 255.964 312.874 254.674 314.218 253.659C315.563 252.643 317.109 251.925 318.756 251.552C319.305 251.431 319.874 251.434 320.422 251.559C320.97 251.684 321.483 251.929 321.925 252.275C323.165 253.625 324.31 255.057 325.354 256.563C325.925 257.286 325.873 257.751 325.354 258.474C323.76 260.326 322.716 262.582 322.34 264.991C321.963 267.4 322.27 269.865 323.224 272.11C323.224 272.11 324.782 272.627 325.094 272.11C329.718 267.771 334.602 263.742 339.642 259.868C341.912 257.911 343.92 255.671 345.616 253.205C348.241 248.705 351.175 244.39 354.397 240.292C354.818 239.669 355.15 238.991 355.384 238.277C356.527 236.107 355.384 233.112 357.93 231.356L363.645 234.713C364.599 235.32 365.708 235.643 366.84 235.643C367.973 235.643 369.082 235.32 370.036 234.713C373.776 232.388 374.4 232.079 373.205 227.482C372.893 226.397 372.633 225.312 372.27 224.279C371.906 223.246 371.75 223.401 371.646 223.452C371.033 223.547 370.468 223.837 370.036 224.279C369.152 225.467 368.477 226.862 367.542 227.998C367.283 228.224 366.973 228.385 366.638 228.466C366.303 228.547 365.954 228.546 365.619 228.463C364.588 228.052 363.651 227.437 362.866 226.655C362.496 226.118 362.008 225.673 361.438 225.355C360.868 225.036 360.232 224.852 359.578 224.817C358.925 224.782 358.273 224.897 357.672 225.153C357.07 225.409 356.537 225.799 356.112 226.294C355.436 226.81 354.813 226.552 354.137 225.932C352.383 224.614 351.048 222.82 350.293 220.767C350.293 220.147 350.604 218.804 350.812 218.804C354.137 218.804 357.306 216.583 360.58 217.719C361.617 218.077 362.724 218.193 363.814 218.059C364.904 217.925 365.948 217.543 366.866 216.944C369.809 215.211 373.259 214.533 376.643 215.021C380.028 215.51 383.142 217.137 385.466 219.63C389.397 223.123 392.517 227.423 394.611 232.234C394.787 233.558 395.28 234.822 396.049 235.918C396.817 237.014 397.838 237.912 399.027 238.535L400.586 239.207L399.858 237.657L399.027 232.079C397.776 230.214 397.025 228.063 396.845 225.829C396.704 225.393 396.682 224.929 396.781 224.482C396.879 224.035 397.096 223.623 397.408 223.287C397.719 222.951 398.115 222.703 398.555 222.568C398.995 222.434 399.462 222.418 399.91 222.523C403.62 223.125 407.161 224.498 410.301 226.552C412.384 227.836 414.133 229.59 415.406 231.672C416.678 233.755 417.439 236.106 417.627 238.535C417.931 239.995 417.768 241.512 417.159 242.874C416.278 244.314 415.813 245.967 415.813 247.652C415.813 249.337 416.278 250.99 417.159 252.43C418.406 255.633 420.432 256.149 422.771 253.567C423.412 252.658 424.298 251.947 425.328 251.518C426.357 251.088 427.488 250.957 428.59 251.139C429.351 251.19 430.114 251.19 430.876 251.139C432.902 251.139 433.266 251.139 433.525 248.763C433.499 247.643 433.751 246.534 434.259 245.534C434.766 244.534 435.513 243.674 436.435 243.029C438.929 241.531 441.319 239.414 444.696 240.498C445.686 240.951 446.786 241.112 447.865 240.963C450.411 240.343 452.125 239.258 451.762 236.469C451.152 232.764 450.015 229.164 448.385 225.777C446.826 227.017 446.047 228.824 443.916 229.083C440.955 229.444 438.046 230.116 435.032 230.478C432.985 230.825 430.882 230.61 428.949 229.854C427.017 229.098 425.329 227.831 424.069 226.19L415.86 215.498C415.67 215.186 415.557 214.832 415.533 214.468C415.509 214.103 415.573 213.738 415.721 213.403C415.869 213.069 416.096 212.775 416.382 212.546C416.669 212.317 417.007 212.16 417.367 212.089C419.186 211.727 421.056 211.521 422.875 211.107C424.693 210.694 426.875 207.905 429.992 208.163C432.233 207.993 434.437 207.506 436.539 206.717C439.124 206.257 441.564 205.195 443.657 203.618C448.527 200.058 454.348 198.009 460.386 197.729C463.022 197.629 465.646 197.318 468.232 196.799C474.002 194.955 480.252 195.286 485.793 197.729C486.676 198.142 487.403 196.954 487.247 195.56C487.092 194.165 485.897 192.925 486.52 191.272C487.144 189.619 487.871 189.154 488.65 189.206C489.429 189.258 489.845 189.723 489.949 190.652C490.209 192.46 489.949 194.423 491.456 195.818C491.596 195.941 491.762 196.032 491.941 196.086C492.121 196.139 492.31 196.154 492.495 196.128C494.002 195.766 493.014 197.367 493.378 196.128C494.469 191.789 495.56 187.45 496.599 183.111C498.828 171.382 501.742 159.792 505.328 148.4C505.526 148.072 505.634 147.698 505.64 147.315C505.61 146.952 505.464 146.608 505.224 146.334C503.25 144.061 501.431 141.685 499.301 139.619C498.358 138.688 497.239 137.954 496.008 137.457C494.777 136.961 493.459 136.712 492.131 136.726C491.387 136.674 490.641 136.674 489.897 136.726C487.26 136.807 484.633 136.354 482.177 135.395C479.721 134.436 477.487 132.991 475.609 131.147C472.419 128.509 469.773 125.282 467.816 121.643C466.941 120.434 466.339 119.051 466.052 117.589C465.765 116.126 465.8 114.62 466.153 113.172C466.413 112.397 465.322 111.157 464.907 110.124C464.689 108.663 464.891 107.171 465.488 105.819C466.086 104.466 467.054 103.309 468.284 102.48C473.197 104.25 478.281 105.513 483.455 106.25C485.689 106.25 487.923 106.25 490.157 106.25C490.516 106.183 490.857 106.044 491.16 105.843C491.463 105.641 491.722 105.38 491.921 105.076C492.121 104.772 492.256 104.431 492.318 104.073C492.381 103.716 492.371 103.349 492.287 102.996C491.768 101.601 491.196 100.207 490.573 98.8638C489.949 97.5208 488.754 94.7833 487.975 92.7172C487.975 92.2523 488.338 91.529 488.546 90.9608C488.754 90.3926 489.378 90.9609 489.585 91.3224L497.95 100.31C500.236 102.738 502.418 105.475 504.912 107.542C507.948 110.356 511.81 112.13 515.933 112.604C520.056 113.078 524.223 112.227 527.825 110.176C530.114 108.916 532.303 107.483 534.371 105.889C535.967 104.639 537.288 103.078 538.253 101.301C539.218 99.5246 539.807 97.5699 539.982 95.5581C540.398 90.7543 540.969 85.9505 541.541 81.1467C541.541 79.8037 541.541 78.3057 542.892 77.2726C544.546 80.5514 545.785 84.0214 546.581 87.6034C547.208 89.3652 547.937 91.0898 548.763 92.7687C549.126 93.5435 549.75 93.6469 550.633 93.492C553.928 92.746 556.993 91.2222 559.57 89.0497C561.908 87.2418 564.142 85.2273 566.376 83.2645C567.31 84.2969 568.299 85.2797 569.337 86.2088C570.435 87.0478 571.58 87.8238 572.766 88.5331L554.166 100.827C552.296 102.015 550.322 103.151 548.555 104.443C547.715 105.175 546.949 105.988 546.269 106.87C545.542 107.645 545.594 109.453 546.269 109.763C546.944 110.073 547.828 110.331 548.243 109.763C553.439 106.56 558.115 103.151 563.103 99.897C565.908 98.0891 568.818 96.3845 571.727 94.7316C572.136 94.5131 572.589 94.3881 573.052 94.3657C573.516 94.3434 573.979 94.4243 574.407 94.6025C574.835 94.7807 575.218 95.0517 575.527 95.3957C575.837 95.7398 576.065 96.1483 576.195 96.5912C577.159 98.619 577.432 100.903 576.975 103.099C576.392 106.983 574.904 110.677 572.631 113.887C570.358 117.098 567.362 119.736 563.882 121.592C558.135 124.257 553.308 128.552 550.01 133.937C549.178 135.435 547.412 134.867 546.113 133.937L543.879 130.063C545.334 128.926 546.84 127.79 548.295 126.55C548.579 126.313 548.808 126.016 548.964 125.682C549.121 125.347 549.202 124.982 549.202 124.613C549.202 124.244 549.121 123.88 548.964 123.545C548.808 123.21 548.579 122.914 548.295 122.676C546.788 120.972 545.23 119.37 543.619 117.769C543.094 117.246 542.4 116.923 541.659 116.857C540.918 116.79 540.177 116.985 539.567 117.408C536.754 119.266 534.35 121.674 532.501 124.484C532.229 125.087 531.836 125.628 531.346 126.075C530.857 126.521 530.281 126.864 529.653 127.082C529.026 127.299 528.36 127.387 527.698 127.34C527.035 127.293 526.388 127.112 525.798 126.809C524.942 126.389 524 126.171 523.045 126.171C522.09 126.171 521.148 126.389 520.291 126.809C517.278 128.565 515.096 128.616 512.81 125.362C512.238 124.536 510.887 124.226 509.9 123.658C509.38 123.479 508.819 123.463 508.289 123.611C507.76 123.759 507.289 124.063 506.939 124.484C505.796 127.273 504.756 130.011 503.665 132.8C503.595 133.342 503.71 133.892 503.993 134.361C504.276 134.83 504.71 135.19 505.224 135.383C506.297 135.698 507.391 135.939 508.497 136.106C508.854 136.2 509.229 136.206 509.589 136.124C509.95 136.042 510.285 135.875 510.566 135.636C510.846 135.398 511.065 135.095 511.202 134.754C511.34 134.413 511.392 134.044 511.355 133.678C511.432 133.303 511.432 132.917 511.355 132.542C511.267 132.285 511.232 132.012 511.253 131.741C511.273 131.469 511.349 131.205 511.475 130.964C511.602 130.723 511.776 130.509 511.987 130.336C512.199 130.164 512.443 130.036 512.706 129.959C513.057 129.88 513.421 129.881 513.772 129.961C514.123 130.042 514.451 130.2 514.732 130.424C516.187 131.612 517.33 133.11 518.784 134.35C519.958 135.262 521.23 136.042 522.577 136.674C524.396 137.656 527.409 136.313 528.344 139.051C528.754 141.263 528.425 143.549 527.409 145.559C527.288 145.798 527.12 146.011 526.916 146.185C526.711 146.359 526.474 146.49 526.218 146.572C525.961 146.654 525.691 146.684 525.423 146.661C525.155 146.638 524.894 146.562 524.655 146.437L519.46 142.15C518.872 141.675 518.179 141.347 517.437 141.194C516.696 141.042 515.928 141.068 515.2 141.272C513.424 141.764 511.688 142.386 510.004 143.131C508.082 143.906 507.094 145.404 507.458 146.385C507.822 147.367 508.861 147.883 509.9 148.245C513.433 149.536 516.966 150.724 520.291 152.067C521.001 152.315 521.626 152.756 522.094 153.341C522.563 153.926 522.856 154.63 522.941 155.373C523.408 159.454 523.824 163.534 524.396 167.615C524.396 168.028 525.539 168.596 526.162 168.648C526.515 168.663 526.865 168.59 527.183 168.437C527.5 168.284 527.774 168.055 527.981 167.77C528.163 166.71 528.163 165.627 527.981 164.567C527.526 162.834 527.729 160.995 528.552 159.402C529.312 158.33 530.285 157.424 531.411 156.74C532.537 156.056 533.792 155.608 535.098 155.425C538.06 155.011 541.073 155.011 544.087 154.805H547.308C546.892 152.739 546.373 150.931 546.165 149.071C546.013 147.96 546.127 146.83 546.497 145.77C546.867 144.711 547.483 143.754 548.295 142.976C548.569 142.74 548.89 142.564 549.237 142.462C549.585 142.359 549.95 142.331 550.309 142.38C550.668 142.429 551.013 142.554 551.319 142.745C551.626 142.937 551.888 143.192 552.088 143.493L553.023 145.559C555.437 151.046 557.013 156.861 557.699 162.811C557.699 165.032 558.323 167.253 558.478 169.475C558.842 173.158 560.09 176.7 562.115 179.805C564.349 183.266 566.48 186.779 568.87 190.136C571.686 194.145 573.158 198.935 573.078 203.824C573.408 212.055 572.851 220.298 571.415 228.411C568.364 242.385 561.413 255.22 551.361 265.447C548.763 268.133 546.165 270.612 543.203 273.247C540.331 275.678 538.116 278.785 536.761 282.286C535.635 285.57 533.622 288.483 530.942 290.706C528.675 292.666 526.557 294.789 524.603 297.059C521.049 300.993 519.055 306.079 518.992 311.367C518.914 315.488 519.07 319.609 519.46 323.712C520.609 336.376 522.57 348.953 525.331 361.368C527.565 370.82 529.591 380.376 531.462 389.881C531.695 391.165 532.317 392.348 533.246 393.272C534.175 394.195 535.365 394.814 536.657 395.046C541.989 396.857 547.517 398.035 553.127 398.558C555.385 398.575 557.642 398.437 559.881 398.145C560.976 397.883 561.972 397.316 562.755 396.511C563.537 395.706 564.072 394.696 564.298 393.599C564.672 392.15 564.795 390.648 564.661 389.157C564.142 385.438 563.258 381.823 562.583 378.155C561.908 374.488 561.388 371.544 561.076 368.238C561.134 366.914 561.629 365.645 562.483 364.628C563.337 363.611 564.504 362.901 565.804 362.607C569.874 361.858 574.048 361.858 578.118 362.607C587.054 364.002 595.939 365.552 604.875 366.843C621.241 369.167 637.607 371.285 653.973 373.661C660 374.539 660.935 375.366 661.247 368.031C661.455 363.725 662.799 359.551 665.142 355.924C667.486 352.298 670.747 349.348 674.599 347.369C682.544 343.046 691.298 340.392 700.317 339.57C708.162 338.64 715.904 337.968 723.905 337.71C734.294 337.443 744.572 335.525 754.351 332.028C760.69 329.652 767.08 327.483 773.419 325.21C773.666 325.097 773.885 324.933 774.064 324.729C774.242 324.525 774.375 324.286 774.453 324.027C774.532 323.768 774.555 323.496 774.519 323.228C774.484 322.96 774.392 322.703 774.25 322.473L766.353 314.466C765.365 313.485 764.794 311.78 765.314 311.47C765.892 311.064 766.52 310.734 767.184 310.489L779.445 308.578C783.914 307.855 788.382 307.183 792.798 306.305C799.136 305.151 804.9 301.913 809.164 297.111C812.177 293.753 814.723 290.034 817.529 286.522C824.097 278.752 828.09 269.154 828.959 259.042C829.479 252.327 831.141 245.767 832.284 239.104C832.804 236.469 833.791 235.126 835.454 235.178C838.207 235.075 841.169 234.713 841.688 238.38ZM438.253 403.259L447.242 404.034C450.643 404.25 454.055 403.865 457.321 402.897C458.974 402.506 460.493 401.682 461.717 400.51C462.941 399.339 463.828 397.862 464.283 396.234C465.211 392.989 465.957 389.695 466.517 386.368C466.712 384.53 467.272 382.747 468.164 381.125C469.056 379.502 470.262 378.072 471.713 376.915C472.298 376.432 472.721 375.782 472.926 375.053C473.13 374.324 473.106 373.55 472.856 372.835C469.375 358.682 464.751 344.838 460.231 330.944C458.984 327.07 457.061 325.469 452.697 326.347C451.19 326.657 449.787 327.121 448.333 327.535L414.613 336.574C410.671 337.895 406.499 338.405 402.352 338.072C400.126 337.738 397.85 338.048 395.796 338.963C393.742 339.879 391.996 341.363 390.766 343.237C389.883 344.425 388.948 345.665 388.116 346.853C382.904 354.646 376.935 361.913 370.295 368.548C368.456 370.427 366.835 372.506 365.464 374.746C362.663 379.247 361.321 384.493 361.619 389.777C361.879 394.219 362.71 398.662 363.385 403.104C363.597 403.783 364.062 404.355 364.684 404.705C369.504 407.703 375.181 409.046 380.842 408.527C396.117 406.72 411.444 405.17 426.771 403.362C431.083 403.414 435.24 403.414 438.253 403.259ZM310.962 413.125C310.962 414.054 311.378 415.346 311.638 415.346C312.688 415.569 313.784 415.442 314.755 414.984C318.028 413.125 321.145 411.058 324.367 409.096C330.004 405.318 336.473 402.945 343.227 402.174C343.954 402.057 344.668 401.867 345.357 401.606C345.847 401.356 346.24 400.952 346.475 400.457C346.71 399.962 346.774 399.403 346.656 398.868C345.98 397.112 345.305 395.356 344.525 393.703C342.187 388.538 339.849 383.372 337.356 378.207C336.289 376.218 335.792 373.976 335.921 371.726C336.049 369.476 336.797 367.304 338.083 365.448C339.694 362.917 341.564 360.283 343.279 358.062C346.188 353.671 349.046 349.332 351.851 344.89C353.796 341.689 354.737 337.985 354.553 334.249C354.523 334.079 354.45 333.918 354.341 333.783C354.232 333.647 354.09 333.542 353.929 333.475C353.618 333.475 353.046 333.113 352.838 333.475C352.232 333.88 351.719 334.408 351.332 335.024C340.94 351.967 330.549 368.857 320.418 385.903C318.038 390.145 316.039 394.587 314.443 399.178C312.578 403.625 311.405 408.327 310.962 413.125ZM514.524 387.866C514.831 387.927 515.148 387.922 515.453 387.851C515.757 387.779 516.043 387.644 516.291 387.453C516.501 387.176 516.644 386.855 516.707 386.514C516.77 386.173 516.752 385.823 516.654 385.49C514.94 380.996 513.173 376.502 511.459 372.008C506.263 359.302 501.068 346.595 495.872 333.888C494.313 330.117 492.599 326.398 490.676 322.679C490.676 322.266 489.326 322.008 488.702 322.111C488.393 322.23 488.116 322.418 487.891 322.659C487.666 322.901 487.499 323.19 487.403 323.505C486.873 329.078 487.153 334.697 488.235 340.19C489.43 347.886 490.521 355.686 491.612 363.331C492.443 368.857 493.17 374.333 493.95 379.86C498.626 383.889 504.86 384.147 510.264 386.575C511.636 387.148 513.064 387.58 514.524 387.866ZM480.857 114.36C485.698 117.823 491.386 119.929 497.327 120.455C497.794 120.455 498.522 119.732 498.885 119.215C499.019 119.072 499.112 118.895 499.153 118.703C499.194 118.511 499.181 118.312 499.117 118.126C499.053 117.941 498.94 117.776 498.789 117.649C498.639 117.523 498.457 117.439 498.262 117.408C496.224 116.583 494.122 115.926 491.975 115.445C488.338 115.083 484.65 114.721 480.857 114.36ZM549.906 160.435L549.178 158.731C548.919 158.731 548.399 159.195 548.451 159.35C548.631 159.935 548.857 160.505 549.126 161.055L549.906 160.435Z" fill="#05003E"/>
<path d="M572.507 88.6894C571.32 87.9801 570.175 87.204 569.078 86.3649C568.039 85.4358 567.051 84.453 566.116 83.4206C567.738 79.7103 569.988 76.3037 572.767 73.3482C573.065 73.1289 573.439 73.0359 573.806 73.0899C574.117 73.5547 574.585 74.1747 574.533 74.6396C574.118 76.3958 573.39 78.152 573.026 79.8049C573.026 80.3215 573.442 81.0962 573.754 81.6644C574.065 82.2326 574.429 81.6644 574.689 81.6644C580.271 78.8183 585.164 74.7999 589.029 69.8874C589.324 69.9084 589.62 69.8697 589.9 69.7734C590.179 69.6771 590.436 69.5252 590.655 69.3271C590.873 69.1291 591.049 68.8888 591.172 68.6211C591.294 68.3533 591.36 68.0636 591.367 67.7695C593.289 67.3563 593.913 65.7034 594.744 64.2571L597.082 59.7633C597.509 58.3933 597.839 56.9953 598.069 55.5794C598.069 55.2178 597.342 54.7012 596.874 54.3913C596.406 54.0814 596.199 54.7528 596.095 55.0111C595.712 56.0216 595.399 57.0572 595.159 58.1103C594.471 58.6204 593.901 59.272 593.489 60.0207C593.076 60.7695 592.831 61.5977 592.77 62.4492L590.016 66.375C589.497 66.6711 589.059 67.09 588.742 67.5946C588.425 68.0992 588.238 68.6739 588.197 69.2675C587.21 68.6994 585.08 69.2676 585.807 66.8915C586.168 65.0888 586.342 63.254 586.327 61.4161C586.639 56.9739 586.691 52.4284 587.366 48.0378C588.042 43.6473 588.146 39.9283 588.405 35.8476C588.911 29.5237 588.526 23.1606 587.262 16.9424C586.794 14.0026 586.534 11.0339 586.483 8.05795C586.499 7.88244 586.553 7.71265 586.643 7.56078C586.733 7.4089 586.856 7.27868 587.003 7.17977C587.17 7.08936 587.357 7.042 587.548 7.042C587.739 7.042 587.926 7.08936 588.094 7.17977C588.873 7.95458 589.548 8.88435 590.38 9.6075C595.575 14.5146 598.329 11.3639 599.628 6.1985C599.916 4.37102 600.02 2.51955 599.939 0.671522C599.939 0.671522 600.407 0.0516536 600.667 0C601.038 0.00251344 601.393 0.151031 601.654 0.41316C601.916 0.694486 602.064 1.06266 602.07 1.4463C602.485 5.88851 605.447 10.0208 604.564 14.5147C603.473 18.4531 602.083 22.3038 600.407 26.0335L598.796 30.2174C597.474 33.3303 597.095 36.7592 597.705 40.0833C598.121 42.2527 598.069 44.5255 598.433 46.6949C598.53 47.0513 598.714 47.3786 598.967 47.6486C599.221 47.9186 599.536 48.1231 599.887 48.2445C602.277 48.6061 602.589 50.4655 603.109 52.2218C603.85 55.1496 603.518 58.2443 602.173 60.9512C599.855 66.536 596.303 71.5317 591.782 75.5693C586.207 81.0641 579.676 85.5093 572.507 88.6894Z" fill="#05003E"/>
<path d="M467.765 103.1C466.535 103.93 465.566 105.087 464.969 106.439C464.372 107.792 464.17 109.284 464.387 110.745C462.62 110.379 460.883 109.878 459.192 109.247C452.282 106.303 445.424 103.255 438.41 100.26C434.223 98.5259 430.555 95.7511 427.759 92.2016C423.093 86.305 417.389 81.2995 410.925 77.4286C408.36 75.8685 405.988 74.0135 403.859 71.9017C401.199 69.5028 399.194 66.4726 398.031 63.0942C396.868 59.7159 396.585 56.0996 397.209 52.5832C397.209 52.5832 397.625 52.17 397.884 52.17C398.144 52.17 398.768 52.17 398.871 52.4799C400.482 55.4758 401.937 58.4716 403.548 61.4159C407.275 67.9678 412.644 73.4489 419.134 77.3253C419.459 77.4773 419.814 77.5561 420.173 77.5561C420.532 77.5561 420.887 77.4773 421.212 77.3253C422.772 76.3343 424.281 75.2654 425.733 74.1228C426.001 73.9016 426.219 73.6258 426.371 73.314C426.524 73.0021 426.607 72.6615 426.616 72.3149C426.2 69.7322 425.473 67.1496 424.953 64.6186C423.195 56.1758 423.283 47.4557 425.213 39.0499C425.213 38.5334 426.252 38.1718 426.876 37.7586C427.499 37.3454 427.291 38.1203 427.291 38.3269C427.655 44.3187 427.863 50.3104 428.278 56.2505C428.471 59.6093 428.958 62.945 429.733 66.2198C431.535 71.914 432.822 77.7569 433.578 83.6788C433.578 86.1065 436.176 88.2759 433.941 90.8585C433.883 90.9976 433.853 91.1468 433.853 91.2975C433.853 91.4483 433.883 91.5977 433.941 91.7367C434.438 92.2859 435.016 92.7562 435.656 93.1313L458.101 103.462C460.075 104.392 461.322 103.72 462.829 102.119C464.336 100.518 466.362 101.757 467.765 103.1Z" fill="#05003E"/>
<path d="M543.515 130.581C544.243 131.872 544.97 133.163 545.749 134.455C543.827 134.455 541.957 134.454 541.593 136.934C541.229 139.413 541.125 140.601 540.71 142.409C540.71 142.977 539.878 143.494 539.411 143.959C538.943 144.424 537.021 143.959 536.397 143.132C535.774 142.306 535.306 141.944 535.202 141.273C535.096 140.187 534.647 139.162 533.919 138.345C533.191 137.529 532.222 136.962 531.15 136.727C529.955 136.366 529.643 133.628 530.63 133.008C531.849 132.179 533.156 131.487 534.527 130.942C535.604 130.629 536.58 130.039 537.355 129.232C538.13 128.425 538.678 127.429 538.943 126.345C539.255 125.105 539.93 124.382 541.125 124.692C541.439 124.845 541.717 125.062 541.94 125.329C542.164 125.596 542.329 125.907 542.424 126.242C542.892 127.585 543.152 129.083 543.515 130.581Z" fill="#05003E"/>
<path d="M398.612 239.055C397.424 238.431 396.402 237.534 395.634 236.437C394.866 235.341 394.373 234.078 394.196 232.753C395.622 233.27 397.186 233.27 398.612 232.753C398.924 234.613 399.184 236.472 399.444 238.331L398.612 239.055Z" fill="#05003E"/>
<path d="M296.882 267.307L297.454 267.514L296.727 267.256L296.882 267.307Z" fill="#05003E"/>
<path d="M549.907 160.437L549.127 161.057C548.858 160.507 548.632 159.937 548.452 159.352C548.452 159.352 548.92 158.939 549.179 158.732L549.907 160.437Z" fill="#05003E"/>
<path d="M399.443 238.227L400.171 239.777L398.612 239.105L399.443 238.227Z" fill="#05003E"/>
</svg>
