<svg width="619" height="862" viewBox="0 0 619 862" fill="none" xmlns="http://www.w3.org/2000/svg">
<path d="M1154.38 632.164C1151.2 631.358 1147.98 631.856 1145.39 633.555C1139.42 637.3 1133.29 640.812 1127.36 644.557C1118.8 649.993 1110.33 655.523 1101.86 661.054C1096.3 664.318 1091.09 668.133 1086.27 672.453C1084.94 673.747 1083.35 674.713 1081.59 675.293C1079.83 675.873 1077.94 676.055 1076.03 675.828C1075.4 675.728 1074.78 675.47 1074.24 675.076C1073.69 674.682 1073.23 674.164 1072.89 673.566C1071.52 670.352 1071.19 666.855 1071.95 663.663C1072.5 661.11 1073.18 658.606 1073.99 656.161C1074.81 653.362 1075.15 650.381 1074.99 647.348C1075.03 644.324 1074.4 641.255 1073.15 638.381C1071.9 635.507 1070.07 632.907 1067.79 630.784C1065.82 628.86 1063.58 627.257 1061.49 625.516C1061.22 625.32 1060.99 625.063 1060.82 624.766C1060.65 624.47 1060.55 624.142 1060.51 623.811C1060.48 623.479 1060.53 623.154 1060.64 622.86C1060.75 622.567 1060.94 622.314 1061.17 622.123L1066.72 615.726L1075.99 605.328C1079.77 600.726 1081.7 594.649 1081.44 588.202C1081.44 587.522 1081.38 586.837 1081.25 586.156C1080.97 584.809 1080.27 583.553 1079.27 582.602C1078.26 581.652 1077.01 581.065 1075.73 580.943C1073.2 580.916 1070.76 581.447 1068.3 581.746C1068 581.787 1067.69 581.753 1067.38 581.647C1067.08 581.542 1066.8 581.367 1066.55 581.137C1066.31 580.907 1066.11 580.627 1065.98 580.318C1065.84 580.008 1065.77 579.678 1065.76 579.351C1065.57 576.668 1065.58 573.997 1065.79 571.363C1065.95 569.698 1066.5 568.146 1067.4 566.849C1068.3 565.553 1069.51 564.553 1070.94 563.94C1073.14 562.867 1075.44 561.99 1077.81 561.319C1081.46 560.436 1084.5 558.058 1086.3 554.675C1086.94 553.567 1087.49 552.458 1088.07 551.303C1088.66 550.148 1088.26 549.076 1087.52 548.697C1084.51 547.271 1081.57 545.708 1078.39 544.467C1075.22 543.226 1073.28 544.413 1072.39 547.933C1072.15 549.187 1071.78 550.397 1071.29 551.544C1071.1 551.733 1070.86 551.865 1070.59 551.926C1070.32 551.988 1070.04 551.979 1069.76 551.899C1067.63 550.205 1065.66 548.28 1063.54 546.585C1062.7 545.996 1061.71 545.722 1060.77 545.814C1059.83 545.906 1058.98 546.358 1058.39 547.088C1056.86 549.444 1055.52 551.946 1054.39 554.57C1052.85 558.078 1050.71 561.2 1048.06 563.791C1047.86 564.038 1047.61 564.226 1047.32 564.341C1046.48 564.585 1045.6 564.716 1044.7 564.731C1044.17 564.726 1043.47 562.768 1043.66 562.073C1044.08 560.498 1044.5 558.924 1044.97 557.443C1045.44 555.961 1045.94 554.341 1046.28 552.812C1046.33 552.512 1046.33 552.194 1046.26 551.882C1046.19 551.569 1046.07 551.267 1045.89 550.997C1045.67 550.763 1045.41 550.578 1045.12 550.454C1044.84 550.331 1044.54 550.272 1044.25 550.283C1041.55 550.457 1039.1 551.615 1037.29 553.565C1035.48 555.514 1034.43 558.137 1034.31 560.999C1034.17 562.99 1034.27 565.02 1034.62 567.04C1034.81 568.736 1035.5 570.383 1036.61 571.734C1037.71 573.085 1039.16 574.068 1040.74 574.535C1042.31 575.016 1043.88 575.497 1045.25 576.115C1046.14 576.59 1046.89 577.344 1047.39 578.263C1047.89 579.183 1048.1 580.216 1048 581.207C1046.27 588.248 1042.2 594.162 1036.49 597.944C1033.19 600.287 1029.01 601.075 1024.83 600.143C1024.05 599.942 1023.32 599.479 1022.76 598.827C1022.21 598.175 1021.85 597.37 1021.74 596.534C1021.42 594.487 1021.85 592.475 1022.96 590.927C1024.43 588.946 1026.04 587.059 1027.65 585.172C1029.28 583.331 1030.55 581.158 1031.41 578.756C1032.4 576.019 1032.35 572.873 1031.27 569.93C1028.49 562.238 1026.46 560.591 1019.16 560.514C1017.24 560.493 1015.36 560.474 1013.48 560.454C1012.92 560.386 1012.37 560.199 1011.86 559.904C1011.34 559.61 1010.88 559.214 1010.5 558.741C1010.11 558.268 1009.82 557.727 1009.63 557.152C1009.43 556.577 1009.35 555.979 1009.38 555.395C1009.45 552.724 1009.73 550.086 1010.21 547.508C1010.39 546.553 1010.35 545.538 1010.09 544.55C1009.83 543.561 1009.36 542.627 1008.71 541.826C1007.14 539.534 1005.43 537.147 1003.7 535.039C1001.97 532.931 1000.55 530.362 999.163 528.118C997.774 525.894 996.918 523.389 996.677 520.846C996.437 518.304 996.82 515.812 997.79 513.613C998.502 511.829 999.315 510.101 1000.22 508.437C1001.44 505.87 1002.96 503.5 1004.75 501.379C1006.58 499.541 1009.64 501.431 1012.04 500.899C1012.82 500.907 1013.81 499.757 1013.69 498.966C1013.68 498.641 1013.65 498.315 1013.59 497.99C1013.09 494.614 1011.93 491.31 1010.19 488.294C1009.39 486.732 1008.22 485.394 1006.8 484.434C1005.38 483.473 1003.77 482.931 1002.17 482.868C998.053 482.781 994.028 483.429 990.262 484.786C989.969 484.857 989.659 484.859 989.351 484.793C989.043 484.727 988.744 484.594 988.474 484.403C988.205 484.211 987.971 483.966 987.787 483.683C987.603 483.399 987.474 483.084 987.408 482.758C986.162 474.664 984.833 466.616 983.806 458.524C982.977 452.129 981.645 445.761 979.823 439.487C979.665 438.827 979.361 438.201 978.938 437.663C978.514 437.124 977.984 436.689 977.392 436.396C973.354 433.933 969.973 430.323 967.682 426.029C964.838 421.255 962.366 416.271 960.294 411.136C959.817 409.849 959.231 408.599 958.544 407.402C958.234 406.888 957.513 406.648 956.919 406.363C956.324 406.078 956.517 406.73 956.452 406.962C954.46 414.511 952.464 422.014 950.516 429.563C949.618 432.99 948.725 436.464 947.74 439.891C947.217 441.743 946.099 441.917 944.092 440.549C940.211 437.814 936.291 435.125 932.375 432.483C931.787 432.311 931.184 432.305 930.628 432.465C930.409 432.462 930.2 433.018 930.226 433.296C930.274 434.281 930.456 435.268 930.765 436.228C945.948 472.614 960.331 509.316 976.361 545.432C982.302 558.716 988.703 571.787 995.564 584.647C1003.58 599.669 1012.53 614.182 1022.37 628.075C1026.4 633.68 1029.89 639.665 1032.79 645.926C1037.22 655.34 1042.37 664.422 1048.18 673.072C1053.27 680.65 1057.92 688.316 1062.86 695.845C1066.23 700.743 1068.21 706.448 1068.56 712.206C1068.91 719.595 1069.48 726.985 1069.92 734.42C1070.08 736.804 1069.48 739.087 1068.22 740.905C1067.72 741.706 1066.94 742.255 1066.03 742.45C1065.12 742.645 1064.13 742.474 1063.26 741.967C1061.29 740.616 1059.45 739.038 1057.79 737.265C1054.29 733.407 1051.64 728.805 1050.06 723.854C1049.43 721.711 1049.36 719.202 1050.06 719.21C1051.46 719.224 1052.31 720.348 1053.27 721.287C1054.23 722.226 1055.27 723.073 1056.36 723.92C1056.51 723.993 1056.67 724.031 1056.82 724.033C1056.98 724.034 1057.14 723.999 1057.27 723.93C1057.38 723.845 1057.46 723.735 1057.52 723.607C1057.57 723.479 1057.6 723.337 1057.6 723.19C1057.49 721.864 1057.24 720.538 1056.87 719.235C1054.47 712.754 1051.98 706.319 1049.41 699.883C1046.16 692.227 1042.01 684.952 1037.07 678.249C1031.63 670.606 1026.25 662.933 1020.92 655.229C1019.35 652.952 1017.91 650.578 1016.63 648.124C1015.56 646.325 1014.82 644.354 1014.47 642.331C1014.11 640.308 1014.14 638.274 1014.55 636.352C1014.72 635.718 1014.85 635.068 1014.94 634.406C1015.1 633.098 1014.99 631.737 1014.63 630.413C1014.26 629.088 1013.64 627.83 1012.81 626.72C1011.13 624.057 1008.91 621.803 1006.32 620.155C1003.74 618.508 1000.88 617.519 997.997 617.275C995.441 617.016 992.898 616.896 990.382 616.591C983.632 616.099 977.011 613.024 971.757 607.942C967.245 603.726 962.026 600.502 956.461 598.492C952.466 596.939 948.537 595.145 944.693 593.119C939.011 590.068 934.407 584.954 931.818 578.818C929.838 574.329 929.193 569.444 929.974 564.866C930.501 561.638 931.393 558.53 932.633 555.605C934.19 551.767 935.747 547.929 937.208 543.997C938.452 540.352 940.188 536.963 942.366 533.927C946.195 528.187 948.547 521.392 949.22 514.122C949.373 513.276 949.266 512.372 948.913 511.535C948.559 510.699 947.979 509.972 947.251 509.457C946.702 509.066 946.129 508.718 945.538 508.417C944.606 507.661 943.501 507.219 942.386 507.157C941.271 507.095 940.207 507.416 939.352 508.073C936.713 509.931 933.684 511.159 930.448 511.684C927.213 512.208 923.837 512.018 920.525 511.125C912.585 509.272 904.694 507.003 896.882 504.326C889.398 501.759 882.244 497.898 875.727 492.91C870.222 488.873 865.411 483.803 861.571 477.992C860.246 475.981 858.873 473.923 857.509 471.958C855.681 469.245 854.519 468.954 851.859 470.366C849.2 471.777 847.003 473.008 844.545 474.236C842.893 475.08 840.991 475.364 839.07 475.055C837.149 474.746 835.294 473.857 833.731 472.496C832.367 471.479 831.077 470.346 829.876 469.112C826.776 465.874 823.716 462.591 820.652 459.261C819.585 458.135 819.855 456.838 821.279 456.203L828.913 452.939L832.167 451.348C833.04 450.893 833.262 449.549 832.549 448.937C828.659 445.645 824.765 442.307 820.787 439.014C820.496 438.705 820.141 438.476 819.758 438.35C819.374 438.224 818.978 438.205 818.608 438.296C818.239 438.387 817.91 438.584 817.656 438.866C817.401 439.149 817.231 439.507 817.162 439.904C815.592 444.532 814.11 449.16 812.54 453.788C811.881 455.592 811.131 457.349 810.425 459.107C810.176 459.475 809.795 459.716 809.356 459.78C808.918 459.844 808.454 459.728 808.057 459.453C801.269 453.112 795.036 446.121 789.455 438.59C784.903 432.457 780.557 426.188 776.032 419.871C771.506 413.553 767.899 408.639 763.548 403.252C752.573 389.188 737.74 379.057 721.556 374.571C714.969 372.726 708.691 369.392 703.176 364.809L682.549 347.919L680.95 346.694C679.918 345.94 678.023 346.663 677.997 347.778C677.972 348.892 678.314 351.125 678.166 352.795C678.254 353.725 677.932 354.929 676.792 354.871C672.186 354.742 667.719 355.675 663.697 357.605C659.676 359.534 656.196 362.415 653.497 366.049C650.62 369.316 647.498 372.302 644.459 375.242C644.067 375.454 643.594 375.488 643.141 375.336C642.688 375.184 642.288 374.859 642.026 374.427C641.65 373.843 641.316 373.234 641.024 372.605C637.991 364.539 635.129 356.427 631.922 348.359C629.83 342.857 627.782 337.355 625.398 331.989C620.285 320.557 613.004 310.166 604.055 301.529C601.118 298.63 598.398 295.493 595.923 292.154C591.45 286.395 586.86 280.773 582.029 275.381C576.468 269.192 570.593 263.371 564.914 257.32C559.235 251.269 553.076 244.748 547.397 238.233C541.013 230.936 535.432 222.92 530.781 214.371C528.288 209.701 525.559 205.306 522.957 200.867C522.22 199.46 521.091 198.299 519.744 197.563C518.397 196.827 516.906 196.556 515.501 196.794C514.118 197.011 512.676 196.918 511.264 196.519C509.852 196.121 508.501 195.426 507.295 194.478C505.093 192.876 502.641 191.41 500.565 189.763L463.302 164.94C460.124 163.036 457.18 160.673 454.565 157.928C452.495 155.794 451.107 153.048 450.635 150.15C450.162 147.253 450.633 144.381 451.968 142.017C452.843 140.358 453.881 138.813 455.067 137.405C456.461 135.778 457.948 134.243 459.52 132.808C462.593 129.776 465.667 126.743 468.841 123.85C477.34 116.25 483.879 106.507 487.966 95.3509C488.825 92.8986 489.885 90.7268 490.871 88.2293C496.14 75.6525 496.75 79.7925 488.346 68.0001C482.666 60.0913 476.868 52.3206 471.25 44.5982C469.945 41.3738 468.018 38.4137 465.604 35.9255C463.19 33.4372 460.347 31.4807 457.274 30.1926C452.882 26.9375 448.886 23.079 445.41 18.7352C442.109 14.7527 438.926 10.6321 435.543 6.69518C433.943 4.946 432.184 3.36977 430.297 1.99548C429.212 1.1454 427.938 0.649778 426.655 0.577948C425.372 0.506058 424.145 0.861495 423.146 1.59479C422.364 2.09734 421.683 2.74034 420.949 3.2899C420.38 3.77612 419.695 4.10093 418.95 4.2382C418.205 4.37553 417.421 4.32178 416.66 4.08082C414.186 3.11427 411.596 2.75279 409.097 3.02547C406.454 3.69417 403.33 2.96459 401.283 5.31153C401.607 9.35098 403.195 13.3081 405.794 16.5517C408.223 18.4244 410.205 20.8984 411.535 23.7182C411.673 24.1875 411.662 24.6749 411.505 25.1027C411.348 25.5304 411.052 25.8739 410.667 26.0777C409.75 26.068 408.872 26.4767 407.924 26.606L402.345 27.1508C400.144 27.4063 399.573 29.2115 400.994 31.7808C401.703 32.9703 402.468 34.1255 403.286 35.2418C406.019 38.8607 407.748 43.1502 408.247 47.5549C409.284 54.6762 408.359 61.7351 405.587 67.8686C404.662 69.884 403.454 71.7166 401.999 73.3109C400.884 74.8477 399.22 75.8253 397.331 76.0543C395.441 76.2831 393.461 75.7471 391.773 74.5499C387.712 72.1581 383.943 69.1757 380.593 65.7005C379.094 64.1925 377.503 62.7939 375.832 61.5167C375.452 61.1876 374.697 61.5047 374.085 61.4982C373.473 61.4918 373.775 61.9131 373.671 62.1906C373.565 62.4824 373.506 62.7954 373.496 63.1177C374.042 76.2667 374.627 89.3696 375.125 102.472C375.119 103.803 375.434 105.153 376.04 106.393C376.646 107.634 377.523 108.726 378.589 109.568C382.484 112.906 386.226 116.475 390.003 119.952C391.263 121.118 392.434 122.389 393.504 123.751C395.499 126.4 396.615 129.613 396.655 132.819C396.694 136.025 395.655 139.016 393.721 141.262C393.518 141.488 393.265 141.658 392.981 141.76C392.696 141.861 392.386 141.891 392.074 141.848C390.546 141.506 389.037 141.008 387.569 140.361L331.028 115.66C325.522 113.28 320.155 110.529 314.567 108.659C308.862 107.442 303.115 106.945 297.449 107.178C289.839 106.54 282.22 106.274 274.636 105.915C274.367 105.963 274.111 106.054 273.876 106.186C274.191 106.746 274.396 107.538 274.851 107.728C276.316 108.508 277.838 109.131 279.391 109.588C285.666 111.326 291.936 113.017 298.245 114.663C315.562 119.181 332.713 124.822 349.596 131.554L411.301 155.938C412.843 156.558 414.316 157.363 415.867 158.076C416.553 158.408 416.917 159.945 416.555 160.731C415.998 162.051 415.118 163.163 413.996 163.963C412.873 164.763 411.546 165.225 410.136 165.307C408.258 165.287 406.401 165.5 404.531 165.573L404.509 165.34C404.602 166.317 404.323 167.521 404.778 168.176C408.643 173.976 412.626 179.638 416.571 185.345L423.737 195.592C424.24 196.294 423.582 197.634 422.712 197.671C421.139 197.655 419.567 197.638 418.029 197.993C416.29 198.161 414.699 198.892 413.464 200.089C412.23 201.286 411.41 202.894 411.114 204.701C410.726 206.603 410.516 208.56 410.488 210.546C410.337 213.837 409.551 216.988 408.179 219.81C407.273 222.028 405.868 223.936 404.074 225.383C402.28 226.831 400.146 227.779 397.839 228.153C395.687 228.523 393.579 229.059 391.532 229.759C390.858 229.942 390.245 230.285 389.738 230.762C389.23 231.239 388.84 231.839 388.593 232.521C388.346 233.204 388.249 233.951 388.309 234.712C388.368 235.473 388.583 236.23 388.937 236.93C390.315 240.116 392.303 243.022 394.762 245.444C401.11 251.868 408.937 256.32 417.225 258.221L424.801 259.88C430.195 261.23 435.31 264.04 439.625 268.025C446.957 274.327 452.482 282.702 455.419 291.97C456.813 295.917 457.132 300.083 456.336 303.962C454.173 314.543 450.73 324.648 446.089 334.042C444.357 337.414 442.331 340.457 440.285 343.733C436.788 349.55 434.553 356.208 433.721 363.289C432.889 370.37 433.477 377.72 435.449 384.877C437.626 393.201 440.98 401.258 445.39 408.76C446.794 411.144 448.32 413.435 449.767 415.819C450.651 417.315 451.451 418.856 452.26 420.49C452.464 420.866 452.587 421.277 452.618 421.692C452.649 422.107 452.588 422.512 452.44 422.877C452.292 423.241 452.061 423.554 451.765 423.79C451.47 424.026 451.118 424.179 450.738 424.236C449.206 424.429 447.635 424.413 446.064 424.186C444.495 423.68 442.967 422.994 441.506 422.141C434.417 418.354 427.526 414.092 420.878 409.384C416.013 406.195 412.253 401.32 410.332 395.711C407.986 388.906 405.422 382.098 403.198 375.201C396.137 353.623 389.627 331.866 381.925 310.421C379.798 304.547 377.422 298.809 375.339 292.935C373.807 288.739 372.402 284.498 371.207 280.166C369.493 274.198 368.809 268.065 369.19 262.079C369.433 252.729 368.418 243.244 366.175 233.903C366.118 233.562 365.965 233.236 365.737 232.969C365.3 232.5 364.706 231.751 364.225 231.746C363.745 231.741 362.15 231.956 361.819 232.603C360.919 234.257 360.296 236.085 359.974 238.017C359.469 241.263 359.169 244.565 359.076 247.9C358.906 254.864 359.041 261.832 358.797 268.935C358.647 274.275 358.319 279.566 357.68 284.807C356.684 294.057 353.734 302.732 349.042 310.213C348.278 311.396 347.821 312.793 347.711 314.281C347.601 315.769 347.841 317.304 348.41 318.751C348.971 320.388 349.736 321.959 350.684 323.42C352.027 325.452 353.48 327.406 355.035 329.271C357.811 332.784 360.797 336.205 363.534 339.764C366.336 343.291 368.983 346.946 371.466 350.715C377.001 358.818 379.954 368.384 379.836 377.833C379.783 380.17 380.324 382.549 381.405 384.724C382.402 386.963 383.478 389.111 384.559 391.305C385.77 393.803 386.513 396.482 386.744 399.177C387.093 401.89 386.694 404.565 385.595 406.874C384.409 409.834 382.598 412.414 380.288 414.435C379.982 414.432 379.239 414.424 378.763 414.001C378.286 413.578 378.404 413.44 378.33 413.114C376.813 404.924 376.735 406.409 370.635 404.209C368.468 403.443 366.135 402.768 364.129 401.864C358.211 399.608 352.984 395.338 349.325 389.772C345.214 383.728 339.849 378.707 333.715 375.163C322.056 367.665 310.827 359.352 300.113 350.286C281.384 334.646 264.886 316.114 251.28 295.433C247.699 289.868 244.2 284.258 240.54 278.785C236.88 273.313 233.094 267.886 229.106 262.642C223.341 254.783 216.347 247.983 208.486 242.593C203.985 239.57 200.233 235.365 197.649 230.45C187.715 212.39 173.477 197.099 156.551 186.313C155.389 185.558 154.235 184.895 153.081 184.233C152.502 183.901 151.862 183.742 151.238 183.777C150.615 183.812 150.034 184.038 149.564 184.428L144.966 187.491C144.454 187.826 143.819 187.928 143.188 187.774C142.558 187.621 141.98 187.225 141.571 186.666L140.124 185.211C125.837 169.207 111.554 153.235 97.2725 137.294C95.4996 135.219 93.8365 133.046 92.2924 130.785C90.3756 128.291 89.1129 125.346 88.6522 122.294C88.6214 121.969 88.5907 121.644 88.5599 121.318C88.161 117.917 86.8456 114.603 84.7733 111.778C82.701 108.953 79.9609 106.739 76.8854 105.404C72.638 103.473 68.7638 100.571 65.5653 96.9249C64.874 96.1516 64.12 95.4436 63.3141 94.8112C62.1411 93.7849 60.7384 93.1291 59.2928 92.9313C57.8472 92.7335 56.4275 93.0032 55.2227 93.7041C54.4041 94.1317 53.6489 94.6695 52.9739 95.3057C52.3682 95.7528 51.6317 95.9866 50.8554 95.9784C50.0791 95.9702 49.2968 95.7203 48.6052 95.2595C40.7274 91.591 33.2543 86.8222 26.4036 81.0922C19.2131 74.7464 11.8655 68.5848 4.63576 62.2851C3.33346 61.1212 1.71003 60.4884 0.10437 60.5188C1.30217 68.5661 2.50438 76.6599 3.61919 84.7527C5.51803 96.855 8.20294 108.895 11.6544 120.784C11.9259 121.78 12.4032 122.723 13.0497 123.539C13.2679 123.772 13.5294 123.955 13.8131 124.071C14.0969 124.186 14.3952 124.233 14.684 124.206C16.1683 123.756 17.4523 122.848 18.3849 121.591C19.3175 120.334 19.8599 118.779 19.9481 117.11C20.0975 115.46 20.07 113.778 19.8662 112.093C19.5334 105.356 20.079 98.7038 21.4874 92.3257C21.6396 91.7819 21.9207 91.3011 22.3061 90.9259C22.6915 90.5506 23.1693 90.2924 23.6972 90.1741C24.2251 90.0557 24.7871 90.0811 25.3333 90.2475C25.8795 90.4139 26.3934 90.7162 26.8294 91.1282C28.2272 92.5821 29.5145 94.1497 30.6768 95.8131C37.5415 105.174 44.2881 114.209 51.096 123.43C52.5188 125.398 54.0384 127.291 55.6474 129.098C56.4301 129.697 57.3029 130.132 58.2125 130.379C58.5357 130.475 58.8681 130.479 59.1736 130.389C65.7647 128.554 66.9276 129.774 73.5926 134.257C82.5871 140.296 91.4681 146.521 100.349 152.745C101.992 153.93 103.571 155.219 105.078 156.603C105.739 157.201 106.291 157.925 106.697 158.728C107.104 159.532 107.357 160.398 107.441 161.272C107.502 161.923 107.568 162.621 107.63 163.272C108.17 174.516 107.736 172.236 115.535 181.328C120.047 186.578 124.637 191.735 129.232 196.938C134.925 203.439 140.959 209.599 147.3 215.381C150.11 217.873 152.768 220.594 155.426 223.316C159.763 227.441 163.074 232.63 164.997 238.317C166.921 244.004 167.383 249.972 166.333 255.57C165.996 257.507 165.549 259.41 164.996 261.268C164.846 261.903 164.568 262.483 164.182 262.972C163.795 263.461 163.308 263.847 162.75 264.108C162.192 264.368 161.576 264.496 160.941 264.484C160.306 264.472 159.666 264.32 159.061 264.038C156.902 263.242 154.775 262.32 152.689 261.277C146.729 258.242 140.803 255.114 134.846 252.125C126.531 247.795 117.996 244.073 109.309 240.988C106.827 240.126 104.415 239.078 101.998 237.985C97.717 236.076 93.8279 233.133 90.6694 229.412C90.0372 228.599 89.3373 227.845 88.5798 227.161C88.0085 226.477 87.2689 225.975 86.4634 225.725C85.6579 225.476 84.8263 225.49 84.0836 225.767C81.8636 226.824 79.3979 227.329 76.8579 227.246C74.3178 227.163 71.7642 226.494 69.3741 225.286C66.9289 224.265 64.442 223.401 61.9283 222.7C60.9885 222.573 60.0501 222.563 59.1324 222.67C59.1896 223.274 58.6484 224.012 58.8671 224.478C59.8391 226.311 60.9111 228.091 62.0771 229.807C76.3944 250.719 92.6331 270.182 110.514 287.861C131.619 308.629 154.136 327.679 177.832 344.815C180.869 346.966 184.116 348.717 187.49 350.025C199.201 354.793 210.825 359.56 222.404 364.327C233.307 368.854 233.504 369.088 240.378 379.936C242.127 383.29 244.258 386.435 246.719 389.291C249.871 391.905 253.277 394.125 256.858 395.901C277.18 407.726 297.864 418.766 318.682 429.389C320.706 430.478 322.912 431.198 325.049 432.103L327.284 429.433C323.249 422.118 317.689 415.762 311.087 410.917C303.713 405.405 296.528 399.571 289.311 393.875C288.016 392.8 286.783 391.639 285.622 390.399C285.622 390.399 285.556 389.702 285.53 389.423C285.503 389.144 285.783 388.868 286.001 388.87C287.219 388.72 288.466 388.733 289.714 388.91C301.07 391.77 312.382 394.63 323.751 397.629C327.545 398.683 331.238 400.286 334.72 402.389C337.307 403.903 339.938 405.417 342.499 407.116C352.127 413.394 361.825 419.488 371.854 424.935C379.218 429 386.284 433.739 392.964 439.091C399.666 444.41 405.801 450.529 411.228 457.303C415.135 461.716 418.097 466.935 419.87 472.535C420.17 473.696 420.792 474.77 421.653 475.61C422.514 476.45 423.57 477.016 424.678 477.23C425.914 477.647 427.17 477.956 428.432 478.152C428.825 478.156 429.624 477.375 429.549 477.049C429.233 473.702 428.309 470.395 427.73 467.045C427.642 466.115 428.096 465.841 428.909 466.128C432.221 467.561 435.353 469.523 438.187 471.939C444.743 476.653 451.325 481.645 457.816 486.59C461.33 489.265 465.222 491.26 469.283 492.47C489.011 498.452 508.955 503.038 528.976 506.198C537.538 507.835 546.134 508.78 554.687 509.024C555.517 509.033 555.923 508.712 555.717 507.92C555.655 507.623 555.507 507.345 555.293 507.126C554.205 506.232 553.16 505.339 552.08 504.538C542.102 496.812 532.678 488.259 523.913 478.975C523.654 478.741 523.47 478.427 523.392 478.087C523.16 477.48 523.098 476.832 523.216 476.228C523.356 475.961 523.553 475.736 523.794 475.57C524.035 475.404 524.313 475.301 524.609 475.267C530.616 476.03 536.601 477.448 542.466 479.496C554.562 483.711 566.657 487.926 578.787 492.048L612.336 503.456C615.729 504.691 619.28 504.89 622.559 504.029C639.628 499.536 655.817 492.619 670.714 483.452C672.163 482.348 673.505 481.104 674.727 479.733C675.417 479.183 676.167 478.355 676.949 478.317C679.737 477.913 682.311 476.776 684.448 475.006C688.579 472.541 692.706 470.031 697.152 467.663C703.941 464.047 711.572 462.161 719.498 462.14C733.725 462.067 748.119 464.286 762.193 468.721C787.672 476.167 812.088 488.632 834.097 505.428C842.717 512.057 850.743 519.568 858.039 527.834C866.591 537.382 873.797 548.149 879.387 559.733C884.785 570.658 890.174 581.49 895.572 592.414C896.139 593.675 896.966 594.809 897.985 595.723C899.004 596.637 900.187 597.307 901.438 597.678C913.563 601.754 925.658 605.968 937.753 610.183C940.235 611.045 942.748 611.769 945.199 612.77C947.886 613.669 950.276 615.552 951.913 618.06C953.55 620.569 954.322 623.529 954.08 626.378C953.992 628.371 953.77 630.34 953.416 632.27C951.145 646.55 948.961 660.831 946.51 675.063C946.274 676.17 946.294 677.35 946.57 678.507C946.847 679.663 947.371 680.765 948.1 681.721C950.112 684.529 952.162 687.291 954.257 690.053C954.279 690.286 954.807 690.338 955.126 690.48C955.445 690.623 956.219 690.492 956.31 689.61C956.987 683.394 957.704 677.132 958.351 671.055C959.254 662.147 959.895 653.237 961.602 644.524C961.994 642.67 963.619 642.316 965.122 643.911C975.527 654.988 985.17 666.83 993.961 679.326C998.637 685.826 1002 693.19 1003.81 700.887C1004.59 704.237 1004.91 707.635 1004.77 710.975C1004.66 712.631 1004.99 714.336 1005.71 715.908C1008.71 722.163 1011.27 728.553 1014.73 734.58C1021.26 746.097 1029.64 756.454 1039.44 765.122C1043.26 768.599 1047.27 771.8 1051.2 775.092C1052.53 776.174 1053.93 777.165 1055.29 778.201C1060.56 782.053 1064.55 787.628 1066.56 793.924C1069.06 801.428 1071.77 808.888 1074.4 816.393C1074.46 817.043 1074.74 817.697 1074.98 818.349C1075.44 820.881 1076.45 823.328 1077.93 825.49C1079.41 827.651 1081.31 829.468 1083.49 830.793C1095.92 840.987 1108.66 850.704 1121.73 859.945C1122.86 860.631 1124.04 861.218 1125.25 861.701C1125.25 861.701 1125.6 861.194 1125.53 860.961C1125.42 859.979 1125.16 859.006 1124.78 858.073C1122.05 852.813 1120.64 847.02 1120.71 841.311C1120.71 839.968 1120.58 838.612 1120.32 837.266C1120.18 836.245 1119.8 835.25 1119.22 834.37C1118.64 833.489 1117.88 832.749 1117.01 832.215C1114.72 830.833 1112.36 829.614 1109.94 828.565C1105.62 826.831 1101.57 824.23 1098.05 820.915C1095.76 818.818 1093.92 816.225 1092.69 813.352C1091.45 810.48 1090.85 807.411 1090.94 804.399C1090.98 803.739 1091.06 803.088 1091.19 802.451C1091.24 801.615 1091.61 800.87 1092.21 800.381C1092.81 799.891 1093.59 799.696 1094.39 799.838C1096.27 800.322 1098.15 800.807 1100 801.477C1108.64 804.633 1117.33 807.883 1125.92 811.039L1164.79 825.707C1166.57 826.621 1168.49 827.087 1170.38 827.067C1169.4 816.7 1168.41 806.286 1167.43 795.919C1166.92 790.526 1166.41 785.18 1166.21 779.837C1166.03 777.931 1165.85 776.025 1165.67 774.119C1165.65 773.646 1165.79 773.199 1166.06 772.855C1166.33 772.51 1166.72 772.29 1167.15 772.231L1165.43 754.007C1162.34 751.327 1159.13 748.785 1155.94 745.965C1152.6 742.956 1150.25 738.899 1149.31 734.516C1148.71 731.816 1147.93 729.161 1147.25 726.553C1147.03 725.895 1146.63 725.301 1146.12 724.841C1145.6 724.382 1144.98 724.079 1144.34 723.968L1134.85 722.753C1133.89 722.604 1132.98 722.072 1132.31 721.269C1131.64 720.466 1131.26 719.454 1131.25 718.442C1130.79 715.382 1131.4 712.374 1132.99 710.008C1134.8 707.473 1136.88 705.033 1138.76 702.731C1142.8 698.009 1146.11 692.616 1148.59 686.719C1149.22 685.705 1149.6 684.525 1149.72 683.27C1149.83 682.015 1149.66 680.717 1149.23 679.477C1148.8 678.236 1148.12 677.084 1147.24 676.11C1146.36 675.135 1145.3 674.364 1144.14 673.854C1140.09 671.545 1136.5 668.328 1133.65 664.455C1133.42 664.203 1133.24 663.907 1133.11 663.587C1132.99 663.266 1132.93 662.93 1132.94 662.599C1132.95 662.269 1133.03 661.953 1133.17 661.672C1133.31 661.391 1133.51 661.153 1133.76 660.973C1140.22 655.771 1147.07 651.095 1154.26 646.978C1154.52 646.98 1154.87 646.984 1155.22 646.988L1154.38 632.164ZM471.422 367.934C477.732 369.579 484.028 371.086 490.254 372.777C505.636 377.097 520.818 382.598 535.672 389.233C537.77 390.184 539.872 391.182 541.934 392.225C542.496 392.598 542.952 393.136 543.239 393.764C543.525 394.392 543.628 395.078 543.531 395.725C542.851 398.226 542.128 400.726 541.492 403.227C540.96 404.922 540.776 406.754 540.952 408.609C541.127 410.464 541.658 412.303 542.512 414.013C545.031 418.962 547.507 423.911 550.232 428.724C552.957 433.536 555.375 436.952 557.907 441.112C559.198 443.16 560.335 445.3 561.305 447.511C561.678 448.489 561.842 449.521 561.786 450.526C561.73 451.532 561.455 452.485 560.982 453.313C560.541 454.19 559.501 454.737 558.758 454.265C552.771 450.486 546.818 446.615 540.835 442.882C534.611 438.801 527.777 436.085 520.791 434.915C508.488 433.113 500.314 424.667 494.43 413.226C493.84 412.059 494.909 410.909 496.452 411.065C497.082 411.232 497.721 411.332 498.357 411.363C498.87 411.186 499.319 410.871 499.667 410.448C499.713 410.295 499.729 410.129 499.713 409.961C499.697 409.794 499.65 409.627 499.574 409.472C497.524 406.269 495.009 403.399 492.138 400.987C487.67 396.668 483.089 392.532 478.744 388.121C473.29 382.815 469.004 376.312 466.26 369.179C466.185 368.389 466.839 367.003 467.595 367.15L471.422 367.934ZM462.826 308.443C462.93 303.679 463.984 299.102 465.919 295.007C466.014 294.805 466.151 294.631 466.321 294.497C466.49 294.363 466.689 294.272 466.904 294.231C467.119 294.189 467.344 294.197 467.566 294.255C467.788 294.313 468.001 294.419 468.191 294.567C469.397 295.787 470.687 296.961 471.815 298.274C476.172 303.248 481.834 306.695 487.884 308.057C490.698 308.737 493.564 309.511 496.352 310.376C499.812 311.363 503.072 313.253 505.818 315.863C506.032 316.134 506.207 316.433 506.338 316.751C506.666 317.451 506.453 317.96 505.636 318.091C501.696 318.885 497.708 319.632 493.772 320.473C492.908 320.715 492.077 321.048 491.292 321.469C491.029 321.466 490.728 321.974 490.79 322.16C490.851 322.347 491.188 323.604 491.503 323.7C493.064 324.162 494.643 324.505 496.226 324.725C501.633 325.835 507.075 325.772 512.215 324.54C517.354 323.307 522.08 320.933 526.098 317.564L526.88 317.061C527.289 316.879 527.764 316.871 528.214 317.039C528.665 317.206 529.059 317.537 529.323 317.969C529.927 318.822 530.478 319.712 530.971 320.634C531.879 322.502 533.15 324.176 534.69 325.535C536.231 326.893 538.002 327.901 539.875 328.484C542.979 329.63 545.888 331.442 548.407 333.8C550.926 336.157 552.996 339.005 554.479 342.153C557.432 347.99 559.974 354.101 562.634 360.073C562.81 360.379 562.93 360.712 562.989 361.052C563.33 362.375 563.381 363.731 563.138 365.01C562.895 366.29 562.366 367.458 561.591 368.422C560.08 369.985 558.03 368.152 556.274 367.576C553.169 366.405 550.277 364.533 547.813 362.1C543.674 358.33 538.743 355.752 533.579 354.658C526.344 352.909 519.082 351.346 511.786 350.34C506.676 349.609 501.734 347.218 497.653 343.503C491.838 338.59 487.783 331.701 486.317 324.249C485.932 322.48 485.285 322.102 483.612 321.945C481.416 322.003 479.189 321.746 476.993 321.178C472.97 319.677 469.179 317.38 465.836 314.419C464.993 313.641 464.292 312.705 463.774 311.669C463.256 310.634 462.932 309.52 462.822 308.396L462.826 308.443ZM700.38 427.059L701.7 441.006C701.681 441.665 701.455 442.276 701.057 442.742C700.659 443.208 700.112 443.504 699.5 443.584C689.476 444.667 679.021 441.998 669.893 436.026C667.579 434.632 665.531 432.742 663.899 430.491C662.267 428.241 661.091 425.687 660.457 423.015C660.421 422.533 660.524 422.068 660.753 421.68C660.981 421.293 661.324 421.002 661.736 420.846C663.003 420.859 664.235 420.501 665.453 420.467L673.033 420.315C673.262 420.334 673.487 420.298 673.691 420.211C673.894 420.123 674.072 419.986 674.21 419.809C674.348 419.633 674.443 419.421 674.489 419.19C674.534 418.958 674.529 418.713 674.473 418.473C674.412 417.822 674.044 417.168 673.895 416.516C673.207 414.372 673.236 412.122 673.978 410.165C674.72 408.209 676.126 406.673 677.947 405.83C679.775 404.694 681.871 404.044 684.075 403.931C686.28 403.817 688.536 404.243 690.672 405.175C692.77 406.126 694.802 407.309 696.874 408.445C697.47 408.747 697.99 409.217 698.37 409.798C698.75 410.379 698.975 411.046 699.016 411.719L700.38 427.059ZM1029.27 734.27C1029.31 734.642 1029.18 733.34 1029.41 731.995C1029.44 731.67 1029.55 731.365 1029.72 731.106C1029.89 730.847 1030.12 730.641 1030.39 730.504C1030.66 730.367 1030.96 730.303 1031.28 730.317C1031.59 730.331 1031.91 730.423 1032.2 730.585C1040.59 735.318 1049.11 740.052 1057.44 745.063C1064.55 749.572 1072.03 753.266 1079.74 756.074C1084.22 757.716 1088.44 760.297 1092.11 763.655C1095.79 767.012 1098.85 771.071 1101.09 775.573C1101.35 776.207 1101.54 776.864 1101.67 777.53C1101.87 778.361 1101.78 779.211 1101.39 779.899C1101.01 780.588 1100.37 781.062 1099.62 781.223C1098.88 781.46 1098.09 781.532 1097.3 781.436C1096.5 781.34 1095.71 781.077 1094.98 780.664C1092.99 779.412 1091.06 778.059 1089.18 776.608L1076.03 767.181C1072.48 764.483 1068.25 763.18 1064.16 763.526C1059.11 763.835 1053.92 762.343 1049.4 759.283C1043.78 755.528 1038.52 751.14 1033.72 746.206C1032.21 744.631 1031.03 742.749 1030.26 740.704C1029.49 738.659 1029.16 736.506 1029.29 734.409L1029.27 734.27ZM216.211 325.621C206.748 324.778 208.842 326.147 202.406 318.091L194.549 308.394L183.964 295.232C183.321 294.436 182.674 293.593 182.071 292.751C181.658 292.194 181.402 291.535 181.339 290.862C181.275 290.189 181.406 289.534 181.715 288.985L190.325 274.354C190.683 273.842 190.881 273.215 190.895 272.548C190.909 271.88 190.739 271.201 190.405 270.593C188.951 267.798 188.378 264.668 188.779 261.705C188.894 261.257 189.119 260.861 189.434 260.555C189.75 260.25 190.143 260.044 190.578 259.959C191.355 259.881 192.158 259.983 192.933 260.257C193.708 260.532 194.436 260.973 195.069 261.551C195.702 262.13 196.226 262.832 196.605 263.611C196.984 264.389 197.209 265.227 197.265 266.067C197.424 267.741 197.582 269.415 197.74 271.088C197.777 273.782 197.726 276.475 197.759 279.123C197.647 285.547 199.903 292.044 204.057 297.256C209.01 303.485 213.519 310.081 218.228 316.493C219.837 318.74 221.551 321.173 223.23 323.234C223.405 323.506 223.53 323.808 223.597 324.12C223.664 324.432 223.672 324.748 223.62 325.049C223.499 325.311 223.316 325.53 223.088 325.689C222.861 325.849 222.594 325.943 222.31 325.964C220.056 326.126 218.107 325.827 216.211 325.621ZM606.945 469.078C607.082 465.457 607.041 461.788 607.401 458.215C607.55 456.392 608.242 454.728 609.383 453.457C610.523 452.186 612.053 451.372 613.757 451.13C615.247 450.683 616.907 450.884 618.393 451.69C621.26 453.392 624.127 455.095 626.919 456.935C627.994 457.766 628.991 458.711 629.892 459.753C631.318 461.467 632.205 463.579 632.41 465.748C632.616 467.916 632.126 470.014 631.022 471.701C627.067 476.025 623.121 480.442 619.388 484.814C617.529 486.838 615.621 488.815 613.669 490.791C613.193 491.297 611.441 490.768 611.24 490.023C609.455 483.167 608.028 476.251 606.967 469.31L606.945 469.078ZM443.224 192.593C443.357 193.548 443.359 194.502 443.23 195.426C441.706 202.377 440.181 209.327 438.525 216.276C438.364 216.878 438.159 217.48 437.959 218.128C437.907 218.353 437.812 218.56 437.678 218.736C437.544 218.912 437.374 219.053 437.18 219.151C436.985 219.249 436.769 219.301 436.545 219.305C436.32 219.309 436.093 219.264 435.875 219.174C434.982 218.772 434.108 218.313 433.258 217.799C423.459 211.101 424.754 213.715 428.085 204.183C428.846 201.74 429.774 199.375 430.864 197.107C431.823 195.106 433.34 193.505 435.233 192.496C437.127 191.486 439.317 191.111 441.541 191.415C442.088 191.652 442.59 192.354 443.246 192.826L443.224 192.593ZM604.93 392.891L614.345 393.687C615.437 393.698 616.347 395.473 616.073 396.724C616.031 398.069 615.708 399.355 615.128 400.491C614.547 401.628 613.723 402.588 612.713 403.303C611.704 404.019 610.533 404.472 609.283 404.632C608.033 404.792 606.735 404.654 605.479 404.229C603.621 403.799 601.783 403.205 599.987 402.452C599.605 402.318 599.245 402.107 598.927 401.83C598.61 401.553 598.342 401.217 598.139 400.842C597.937 400.467 597.804 400.06 597.748 399.646C597.693 399.233 597.716 398.821 597.817 398.435C598.017 396.66 598.873 395.114 600.204 394.123C601.536 393.132 603.238 392.773 604.952 393.123L604.93 392.891ZM729.266 433.913C732.083 433.246 733.285 433.956 733.828 436.005C734.371 438.054 735.185 440.663 735.824 442.806C736.015 443.454 735.993 444.127 735.761 444.709C735.53 445.292 735.103 445.748 734.555 445.998C732.712 447.005 730.777 447.839 728.768 448.491C728.135 448.716 726.933 448.007 726.391 447.351C725.598 446.262 724.929 445.084 724.401 443.847C720.924 437.54 723.431 435.895 727.606 434.36C728.156 434.242 728.718 434.17 729.288 434.146L729.266 433.913ZM978.111 638.197C978.679 638.203 979.553 638.212 979.828 638.818C983.34 645.032 986.769 651.292 990.325 657.506C990.403 657.661 990.452 657.827 990.468 657.995C990.484 658.164 990.467 658.33 990.417 658.483C990.208 659.038 989.968 659.732 989.549 659.913C988.978 659.936 988.394 659.802 987.854 659.524C987.567 659.344 987.33 659.083 987.172 658.773C983.948 652.377 980.728 646.027 977.544 639.584C977.326 639.581 977.919 638.938 978.133 638.429L978.111 638.197ZM241.596 351.758C241.099 352.031 240.588 352.63 240.186 352.533C236.801 351.354 233.631 349.399 230.916 346.815C230.562 346.446 230.278 346.01 230.083 345.536C229.888 345.061 229.785 344.56 229.783 344.063C229.722 343.188 229.826 342.329 230.088 341.534C230.35 340.74 230.765 340.026 231.309 339.435C231.824 338.883 232.283 338.656 232.969 339.452C236.478 342.68 239.459 346.507 241.762 350.738C241.758 351.156 241.622 351.573 241.61 351.898L241.596 351.758ZM1114.87 679.071C1114.87 679.474 1114.8 679.866 1114.67 680.23C1112.69 683.739 1110.66 687.201 1108.64 690.663C1108.56 690.796 1108.46 690.908 1108.34 690.994C1108.22 691.079 1108.08 691.136 1107.93 691.16C1107.78 691.185 1107.63 691.177 1107.48 691.136C1107.32 691.095 1107.18 691.024 1107.05 690.924C1106.12 690.404 1105.04 689.138 1105.3 688.63C1107 684.933 1108.75 681.282 1110.51 677.678C1110.48 677.399 1110.99 677.266 1111.19 677.082C1111.28 676.947 1111.4 676.839 1111.54 676.765C1111.68 676.692 1111.84 676.654 1112 676.656C1112.17 676.658 1112.33 676.699 1112.49 676.775C1112.64 676.852 1112.78 676.963 1112.89 677.1L1114.87 679.071Z" fill="#05003E"/>
</svg>
