<svg width="878" height="483" viewBox="0 0 878 483" fill="none" xmlns="http://www.w3.org/2000/svg">
<path d="M9.22893 177.364C14.5972 174.711 21.7718 171.371 26.8598 172.731C38.5201 175.838 47.8393 171.054 58.1207 169.015C67.0422 167.234 76.1779 166.31 85.2539 165.236C91.0747 164.476 96.8179 163.29 102.427 161.689C109.51 159.701 118.119 157.775 114.706 146.349C121.54 161.808 133.375 154.802 142.878 153.244C146.783 152.606 149.693 147.222 153.038 144.003L151.972 140.754C155.36 141.799 159.403 142.09 162.004 144.043C168.987 149.287 184.796 151.7 192.282 147.058C194.339 145.787 193.93 141.478 195.279 138.835C196.628 136.193 198.762 133.862 200.554 131.397C203.483 133.339 208.716 135.098 208.889 137.166C209.727 146.978 214.901 146.294 221.943 143.138C222.873 142.65 223.895 142.322 224.957 142.169C237.556 141.247 241.832 135.802 236.323 124.606C235.702 123.405 236.633 121.568 237.379 116.196C244.482 122.456 249.276 127.069 254.53 131.113C256.59 132.699 260.142 134.351 262.319 133.786C271.008 131.522 277.159 126.627 279.634 117.989C282.316 108.698 285.905 107.668 295.246 112.357C309.091 119.298 318.137 116.772 322.861 103.971C325.084 97.9718 329.137 97.414 334.555 98.9357C336.594 99.4795 338.324 100.855 340.16 101.907C354.826 110.299 358.933 109.71 374.01 95.3643L381.918 109.602C383.21 109.007 384.501 108.411 385.789 107.808L384.611 97.0348C390.392 96.046 398.804 96.7822 403.072 93.2589C407.146 89.9375 408.45 82.0433 408.078 76.2777C407.673 69.9534 403.956 63.7525 401.308 56.3895C410.273 57.1384 414.362 60.9516 418.467 67.1389C435.983 93.5323 429.807 118.566 416.478 143.617C413.038 150.101 410.03 156.808 407.185 163.541C406.334 165.55 405.574 168.922 406.693 170.119C413.608 177.422 412.204 189.459 423.242 194.335C424.005 194.672 424.372 195.91 424.789 196.783C429.282 206.253 422.299 229.352 412.499 232.986C394.865 239.516 379.348 248.205 367.744 262.334C366.225 264.189 363.253 265.036 358.679 267.559C360.597 260.375 362.435 255.535 363.131 250.542C364.03 244.038 364.752 237.363 364.098 230.865C363.762 227.497 360.291 224.352 358.235 221.109C355.634 223.471 353.116 225.909 350.454 228.153C347.792 230.398 344.915 232.463 341.676 234.969C336.89 220.48 336.182 220.199 323.124 226.283C316.043 229.584 316.043 229.584 311.77 222.17C323.503 221.171 332.448 205.009 328.49 191.985C327.414 188.461 326.265 185.015 323.605 182.777C320.095 179.49 314.743 176.618 313.768 172.829C313.156 170.421 318.769 166.391 322.094 163.61C325.805 160.506 330.105 157.996 334.145 155.222L332.969 151.98C324.616 151.68 316.262 151.245 307.908 151.097C284.342 150.695 260.74 149.782 237.225 150.361C227.414 150.608 217.845 154.654 207.993 155.994C201.496 156.873 194.229 157.434 188.123 155.67C171.149 150.75 156.692 159.004 141.121 161.147C130.357 162.627 119.776 165.192 108.998 166.63C91.3285 168.979 72.5679 170.494 55.9029 175.466C36.6388 181.207 19.0362 191.537 0.720703 199.876L2.16463 203.467C11.2176 202.451 20.2811 201.438 27.834 200.596C36.2718 202.214 44.5826 202.396 51.3398 205.539C56.9684 208.181 60.7121 214.299 65.7014 219.291L70.8697 212.105C76.7195 217.384 82.6627 220.108 87.7577 225.389C91.5116 229.25 94.0166 234.094 97.5982 238.131C105.691 247.306 115.528 252.733 129.188 248.391C133.233 259.611 137.349 269.847 140.518 280.308C142.622 287.265 145.418 288.865 152.704 285.486C166.628 278.986 169.826 281.211 170.655 296.408C170.867 300.386 171.057 304.374 171.277 308.349C171.933 320.427 172.446 320.806 185.614 319.301C191.214 318.66 194.161 320.076 196.869 325.67C200.415 332.986 206.814 339.139 211.929 345.837C213.56 347.971 216.517 350.426 216.262 352.413C214.399 366.977 227.705 369.052 236.961 374.223C242.375 377.267 248.699 378.977 253.86 382.296C262.948 388.127 271.772 391.969 282.908 387.385C286.511 385.856 291.191 386.409 299.073 385.659C295.415 391.893 293.937 396.597 290.635 399.591C277.327 411.784 277.841 423.994 292.855 434.81C294.25 435.81 295.733 436.773 296.907 437.548C296.954 438.675 296.992 439.327 296.992 439.972L296.956 453.124C299.801 449.822 303.661 446.886 305.234 443.114C307.335 438.211 308.322 432.975 308.134 427.719C307.249 411.734 315.82 376.751 324.962 362.33L327.883 362.881C324.756 377.345 320.874 391.707 318.704 406.306C316.535 420.905 316.077 435.924 314.817 451.314C323.076 446.638 323.729 453.407 325.874 458.149C328.883 464.834 331.344 471.75 335.138 478.102C336.532 480.424 340.938 481.212 343.986 482.737C345.399 479.558 347.983 476.415 348.027 473.203C348.247 458.334 346.929 443.416 347.799 428.581C348.411 418.106 351.185 407.685 353.905 397.463C354.817 394.13 358.55 391.51 360.997 388.561C370.982 394.155 372.668 399.896 366.227 407.288C357.055 417.813 355.819 430.24 356.33 444.585C360.108 442.408 362.605 440.966 366.911 438.501C366.912 444.4 367.221 448.839 366.87 453.223C366.183 462.09 366.697 470.239 371.704 476.369C376.509 465.27 382.855 453.58 392.247 444.044C416.679 419.239 436.674 415.879 436.674 415.879C436.674 415.879 441.337 416.399 448.611 416.871C448.634 415.539 448.757 414.21 448.979 412.893C449.434 410.017 447.541 405.677 445.101 403.695C435.37 395.804 420.947 391.178 423.995 375.235C424.191 374.188 422.776 372.879 422.198 371.659C418.335 363.204 410.677 354.377 411.44 346.354C413.239 327.334 409.697 308.998 407.457 290.443C406.026 278.312 401.652 276.108 390.092 279.805C386.274 281.02 381.4 279.514 376.984 279.215C378.273 275.778 378.528 271.394 381.021 269.078C393.446 257.777 406.313 246.87 419.403 236.242C421.982 234.144 426.294 233.866 431.556 232.198C431.977 238.619 432.404 243.422 432.586 248.225C433.165 262.939 429.339 279.331 435.272 291.924C441.864 305.845 439.657 315.97 434.969 328.365C431.915 336.445 431.965 345.651 431.416 354.411C431.294 356.333 434.501 358.491 436.174 360.536C438.094 358.98 440.02 357.438 441.926 355.873C443.607 354.483 445.266 353.07 447.694 351.036C452.35 360.039 454.187 368.502 448.543 375.515C441.976 383.685 442.971 390.452 449.218 397.808C457.307 393.873 463.299 396.878 463.869 405.338C464.086 408.63 464.664 412.397 463.265 415.148C462.893 415.872 462.45 416.681 461.946 417.508C472.951 417.89 483.971 417.559 494.924 416.518C500.873 407.138 507.57 398.15 513.572 388.787C517.5 382.653 520.531 376.024 525.449 366.859L497.689 369.781C497.253 368.43 496.605 367.447 496.722 366.569C498.681 351.749 500.526 336.914 502.906 322.162C503.605 317.821 505.892 313.73 507.435 309.492C510.625 312.262 513.862 315.02 517.084 317.768C517.349 317.99 517.716 318.105 517.991 318.315C528.19 326.278 529.206 332.558 522.171 342.813C519.788 346.277 517.756 349.942 516.021 352.773L527.737 363.125C530.155 360.666 532.966 357.315 536.32 354.522C541.69 350.037 546.03 350.647 547.855 357.762C548.513 360.325 548.429 363.036 548.893 365.649C550.442 374.387 558.211 378.875 567.081 376.893L597.257 356.856C597.257 356.856 593.069 350.56 588.157 342.2C585.583 339.942 582.606 338.097 579.35 336.742C575.882 335.269 571.278 330.886 571.431 328.09C572.243 313.279 566.289 303.092 553.578 299.515C552.151 289.771 551.178 281.976 549.776 274.235C549.338 272.292 548.204 270.534 546.549 269.236C539.182 263.708 531.577 258.45 525.487 254.116C530.463 249.448 536.272 246.441 537.241 242.383C538.149 238.583 534.325 230.238 531.88 229.962C526.731 229.385 519.023 231.303 516.122 234.836C509.549 242.856 504.566 239.542 497.616 235.143L505.79 224.015C500.229 224.393 495.448 223.405 492.797 225.143C483.508 231.244 475.353 226.401 467.651 222.927C462.526 220.613 458.652 215.721 463.442 209.691C464.048 208.924 464.78 207.706 464.515 206.974C459.823 193.958 470.216 192.779 479.346 189.771C483.468 188.412 486.614 184.624 492.258 180.397L499.736 183.25C498.134 172.864 493.273 169.394 485.459 174.335C472.926 182.25 461.225 191.349 449.832 200.603C443.811 205.46 439.083 211.679 433.036 218.083C432.764 196.368 428.705 175.162 433.468 155.943C437.231 140.756 451.352 127.652 462.274 114.617C463.688 112.933 474.455 116.404 479.524 119.46C483.875 122.079 486.271 127.511 490.212 132.581C494.591 131.312 499.601 129.854 505.086 128.258C511.398 135.077 508.154 141.43 505.117 148.284C502.798 153.52 501.609 159.327 500.826 165.018C499.924 171.77 501.676 176.432 511.202 176.433C515.997 176.427 520.881 179.856 525.134 181.538C518.651 190.293 513.785 199.133 506.577 205.807C501.745 210.247 498.943 214.207 504.904 217.154C508.417 218.848 517.11 216.829 519.724 213.745C534.563 196.253 548.317 177.971 562.287 159.852C564.511 156.981 565.454 153.181 567.948 150.594C570.233 148.215 573.721 145.835 576.952 145.506C578.544 145.34 581.533 149.573 582.508 152.224C583.626 155.268 583.307 158.764 583.442 162.066C584.094 178.11 595.178 184.082 608.365 184.925C604.393 193.777 600.131 202.122 596.985 210.838C595.707 214.366 596.123 218.823 597.067 222.602C599.265 231.374 603.45 232.567 611.199 227.295C612.578 226.36 614.029 225.529 615.565 224.574C621.541 239.41 620.559 240.671 608.077 250.045C604.6 252.667 604.419 258.994 602.725 263.622C606.824 263.594 610.933 263.673 615.011 263.47C616.729 263.394 618.429 262.704 620.511 262.211L618.595 251.488C632.874 258.707 634.527 257.503 635.171 243.385C635.359 239.213 637.954 235.174 639.454 231.074L643.282 231.678L643.512 246.413C651.186 242.781 654.835 237.57 652.13 229.857C649.942 223.62 646.098 219.145 637.666 222.756C636.607 223.206 632.606 220.924 632.466 219.701C631.36 210.29 636.065 193.151 651.443 192.164C656.698 197.975 652.641 202.842 650.345 208.394C648.89 211.902 648.587 217.619 650.767 220.237C654.114 224.246 657.487 230.377 666.446 225.747C677.013 220.282 679.212 222.716 680.338 236.314C688.531 241.825 698.391 245.275 701.667 251.575C704.82 257.673 701.231 266.688 700.694 273.484C696.151 274.895 693.417 275.777 690.642 276.596C692.301 278.87 693.808 281.256 695.656 283.385C704.782 293.946 712.338 286.654 721.799 279.374C727.007 288.986 731.456 297.352 736.079 305.628C737.641 308.428 739.658 311.02 741.455 313.696C742.74 315.603 744.527 317.376 745.22 319.447C757.149 315.784 777.968 340.528 777.968 340.528L774.752 300.494C774.752 300.494 782.042 303.833 797.204 304.825C771.614 279.574 746.528 253.886 720.547 228.983C695.683 205.152 669.034 183.121 638.448 165.388C629.373 160.125 622.271 152.017 613.674 145.929C601.438 137.254 588.36 129.605 576.285 120.75C572.424 117.923 570.16 112.865 567.994 108.49C564.882 102.203 562.256 95.7283 560.135 89.112C559.568 87.354 561.29 83.3429 562.705 83.0209C569.979 81.3667 584.522 90.6785 588.12 100.218L572.941 93.6038C577.101 98.3507 579.355 101.231 581.955 103.846C588.075 110.005 593.696 116.744 600.704 121.85C609.91 128.555 620.434 133.681 630.055 139.931C637.445 144.756 646.445 148.26 646.945 158.828C647.227 164.624 659.987 170.011 667.229 167.463C677.941 163.64 687.69 160.434 699.935 165.522C707.209 168.525 716.88 166.291 725.477 166.67C744.186 167.486 754.754 179.664 752.225 196.796C751.404 202.311 752.001 208.037 751.365 213.57C750.973 217.008 748.833 220.297 748.698 223.706C748.345 229.549 748.745 235.41 749.89 241.169C750.088 242.096 759.128 243.211 759.764 242.097C767.138 229.167 780.407 229.625 793.542 227.122C808.664 224.246 822.821 224.909 836.824 229.641C840.422 230.966 843.826 232.687 846.961 234.765C847.548 235.137 848.136 235.508 848.72 235.889C859.731 225.984 871.005 214.257 877.872 202.727C870.623 201.573 863.459 200.017 856.42 198.068C855.526 197.818 854.626 197.556 853.736 197.296C849.827 196.137 845.98 194.851 842.197 193.437C827.596 187.939 814.173 180.405 803.026 170.471C793.705 162.167 783.876 153.696 773.489 145.184C756.606 146.703 739.726 148.242 722.851 149.8C712.922 150.719 709.203 144.734 707.858 137.375C705.088 122.214 702.268 107.042 699.923 91.8193C695.12 88.7842 690.229 85.7782 685.251 82.8013C688.018 93.5052 690.624 104.254 693.373 114.957C694.64 119.905 695.334 124.968 696.741 132.277C686.836 127.788 679.323 124.815 672.265 121.091C655.701 112.358 637.909 104.735 631.823 85.608C631.104 83.3337 628.018 81.6499 626.133 79.7034C608.594 61.8466 586.098 52.909 561.291 47.7786C556.381 46.7814 550.839 44.2538 547.703 40.8078C539.803 32.1236 532.007 23.3709 524.429 14.4942C505.055 9.21516 484.741 4.66697 463.486 0.849609C468.92 5.49367 475.011 10.2884 476.718 15.9332C479.216 24.1636 482.151 25.6247 490.512 25.1567C508.165 24.1842 518.558 31.2135 519.661 43.8818C517.363 44.3157 514.979 45.025 512.601 45.1667C490.788 46.6075 468.964 48.0448 447.133 49.2627C440.02 49.6627 432.364 51.0017 425.8 49.1859C395.044 40.6895 364.371 31.8468 338.009 13.6668C335.785 12.135 332.275 11.7379 329.347 11.667C324.271 11.5368 318.623 13.4963 314.241 11.9727C312.334 11.2663 310.536 10.3378 308.894 9.21089L35.602 125.216C24.0722 142.614 14.0415 160.793 5.59925 179.59C6.736 178.754 7.95043 178.01 9.22893 177.364ZM254.957 165.413C255.97 155.477 260.369 153.482 266.654 156.594C268.472 157.494 269.104 160.483 270.278 162.516L254.957 165.413ZM524.96 271.959C525.184 274.857 526.585 278.331 525.366 280.544C523.342 284.158 519.625 286.962 516.039 290.649C505.392 284.182 510.912 278.423 516.028 273.481C517.708 271.82 521.907 272.395 524.96 271.959ZM542.796 145.34L540.76 160.367L535.248 159.65L538.149 144.629C539.697 144.871 541.25 145.104 542.796 145.34ZM683.691 139.106C682.99 139.826 682.283 140.548 681.579 141.277L662.095 126.236C662.977 125.256 663.862 124.281 664.748 123.31L683.691 139.106ZM440.455 110.829C442.579 105.318 444.354 99.6762 447.006 94.3707C447.798 92.7764 450.859 92.1698 452.872 91.0843C453.852 93.3356 456.374 96.4611 455.563 97.697C452.026 103.076 447.522 107.909 443.368 112.945L440.455 110.829ZM521.39 60.3445C527.379 61.0827 533.194 63.0329 539.181 63.9388C544.619 64.7514 551.59 66.896 555.42 64.7527C564.73 59.5269 572.809 60.365 582.75 63.2232C592.202 65.9702 601.583 66.9804 602.358 80.1539C596.278 79.6458 590.593 79.137 584.909 78.6993C572.09 77.7 558.919 74.8833 546.436 76.3365C534.939 77.6738 527.031 73.8014 518.819 68.3384C517.299 67.3357 515.392 64.3954 515.884 63.7166C516.983 62.1358 519.63 60.1522 521.404 60.3706L521.39 60.3445Z" fill="#05003E"/>
</svg>
