<svg width="1351" height="275" viewBox="0 0 1351 275" fill="none" xmlns="http://www.w3.org/2000/svg">
<path d="M1345.75 314.731C1346.2 320.054 1348.82 325.379 1355.47 328.022C1355.8 328.145 1356.38 328.3 1356.42 328.534C1357.58 337.724 1366.78 341.527 1370.24 349.161C1370.93 350.681 1376.65 352.9 1378.14 353.442C1379.62 353.985 1380.69 355.58 1381.51 356.977C1381.89 357.616 1381.27 358.891 1381 359.849C1380.73 360.806 1380.35 361.68 1379.55 363.809C1381.81 361.281 1383.23 359.693 1385.64 356.998C1389.31 363.801 1392.45 369.923 1395.89 375.87C1397.18 378.104 1399.2 379.915 1400.83 381.961C1404.01 385.979 1407.42 389.79 1410.16 394.078C1412.32 397.465 1416.07 400.523 1413.86 405.68C1413.39 406.774 1415.08 408.852 1415.91 410.393C1416.74 411.935 1417.66 413.242 1418.82 415.079L1421.9 410.713C1424.13 415.276 1425.96 420.182 1428.76 424.487C1433.18 431.273 1438.25 437.652 1443.02 444.207C1443.47 444.836 1443.87 445.499 1444.2 446.191C1446.58 451.107 1448.92 456.029 1451.23 460.826L1456.89 459.662C1456.27 460.764 1455.16 461.873 1455.17 462.967C1455.2 464.69 1455.99 466.382 1456.92 469.686C1453.74 466.515 1451.52 464.717 1449.82 462.537C1445.39 456.887 1441.17 451.044 1436.81 445.325C1435.39 443.432 1433.17 441.823 1432.54 439.711C1429.15 428.455 1421.57 420.49 1411.88 412.642C1411.04 416.462 1410.39 419.769 1409.59 423.063C1405.71 438.747 1401.23 454.319 1398.05 470.143C1395.69 481.943 1390.06 491.676 1383.31 501.251C1381.92 503.428 1381.01 505.878 1380.65 508.435C1379.07 517.455 1378.33 526.656 1376.11 535.503C1375.08 539.626 1371.88 543.538 1368.82 546.762C1363.4 552.433 1357.67 557.79 1351.64 562.805C1349.67 564.471 1346.66 565.2 1343.99 565.655C1341.95 566.029 1339.7 565.359 1337.25 565.121L1322.06 530.874L1316.58 541.228C1311.11 530.228 1313.78 518.247 1310.73 506.81C1307.88 510.108 1305.42 512.945 1302.96 515.783L1301.25 514.645C1303.04 511.763 1304.38 508.392 1306.76 506.123C1310.22 502.815 1315.08 501.132 1316.29 495.461C1316.61 493.926 1320.34 493.315 1322.18 491.862C1324.16 490.298 1325.79 488.235 1328.54 485.381C1323.13 486.179 1319.15 486.772 1314.85 487.416L1315.27 484.251L1305.54 488.847L1305.32 487.774C1303.69 490.416 1302.06 493.058 1300.37 495.814C1295.2 491.203 1293.68 491.541 1291.81 497.35C1288.43 496.869 1288.1 490.269 1283.22 492.893C1283 491.226 1282.37 489.512 1282.61 487.902C1283.25 485.193 1284.04 482.524 1284.99 479.909L1286.37 480.505L1290.22 459.384C1282.12 459.124 1280.11 465.476 1275.44 471.915L1271.47 461.531C1268.59 464.437 1267.35 461.647 1265.13 458.953C1257.67 449.943 1249.61 441.45 1242.03 432.536C1234.92 424.157 1231.58 414.177 1231.09 403.279C1230.92 400.699 1231.22 398.11 1231.99 395.641C1234.48 388.355 1236.41 381.116 1233.74 373.474C1233.31 372.482 1232.8 371.526 1232.22 370.614L1224.39 374.172C1223.83 364.357 1228.91 358.016 1232.77 351.462C1236.72 344.746 1241.66 338.609 1245.77 331.849C1236.62 335.834 1233.16 345.459 1225.45 353.147C1228.91 333.326 1230.62 314.688 1235.76 297.04C1240.99 279.127 1245.99 261.306 1248.03 242.27C1246.93 244.349 1246.06 246.005 1244.81 248.374C1232.86 239.544 1224.95 228.221 1219.34 214.842C1223.73 223.03 1230.35 226.532 1239.53 227.303C1242.53 227.557 1245.13 232.599 1248.15 235.698C1248.29 235.566 1249.32 235.018 1250.3 234.438C1250.22 234.97 1250.14 235.495 1250.07 236.035C1252.09 236.565 1254.52 238.097 1256.06 237.476C1263.94 234.181 1270.81 235.734 1276.16 242.191C1277.77 244.121 1280.37 245.269 1282.49 247.584L1275.33 245.823L1300.8 263.79C1301.32 263.321 1301.83 262.851 1302.31 262.409L1300.23 258.447C1302.72 256.334 1304.43 257.292 1306.34 260.306C1311.32 268.144 1316.67 275.816 1321.99 283.423C1322.81 284.609 1324.33 285.312 1326.8 287.157L1324.29 280.839C1327.81 283.163 1328.24 284.405 1327.82 288.707C1327.87 289.666 1328.18 290.594 1328.71 291.394C1332.1 297.845 1335.32 304.404 1339.09 310.626C1340.1 312.436 1342.88 313.078 1345.75 314.731ZM1370.34 354.918C1368.03 354.52 1367.12 354.328 1366.19 354.223C1361.83 353.721 1355.77 352.898 1355.53 348.734C1355.18 342.655 1351.59 342.925 1348.01 341.755C1345.98 341.051 1344.11 339.349 1342.06 339.122C1340.01 338.894 1336.66 339.103 1335.58 340.466C1333.16 343.494 1335.23 351.139 1338.48 353.611C1341.28 355.738 1344.94 357.165 1344.1 361.838C1344.01 362.276 1345.01 363.304 1345.59 363.467C1350.64 364.534 1353.09 368.173 1355.17 372.41C1356.02 374.162 1357.33 376.108 1359.71 373.592C1359.92 373.399 1361.76 375.252 1362.72 375.135C1365.41 374.708 1368.08 374.119 1370.7 373.371C1369.93 371.898 1369.12 370.451 1368.41 368.951C1367.7 367.451 1367.09 365.999 1366.14 363.692L1370.83 365.786C1370.66 364.575 1370.4 363.38 1370.04 362.213C1369.16 360.004 1363.95 358.481 1370.34 354.918ZM1321.71 512.225C1317.73 516.089 1319.84 520.074 1321.26 523.827C1321.65 524.85 1323.57 526.164 1324.3 525.921C1325 525.666 1325.63 525.257 1326.15 524.725C1326.66 524.192 1327.05 523.55 1327.29 522.846C1328.01 518.29 1328.06 513.719 1321.71 512.225ZM1296.95 302.827L1299.4 303.477C1300.69 300.35 1302.49 297.245 1303.07 293.956C1303.22 293.137 1299.55 291.631 1296.01 289.443L1296.95 302.827ZM1302.93 266.069L1300.92 267.71L1308.57 276.453L1310.24 275.043L1302.93 266.069Z" fill="#05003E"/>
<path d="M1248.63 216.209C1252.28 217.845 1256.52 215.049 1257.06 210.109C1265.55 217.579 1272.24 227.061 1283.37 231.116L1282.38 235.646C1278.02 233.328 1273.89 230.361 1269.28 228.922C1266.39 228.036 1262.79 229.528 1259.5 229.818C1258.19 229.906 1255.93 230.212 1255.56 229.574C1253 225.214 1250.86 220.656 1248.63 216.209Z" fill="#05003E"/>
<path d="M1220.12 173.26C1221.52 173.814 1222.96 174.325 1224.33 174.942C1226.53 175.928 1229.19 176.508 1230.74 178.139C1233.26 180.774 1235.45 182.86 1239.24 180.884L1239.13 180.771L1238.97 185.279L1239.19 185.224L1228.64 184.176L1231.18 188.947C1233 188.195 1234.59 187.548 1236.21 186.866L1235.65 192.5L1242.31 197.98L1241.67 199.045L1233.81 194.526L1233.27 195.276L1244.24 203.014C1242.4 204.706 1241.04 205.949 1240.4 206.609L1226.88 189.605L1226.91 189.839C1225.17 186.332 1223.3 182.879 1221.75 179.309C1221.04 177.339 1220.5 175.317 1220.12 173.26Z" fill="#05003E"/>
<path d="M1444.78 404.919C1428.13 397.982 1418.96 383.108 1408.9 368.529C1410.74 369.608 1413.6 370.283 1414.23 371.852C1415.83 375.808 1418.38 377.54 1422.31 378.805C1424.34 379.509 1425.74 382.414 1427.39 384.353C1431.83 389.46 1436.26 394.553 1440.63 399.701C1442.04 401.362 1443.26 403.173 1444.6 404.911L1444.78 404.919Z" fill="#05003E"/>
<path d="M1303.35 542.103C1301.73 537.777 1299.88 533.868 1294.2 536.825C1290.48 530.519 1296.32 526.375 1297.19 519.792L1305.01 541.264L1303.35 542.103Z" fill="#05003E"/>
<path d="M1285.77 499.972C1288.72 503.567 1291.71 507.142 1294.61 510.785C1297.23 514.106 1295.75 516.48 1291.9 519.705L1284.75 500.325L1285.77 499.972Z" fill="#05003E"/>
<path d="M1394.01 355.598L1393.65 348.983C1402.77 347.783 1400.11 359.049 1406.71 360.307L1405.21 362.434L1394.01 355.598Z" fill="#05003E"/>
<path d="M1492.15 422.866C1484.5 423.819 1481.32 420.308 1479.92 410.493C1483.87 409.768 1485.82 411.221 1486.36 415.333C1486.53 416.737 1488.26 417.942 1489.28 419.238L1492.15 422.866Z" fill="#05003E"/>
<path d="M1286.31 244.638C1287.51 244.264 1288.77 243.87 1290.02 243.469C1290.25 249.688 1303.62 246.531 1298.8 256.343C1292.27 255.283 1289.13 250.102 1286.31 244.638Z" fill="#05003E"/>
<path d="M1441.53 415.689C1439.54 422.455 1437.39 429.199 1443.71 435.618L1441.32 436.115C1439.05 430.422 1436.65 424.774 1434.71 418.973C1434.5 418.326 1436.84 416.526 1438.24 415.741C1439.08 415.292 1440.43 415.815 1441.55 415.871L1441.53 415.689Z" fill="#05003E"/>
<path d="M1245.13 219.53L1229.72 208.682L1231.02 206.799L1246.4 217.668C1245.95 218.241 1245.54 218.889 1245.13 219.53Z" fill="#05003E"/>
<path d="M1362.12 325.417C1356.31 324.888 1352.57 322.684 1350.56 317.986C1350.18 317.109 1350.59 315.896 1350.64 314.842C1351.91 315.064 1353.63 314.763 1354.28 315.486C1356.91 318.394 1359.13 321.625 1362.12 325.417Z" fill="#05003E"/>
<path d="M1231.19 213.819L1238.68 224.082C1231.79 224.866 1229 221.191 1231.19 213.819Z" fill="#05003E"/>
<path d="M1451.6 391.243L1442.8 386.018C1443.16 385.396 1443.51 384.775 1443.86 384.154C1448.17 383.257 1451.2 384.822 1452.79 389.19L1451.6 391.243Z" fill="#05003E"/>
<path d="M1473.04 452.126C1456.21 441.556 1439.29 430.91 1423.81 418.467C1420.39 415.719 1422.69 405.624 1422.2 398.88C1422.08 397.942 1421.68 397.061 1421.05 396.355C1409.06 382.27 1397.5 367.755 1384.86 354.293C1367.99 336.297 1344.04 323.737 1352.74 290.607C1355.92 278.61 1357.21 275.896 1367.69 280.775C1387.35 289.935 1406.54 300.659 1427 307.299C1438.37 310.973 1448.01 314.398 1454.91 324.519C1456.36 326.652 1459.21 327.79 1459.76 328.198C1465.13 326.493 1469.37 323.553 1472.55 324.423C1481.64 326.883 1490.57 330.037 1499.47 333.227C1468.02 279.497 1419.45 225.519 1341.03 170.075C1323.32 163.512 1306.22 157.344 1289.36 150.615C1282.62 147.925 1273.96 145.209 1270.59 139.67C1266.09 132.266 1261.77 124.74 1257.55 117.152C1229.61 101.14 1198.84 84.9504 1165.24 68.5838C1169.26 77.5974 1173.35 86.7973 1177.51 96.1836C1187.72 104.163 1198.03 112.053 1208.28 119.976L1207.53 121.159C1216.99 121.094 1198.91 149.722 1208.28 148.5C1214 134.5 1223.44 157.667 1214.15 175.3C1213.27 175.009 1212.4 174.731 1211.52 174.454C1220.91 196.465 1230.23 218.675 1239.23 240.618C1255.37 267.034 1269.17 295.801 1297.05 312.766C1300.34 314.77 1302.76 319 1304.57 322.712C1317.73 350.148 1337.55 370.922 1364.06 386.098C1367.15 383.881 1370.38 381.57 1375.43 377.955C1395.48 400.989 1415.45 423.499 1434.81 446.547C1439.07 451.61 1443.67 458.57 1443.74 464.724C1443.81 479.271 1453.54 484.495 1463.43 488.639C1472.06 492.287 1477.06 511.494 1490.99 496.56C1491.54 495.969 1494.43 497.289 1496.01 498.147C1499.94 500.331 1504.01 502.339 1508 504.468L1518.61 494.743L1488.5 451.587C1480.72 451.97 1475.79 453.86 1473.04 452.126ZM1258.59 167.308C1259.37 166.163 1260.14 165.01 1260.95 163.837C1266.24 167.035 1271.92 169.759 1276.47 173.836C1277.48 174.756 1274.18 180.618 1272.36 185.618L1258.59 167.308ZM1311.63 282.274C1310.72 274.021 1312.31 265.523 1312.26 257.12C1312.22 252.436 1312.11 246.881 1309.77 243.248C1300.18 228.247 1289.68 213.873 1279.47 199.193L1303.36 200.723L1337.23 244.593L1319.56 269.82C1320.69 271.36 1322.49 272.684 1322.61 274.143C1322.95 278.601 1322.64 283.117 1322.59 287.602C1318.75 285.849 1311.89 284.464 1311.65 282.297L1311.63 282.274Z" fill="#05003E"/>
<path d="M1536.53 474.65C1536.58 475.868 1536.56 477.076 1536.5 478.296L1549.4 466.472C1548.76 463.318 1548.09 460.225 1547.41 457.195C1538.76 460.398 1536.18 464.96 1536.53 474.65Z" fill="#05003E"/>
<path d="M160.326 418.451C165.779 412.799 173.156 405.524 179.97 405.41C195.582 405.137 204.974 395.085 216.711 388.376C226.891 382.54 237.697 377.781 248.366 372.843C255.179 369.578 261.715 365.767 267.911 361.447C275.749 356.037 285.484 350.124 276.449 335.972C291.39 354.268 302.922 340.242 313.909 334.485C318.425 332.121 319.707 323.718 322.439 318.077L319.753 314.088C324.35 314.203 329.429 313.043 333.447 314.687C344.233 319.103 364.637 316.298 371.841 307.141C373.824 304.63 371.492 298.956 372.024 294.862C372.555 290.767 374.181 286.794 375.332 282.77C379.746 284.273 386.908 284.644 387.998 287.376C393.192 300.332 399.244 297.42 406.535 290.445C407.468 289.427 408.581 288.59 409.818 287.976C424.871 281.89 427.8 272.879 416.293 259.843C415.021 258.456 415.383 255.613 414.016 248.057C425.382 253.8 433.216 258.202 441.374 261.656C444.572 263.012 449.628 263.884 452.056 262.283C461.747 255.883 467.207 246.896 466.573 234.255C465.916 220.651 469.878 217.879 483.319 220.638C503.237 224.715 513.253 217.823 513.609 198.684C513.786 189.712 518.517 187.401 525.805 187.379C528.535 187.332 531.24 188.529 533.937 189.247C555.477 194.973 560.261 192.599 572.652 167.394L588.391 183.626C589.721 182.324 591.051 181.022 592.374 179.712L586.356 165.584C593.022 162.026 603.646 159.792 607.382 153.384C610.965 147.325 609.211 136.141 606.308 128.481C603.125 120.078 595.936 113.114 589.564 104.166C600.87 101.737 607.502 105.327 615.161 112.124C647.839 141.116 650.898 177.365 645.198 216.387C643.735 226.482 642.895 236.714 642.266 246.918C642.077 249.964 642.577 254.819 644.457 256.009C656.034 263.237 659.425 280.065 675.025 282.426C676.103 282.589 677.079 284.122 677.961 285.145C687.49 296.235 688.738 330.177 678.269 338.858C659.426 354.467 644.095 372.184 635.87 395.762C634.796 398.855 631.514 401.143 626.978 406.314C626.279 395.856 626.476 388.599 625.209 381.575C623.549 372.429 621.599 363.117 618.039 354.575C616.197 350.145 610.606 347.223 606.71 343.623C604.524 347.818 602.473 352.085 600.163 356.145C597.853 360.204 595.203 364.105 592.297 368.739C580.278 350.969 579.291 350.861 565.868 364.11C558.59 371.295 558.59 371.295 550.204 362.903C564.161 357.045 568.264 331.738 557.881 315.632C555.066 311.276 552.195 307.055 547.983 305.047C542.285 301.947 534.506 300.116 531.701 295.362C529.928 292.339 535.097 284.729 537.992 279.689C541.224 274.063 545.428 269.015 549.203 263.71L546.385 259.773C536.017 262.576 525.593 265.195 515.289 268.203C486.232 276.708 456.914 284.536 428.335 294.351C416.414 298.453 406.402 307.603 394.894 313.2C387.304 316.884 378.634 320.434 370.401 320.392C347.505 320.252 333.288 336.975 315.111 345.855C302.545 351.991 290.664 359.526 278.064 365.61C257.402 375.575 235.049 384.829 216.732 397.958C195.556 413.125 178.365 433.864 159.456 452.184L162.75 456.489C173.416 451.637 184.096 446.785 192.997 442.746C204.026 441.695 214.291 438.75 223.908 440.408C231.93 441.822 239.117 448.664 247.352 453.503L250.636 441.794C260.049 446.692 268.49 448.096 276.978 453.287C283.219 457.069 288.347 462.663 294.451 466.75C308.268 476.06 322.629 479.626 337.531 468.504C347.254 482.136 356.644 494.407 364.972 507.347C370.505 515.954 374.611 517.046 382.107 509.674C396.416 495.531 401.281 497.314 408.75 517.562C410.699 522.865 412.625 528.188 414.582 533.483C420.516 549.576 421.305 549.892 436.807 542.799C443.399 539.78 447.613 540.565 453.308 547.095C460.761 555.634 471.217 561.504 480.332 568.604C483.237 570.865 487.904 573.052 488.435 575.84C492.336 596.264 509.527 593.963 523.069 597.406C530.998 599.446 539.477 599.332 547.212 601.841C560.828 606.243 573.276 608.054 584.98 597.574C588.747 594.121 594.719 593.072 604.061 589.03C602.225 598.871 602.411 605.804 599.634 611.124C588.499 632.736 594.313 649.062 617.31 657.934C619.446 658.751 621.671 659.485 623.44 660.083C623.976 661.59 624.3 662.458 624.573 663.331L630.114 681.143C632.2 675.583 635.684 670.127 636.01 664.418C636.504 656.977 635.49 649.511 633.028 642.47C625.156 621.177 620.807 570.544 625.89 547.516L629.705 547.14C632.014 567.915 633.353 588.843 636.893 609.432C640.433 630.022 646.248 650.523 651.24 671.835C659.378 662.335 663.053 671.245 667.696 676.839C674.222 684.729 680.176 693.145 687.523 700.283C690.218 702.89 695.955 702.265 700.337 703.159C700.72 698.313 702.553 693.067 701.243 688.704C695.198 668.497 687.249 648.814 682.015 628.404C678.318 613.994 677.294 598.826 676.286 583.948C675.989 579.086 679.453 574.107 681.2 569.176C695.815 572.913 700.319 580.035 695.562 592.512C688.789 610.277 692.551 627.569 699.268 646.786C702.975 642.389 705.423 639.479 709.655 634.49C712.161 642.473 714.425 648.36 715.856 654.429C718.778 666.692 722.87 677.523 731.611 683.896C732.787 667.03 735.601 648.773 743.065 632.261C762.481 589.31 785.564 577.084 785.564 577.084C785.564 577.084 791.501 575.998 800.617 573.842C800.08 572.031 799.666 570.185 799.379 568.318C798.715 564.251 794.552 559.105 790.72 557.36C775.441 550.418 755.797 549.696 752.763 526.95C752.56 525.458 750.269 524.229 749.042 522.8C740.717 512.841 727.581 503.836 725.11 492.686C719.24 466.256 707.111 442.801 696.487 418.551C689.581 402.684 683.284 401.381 670.684 410.823C666.519 413.933 659.905 413.767 654.365 415.059C654.486 409.912 652.937 403.882 655.009 399.79C665.441 379.724 676.582 360.023 688.114 340.613C690.385 336.783 695.553 334.751 701.294 330.473C704.537 339.001 707.1 345.337 709.362 351.767C716.32 371.457 718.591 395.11 731.21 409.874C745.203 426.181 746.796 440.731 746.313 459.306C746 471.413 749.971 483.852 753.018 495.918C753.685 498.567 758.532 500.255 761.451 502.38C763.144 499.538 764.85 496.711 766.522 493.86C767.991 491.334 769.426 488.784 771.538 485.1C781.068 495.495 786.914 506.243 782.974 517.902C778.393 531.479 782.486 540.255 793.267 547.811C801.511 539.379 810.133 541.146 814.424 552.376C816.087 556.747 818.395 561.624 817.849 565.884C817.699 567.006 817.5 568.271 817.234 569.583C830.885 565.874 844.254 561.195 857.238 555.58C860.548 540.601 864.939 525.865 868.321 510.889C870.532 501.08 871.432 490.945 873.569 476.653L840.781 491.269C839.673 489.607 838.461 488.526 838.232 487.293C834.34 466.485 830.302 445.7 826.956 424.822C825.969 418.679 827.035 412.264 827.127 405.936C832.214 408.46 837.352 410.949 842.469 413.431C842.888 413.63 843.386 413.644 843.813 413.822C859.697 420.682 863.608 428.791 859.34 445.371C857.89 450.973 856.954 456.714 856.029 461.211L874.787 470.722C876.708 466.464 878.73 460.851 881.655 455.783C886.333 447.652 891.912 446.81 897.171 455.738C899.065 458.954 900.114 462.654 901.792 466.013C907.4 477.243 918.83 480.333 928.862 474.245L957.342 435.54C957.342 435.54 949.536 428.628 939.964 419.2C935.851 417.134 931.417 415.78 926.852 415.197C921.974 414.535 914.469 410.371 913.47 406.529C908.177 386.173 896.553 374.673 879.452 374.714C873.565 362.075 869.062 351.9 864.057 341.963C862.696 339.501 860.558 337.558 857.979 336.436C846.602 331.785 835.046 327.589 825.741 324.063C829.859 315.835 835.702 309.534 835.167 303.671C834.666 298.179 826.436 288.354 823.321 288.92C816.765 290.116 808.131 295.672 806.075 301.567C801.423 314.946 793.908 312.374 783.521 309.09L788.815 290.891C782.159 293.538 775.878 294.037 773.367 297.408C764.571 309.231 752.519 305.809 741.603 304.066C734.338 302.901 727.511 297.769 730.823 287.768C731.239 286.499 731.619 284.569 730.985 283.68C719.706 267.868 731.945 262.281 741.859 254.704C746.334 251.282 748.583 244.947 753.707 237.06L764.084 238.049C757.71 224.608 750.278 221.779 742.797 231.467C730.796 246.991 720.316 263.799 710.281 280.698C704.963 289.582 701.808 299.814 697.115 310.803C687.561 281.52 673.58 254.381 671.258 226.543C669.422 204.544 681.167 181.388 689.02 159.553C690.039 156.732 704.711 157.294 712.221 159.482C718.667 161.356 723.911 167.787 730.894 173.136C735.722 169.736 741.245 165.839 747.291 161.574C757.923 168.377 756.645 178.221 755.832 188.663C755.213 196.639 756.221 204.954 757.678 212.956C759.439 222.44 763.566 228.077 775.244 224.419C781.12 222.571 788.562 225.335 794.49 225.978C790.26 240.315 788.049 254.149 782.048 265.949C778.011 273.812 776.257 280.247 784.816 281.946C789.84 282.889 799.639 276.82 801.534 271.642C812.296 242.271 821.392 212.248 830.823 182.362C832.33 177.623 831.873 172.119 833.831 167.66C835.621 163.563 838.886 159.002 842.707 157.317C844.589 156.48 850.049 161.061 852.371 164.274C855.034 167.965 856.127 172.818 857.694 177.235C865.306 198.698 881.429 202.522 897.952 198.599C896.841 212.103 895.161 225.033 895.005 238.037C894.937 243.302 897.339 249.174 900.101 253.926C906.521 264.953 912.157 264.961 919.417 254.851C920.71 253.055 922.136 251.373 923.614 249.491C937.239 267.273 936.57 269.357 925.251 286.837C922.102 291.721 924.566 300.353 924.456 307.266C929.467 305.654 934.538 304.183 939.451 302.342C941.525 301.579 943.315 299.993 945.658 298.526L938.756 284.75C959.324 289.036 960.84 286.772 955.633 267.419C954.093 261.701 955.559 255.238 955.657 249.113L960.605 248.461L967.143 268.314C975.008 260.452 977.269 251.997 970.678 242.599C965.347 234.999 958.736 230.419 949.933 238.544C948.826 239.559 942.952 238.007 942.261 236.406C936.91 224.095 935.399 199.093 953.83 191.853C962.739 197.699 959.833 205.842 959.376 214.238C959.082 219.544 961.138 227.398 964.922 230.103C970.727 234.243 977.465 241.246 986.481 231.538C997.113 220.086 1000.84 222.535 1008 240.505C1020.38 244.816 1033.93 245.698 1040.62 252.967C1047.08 260.008 1046.5 273.587 1048.73 282.99C1043.76 286.644 1040.79 288.887 1037.73 291.062C1040.73 293.501 1043.59 296.152 1046.76 298.324C1062.43 309.111 1068.6 296.341 1077.1 282.856C1087.57 293.864 1096.58 303.477 1105.76 312.902C1108.86 316.091 1112.43 318.824 1115.77 321.756C1118.16 323.843 1121.1 325.556 1122.83 328.092C1135.9 318.555 1171.92 344.046 1171.92 344.046L1150.98 291.102C1150.98 291.102 1161.33 292.821 1180.34 288.341C1138.25 263.996 1096.59 238.866 1054.17 215.142C1013.57 192.44 971.553 172.859 926.532 160.607C913.172 156.969 901.024 148.724 887.901 143.786C869.218 136.746 849.94 131.416 831.378 124.07C825.444 121.727 820.522 115.752 816.009 110.663C809.525 103.35 803.556 95.5955 798.146 87.4563C796.706 85.2947 797.113 79.2053 798.711 78.2259C806.924 73.1942 828.706 80.2108 837.166 91.739L815.752 88.6171C822.866 93.4437 826.853 96.4763 831.15 99.016C841.268 105.001 851.018 111.962 861.777 116.181C875.909 121.72 890.986 124.615 905.434 129.379C916.541 133.07 929.061 134.356 934.162 148.465C936.968 156.201 954.897 158.591 962.691 152.362C974.199 143.075 984.787 134.992 1001.96 137.176C1012.15 138.446 1023.06 131.709 1033.75 128.921C1057.04 122.84 1075.16 135.261 1079.33 159.417C1080.67 167.197 1083.83 174.716 1085.4 182.448C1086.38 187.252 1085.16 192.524 1086.44 197.19C1088.49 205.233 1091.47 213.011 1095.31 220.365C1095.95 221.543 1107.51 219.581 1107.81 217.829C1111.36 197.498 1127.82 193.023 1142.86 184.592C1160.17 174.893 1177.81 170.353 1196.98 171.38C1201.96 171.791 1206.86 172.812 1211.58 174.421C1212.46 174.698 1213.34 174.975 1214.22 175.267C1223.51 157.633 1232.35 137.433 1235.87 119.193C1226.49 120.415 1217.05 121.06 1207.6 121.126C1206.39 121.131 1205.18 121.121 1203.98 121.112C1198.69 121.045 1193.43 120.781 1188.19 120.32C1167.96 118.488 1148.31 113.445 1130.43 104.284C1115.48 96.6252 1099.83 88.9363 1083.48 81.4048C1063.43 89.9445 1043.4 98.5089 1023.37 107.098C1011.59 112.155 1004.49 105.483 999.718 96.0413C989.884 76.5873 979.986 57.1376 970.648 37.4376C963.471 35.1747 956.199 32.9849 948.833 30.8682C956.77 44.2911 964.529 57.8365 972.444 71.2657C976.098 77.4749 979.099 84.0607 983.927 93.4112C969.878 91.1397 959.406 90.0015 949.174 87.6725C925.162 82.2154 900.116 78.732 884.533 55.1841C882.686 52.3825 878.189 51.2886 875.052 49.3785C845.97 31.9481 814.599 28.4919 782.013 31.0755C775.571 31.6114 767.703 30.3194 762.397 26.8599C749.025 18.1416 735.753 9.29014 722.694 0.1875C696.704 0.48347 669.872 2.12957 642.197 5.12573C650.829 9.32399 660.332 13.4735 664.821 20.4574C671.379 30.6361 675.597 31.4863 685.647 27.642C706.872 19.5469 722.597 25.0685 729.328 41.789C726.696 43.2586 724.075 45.1339 721.22 46.2391C695.093 56.5657 668.953 66.8916 642.709 76.9236C634.159 80.1968 625.343 84.9489 616.527 85.0119C575.218 85.3253 533.865 85.1374 493.831 70.6579C490.454 69.4393 485.983 70.2495 482.364 71.278C476.086 73.0512 463.977 77.4929 463.977 77.4929C463.977 77.4929 356.629 110.196 301.5 153.384C231.973 207.853 177.255 309.777 170.51 337.75C163.764 365.723 159.188 394.177 156.821 422.857C157.86 421.29 159.033 419.816 160.326 418.451ZM456.463 307.911C453.485 294.075 458.031 289.686 467.056 291.485C469.668 292.004 471.71 295.806 474.013 298.107L456.463 307.911ZM832.671 348.412C834.177 352.248 837.369 356.411 836.814 359.874C835.868 365.542 832.502 370.764 829.673 377.132C813.876 372.468 818.196 362.555 822.369 353.902C823.724 351.009 829.114 350.174 832.671 348.412ZM800.768 170.208L804.654 191.327L797.593 192.472L794.77 171.031C796.772 170.764 798.774 170.483 800.768 170.208ZM970.829 107.665C970.276 108.907 969.716 110.157 969.162 111.413L938.893 98.5403C939.558 96.8761 940.228 95.2169 940.902 93.5628L970.829 107.665ZM660.666 162.806C660.929 154.533 660.709 146.216 661.707 138.017C662.001 135.556 665.496 133.559 667.503 131.317C669.66 133.987 674.078 137.249 673.609 139.233C671.557 147.87 668.088 156.141 665.135 164.55L660.666 162.806ZM738.438 63.4039C746.092 62.1033 754.049 62.5092 761.773 61.436C768.784 60.4474 778.239 60.6728 782.023 56.3013C791.217 45.6538 801.476 43.6855 814.875 43.7361C827.628 43.8236 839.555 41.5884 846.1 59.1184C838.431 60.7657 831.246 62.2605 824.093 63.8507C807.955 67.4214 790.614 68.6674 775.93 75.4277C762.405 81.6526 751.067 79.449 738.681 75.2095C736.392 74.4364 732.806 71.1897 733.121 70.0819C733.796 67.5209 736.199 63.8198 738.466 63.4341L738.438 63.4039Z" fill="#05003E"/>
</svg>
