<svg width="1552" height="595" viewBox="0 0 1552 595" fill="none" xmlns="http://www.w3.org/2000/svg">
<path d="M85.2177 331.592C88.9964 332.267 92.3691 334.373 94.6341 337.472C99.9262 344.436 105.467 351.221 110.711 358.164C118.274 368.22 125.698 378.331 133.123 388.442C138.122 394.684 142.559 401.356 146.381 408.38C147.398 410.428 148.818 412.248 150.556 413.733C152.295 415.217 154.315 416.335 156.497 417.019C157.224 417.217 157.988 417.236 158.724 417.075C159.46 416.914 160.146 416.577 160.724 416.093C163.335 413.277 164.896 409.648 165.144 405.817C165.417 402.784 165.525 399.739 165.467 396.695C165.525 393.264 166.174 389.868 167.384 386.657C168.379 383.362 170.123 380.342 172.481 377.835C174.838 375.328 177.745 373.401 180.972 372.207C183.801 371.079 186.822 370.435 189.712 369.563C190.077 369.481 190.418 369.315 190.706 369.076C190.994 368.837 191.222 368.533 191.37 368.189C191.518 367.845 191.582 367.471 191.557 367.098C191.532 366.724 191.419 366.362 191.226 366.041L187.31 356.41L180.665 340.631C178.08 333.806 178.032 326.279 180.529 319.421C180.762 318.684 181.068 317.973 181.442 317.298C182.206 315.971 183.405 314.951 184.837 314.409C186.268 313.868 187.843 313.839 189.292 314.329C192.09 315.532 194.59 317.293 197.194 318.813C197.513 319.004 197.87 319.12 198.24 319.153C198.609 319.186 198.982 319.135 199.329 319.005C199.676 318.874 199.99 318.666 200.246 318.398C200.502 318.129 200.694 317.806 200.808 317.453C201.939 314.639 202.843 311.739 203.509 308.781C203.911 306.902 203.836 304.952 203.291 303.11C202.746 301.267 201.747 299.591 200.387 298.234C198.335 296.001 196.108 293.935 193.729 292.054C190.011 289.32 187.48 285.266 186.657 280.723C186.335 279.213 186.11 277.744 185.857 276.206C185.604 274.668 186.419 273.703 187.357 273.649C191.162 273.571 194.934 273.307 198.85 273.505C202.766 273.703 204.493 275.932 204.266 280.179C204.106 281.657 204.097 283.147 204.239 284.627C204.391 284.928 204.613 285.188 204.886 285.385C205.16 285.582 205.476 285.711 205.81 285.76C208.727 284.957 211.556 283.829 214.473 283.026C215.601 282.796 216.775 282.977 217.781 283.536C218.788 284.094 219.562 284.994 219.964 286.074C220.844 289.372 221.461 292.734 221.811 296.13C222.298 300.678 223.587 305.103 225.619 309.201C225.749 309.563 225.961 309.889 226.238 310.154C227.085 310.829 228.01 311.399 228.994 311.853C229.573 312.102 231.023 310.325 231.045 309.477C231.123 307.567 231.202 305.657 231.191 303.823C231.179 301.988 231.182 299.989 231.336 298.169C231.376 297.815 231.49 297.474 231.671 297.167C231.852 296.861 232.096 296.596 232.387 296.391C232.709 296.244 233.059 296.171 233.413 296.175C233.767 296.179 234.116 296.26 234.434 296.414C237.341 297.914 239.647 300.363 240.97 303.355C242.292 306.347 242.552 309.702 241.706 312.862C241.177 315.087 240.368 317.236 239.297 319.258C238.51 321.005 237.179 322.45 235.502 323.378C233.826 324.306 231.894 324.666 229.997 324.405C228.101 324.161 226.205 323.917 224.489 323.922C223.347 324.003 222.263 324.456 221.402 325.21C220.541 325.965 219.95 326.98 219.719 328.102C219.221 336.578 221.672 344.965 226.656 351.838C229.49 355.984 233.82 358.871 238.737 359.893C239.667 360.055 240.624 359.907 241.462 359.472C242.3 359.037 242.972 358.339 243.374 357.485C244.43 355.424 244.639 353.031 243.955 350.818C243.015 347.955 241.888 345.126 240.761 342.298C239.597 339.51 238.941 336.536 238.822 333.517C238.665 330.068 239.795 326.682 241.993 324.019C247.684 317.034 250.484 316.238 258.539 319.702C260.661 320.615 262.735 321.507 264.809 322.399C265.448 322.597 266.12 322.664 266.786 322.594C267.451 322.524 268.095 322.32 268.679 321.994C269.263 321.668 269.775 321.226 270.183 320.696C270.591 320.166 270.887 319.559 271.053 318.911C271.887 315.98 272.486 312.988 272.845 309.962C272.967 308.836 273.356 307.756 273.981 306.811C274.606 305.866 275.449 305.085 276.437 304.533C278.949 302.812 281.648 301.057 284.27 299.612C286.891 298.167 289.335 296.074 291.633 294.319C293.922 292.584 295.722 290.286 296.857 287.647C297.992 285.009 298.423 282.121 298.107 279.267C297.935 276.987 297.632 274.719 297.2 272.473C296.74 269.099 295.879 265.793 294.635 262.623C293.247 259.739 289.233 260.3 286.781 258.559C285.913 258.186 285.226 256.461 285.627 255.662C285.748 255.314 285.894 254.975 286.063 254.648C287.77 251.234 290.177 248.218 293.128 245.796C294.541 244.492 296.293 243.614 298.184 243.263C300.074 242.913 302.025 243.105 303.81 243.817C308.371 245.724 312.578 248.384 316.258 251.686C316.555 251.905 316.896 252.059 317.258 252.137C317.62 252.216 317.994 252.217 318.356 252.141C318.718 252.064 319.06 251.912 319.359 251.694C319.658 251.476 319.908 251.198 320.092 250.877C324.233 242.711 328.45 234.634 332.35 226.364C335.45 219.837 339.096 213.584 343.249 207.67C343.648 207.032 344.196 206.501 344.847 206.124C345.497 205.746 346.23 205.532 346.982 205.502C352.268 204.797 357.224 202.529 361.214 198.99C365.978 195.198 370.404 191 374.441 186.442C375.407 185.279 376.479 184.209 377.645 183.247C378.162 182.84 379.038 182.931 379.789 182.911C380.541 182.891 380.106 183.505 380.098 183.787C379.706 192.937 379.335 202.039 378.895 211.168C378.71 215.319 378.504 219.518 378.415 223.711C378.357 225.972 379.528 226.705 382.204 226.198C387.41 225.121 392.645 224.114 397.858 223.155C398.564 223.254 399.23 223.541 399.787 223.985C400.029 224.089 400.069 224.792 399.945 225.082C399.555 226.125 399.017 227.106 398.348 227.996C369.188 260.046 340.799 292.827 310.799 324.172C299.715 335.679 288.198 346.732 276.246 357.332C262.288 369.716 247.464 381.088 231.888 391.363C225.533 395.476 219.642 400.263 214.315 405.643C206.211 413.687 197.433 421.024 188.079 427.573C179.894 433.314 172.15 439.359 164.131 445.114C158.754 448.786 154.617 454.003 152.265 460.076C149.352 467.913 146.197 475.646 143.167 483.489C142.174 485.994 142.051 488.76 142.818 491.343C143.092 492.454 143.76 493.427 144.697 494.082C145.634 494.738 146.778 495.031 147.915 494.907C150.543 494.401 153.102 493.582 155.536 492.469C160.709 489.991 165.203 486.293 168.63 481.693C170.067 479.681 170.995 476.993 170.223 476.661C168.679 475.998 167.361 476.803 165.982 477.353C164.602 477.903 163.167 478.315 161.685 478.706C161.494 478.711 161.305 478.675 161.13 478.599C160.955 478.524 160.799 478.412 160.672 478.27C160.587 478.127 160.534 477.968 160.516 477.802C160.498 477.637 160.517 477.469 160.57 477.312C161.144 475.927 161.865 474.608 162.719 473.377C167.581 467.521 172.519 461.756 177.553 456.032C183.746 449.314 190.805 443.449 198.543 438.591C207.141 432.952 215.689 427.253 224.187 421.494C226.7 419.792 229.092 417.917 231.344 415.883C233.135 414.452 234.618 412.674 235.702 410.654C236.787 408.635 237.451 406.417 237.655 404.133C237.687 403.364 237.768 402.597 237.899 401.838C238.168 400.341 238.749 398.917 239.605 397.66C240.461 396.403 241.573 395.34 242.867 394.541C245.625 392.471 248.849 391.112 252.256 390.583C255.664 390.054 259.148 390.373 262.403 391.51C265.304 392.472 268.143 393.579 271.017 394.472C278.613 397.221 286.951 397.109 294.472 394.156C300.88 391.782 307.726 390.826 314.539 391.353C319.466 391.614 324.404 391.58 329.327 391.254C336.624 390.711 343.44 387.408 348.389 382.017C352.104 378.114 354.487 373.134 355.193 367.793C355.719 364.039 355.8 360.236 355.437 356.463C355.037 351.546 354.637 346.629 354.375 341.657C354.254 337.102 353.504 332.586 352.146 328.236C349.896 320.153 349.634 311.646 351.381 303.439C351.502 302.448 351.93 301.52 352.605 300.785C353.28 300.05 354.168 299.545 355.144 299.34C355.883 299.184 356.632 299.086 357.385 299.047C358.67 298.681 360.038 298.74 361.286 299.215C362.534 299.69 363.595 300.555 364.311 301.682C366.579 304.98 369.492 307.784 372.873 309.926C376.254 312.068 380.033 313.503 383.984 314.146C393.356 316 402.816 317.379 412.328 318.276C421.442 319.133 430.637 318.429 439.515 316.193C446.955 314.495 453.984 311.339 460.197 306.909C462.344 305.374 464.559 303.811 466.733 302.345C469.673 300.294 471.051 300.544 473.495 303.367C475.938 306.19 477.934 308.592 480.22 311.119C481.748 312.836 483.745 314.07 485.964 314.669C488.183 315.269 490.529 315.207 492.715 314.492C494.564 314.053 496.371 313.453 498.116 312.699C502.634 310.698 507.125 308.628 511.637 306.51C513.196 305.808 513.343 304.271 511.994 302.89L504.71 295.641L501.674 292.334C500.869 291.416 501.085 289.851 502.078 289.535C507.485 287.859 512.914 286.135 518.418 284.501C518.843 284.308 519.313 284.233 519.778 284.282C520.242 284.332 520.685 284.505 521.061 284.783C521.437 285.061 521.731 285.434 521.914 285.864C522.097 286.294 522.162 286.765 522.102 287.229C522.246 293.007 522.293 298.745 522.437 304.523C522.544 306.799 522.768 309.068 522.944 311.316C523.091 311.836 523.429 312.282 523.889 312.565C524.35 312.848 524.9 312.947 525.431 312.843C535.071 309.271 544.322 304.727 553.041 299.279C560.149 294.847 567.077 290.166 574.219 285.52C581.362 280.874 587.013 277.303 593.644 273.58C610.534 263.677 630.325 259.91 649.669 262.919C657.549 264.123 665.598 263.563 673.236 261.279L701.715 253.005L703.894 252.456C705.287 252.14 707.126 253.846 706.773 255.066C706.419 256.286 705.278 258.539 704.869 260.421C704.454 261.386 704.397 262.848 705.672 263.339C710.784 265.44 715.38 268.623 719.145 272.67C722.91 276.717 725.753 281.532 727.48 286.783C729.528 291.723 731.941 296.477 734.279 301.141C734.639 301.562 735.147 301.828 735.697 301.884C736.248 301.94 736.799 301.781 737.236 301.441C737.849 300.991 738.426 300.493 738.962 299.954C745.06 292.687 750.985 285.288 757.276 278.104C761.461 273.158 765.598 268.191 770.058 263.535C779.597 253.632 791.165 245.912 803.969 240.904C808.192 239.19 812.26 237.114 816.125 234.699C823.019 230.632 829.994 226.772 837.156 223.278C845.393 219.275 853.851 215.824 862.17 212.027C870.49 208.231 879.5 204.16 887.979 199.861C897.501 195.057 906.387 189.085 914.431 182.082C918.773 178.232 923.279 174.797 927.662 171.251C928.954 170.084 930.594 169.375 932.328 169.233C934.063 169.09 935.796 169.523 937.26 170.463C938.708 171.371 940.327 171.971 942.017 172.226C943.707 172.481 945.432 172.385 947.083 171.944C950.055 171.279 953.255 170.883 956.103 170.107L1005.6 161.327C1009.75 160.809 1013.8 159.68 1017.62 157.977C1020.63 156.671 1023.09 154.369 1024.6 151.459C1026.12 148.549 1026.58 145.208 1025.92 141.996C1025.53 139.773 1024.91 137.594 1024.09 135.491C1023.11 133.05 1022 130.664 1020.76 128.344C1018.42 123.562 1016.07 118.781 1013.57 114.102C1006.82 101.733 1002.96 87.9926 1002.28 73.915C1002.17 70.8395 1001.75 67.9703 1001.52 64.7842C1000.03 48.5916 997.937 52.7817 1011.22 44.0888C1020.18 38.2799 1029.22 32.6779 1038.04 27.0413C1040.58 24.1813 1043.72 21.9105 1047.22 20.3879C1050.73 18.8652 1054.53 18.1274 1058.35 18.226C1064.3 16.8344 1070.02 14.5958 1075.33 11.5787C1080.32 8.86792 1085.24 5.95018 1090.31 3.32916C1092.67 2.21133 1095.14 1.35865 1097.69 0.786805C1099.17 0.393467 1100.75 0.475764 1102.18 1.02173C1103.62 1.5677 1104.85 2.54981 1105.7 3.83057C1106.38 4.75541 1106.91 5.7835 1107.53 6.73584C1107.99 7.53982 1108.64 8.2248 1109.41 8.73584C1110.18 9.24689 1111.06 9.57009 1111.98 9.67908C1115.04 9.83453 1118.01 10.7023 1120.67 12.2133C1123.35 14.2232 1127.03 14.9518 1128.48 18.491C1126.74 22.7111 1123.64 26.2272 1119.67 28.4787C1116.36 29.3269 1113.33 31.0444 1110.9 33.4536C1110.59 33.8951 1110.43 34.4284 1110.46 34.9685C1110.49 35.5086 1110.69 36.0244 1111.05 36.4327C1112.06 36.8684 1112.89 37.7382 1113.89 38.3393L1119.84 41.6427C1122.17 42.9902 1122.18 45.2244 1119.74 47.3176C1118.55 48.2618 1117.32 49.1418 1116.04 49.954C1111.79 52.5467 1108.42 56.3548 1106.36 60.8853C1102.78 68.0992 1101.39 76.1989 1102.34 84.1942C1102.66 86.8282 1103.37 89.4017 1104.42 91.837C1105.12 94.0449 1106.62 95.9136 1108.62 97.0806C1110.62 98.2475 1112.98 98.6299 1115.25 98.1531C1120.54 97.5363 1125.71 96.1366 1130.58 93.9999C1132.75 93.0942 1134.98 92.3523 1137.25 91.7808C1137.78 91.609 1138.51 92.3201 1139.18 92.6106C1139.86 92.901 1139.38 93.2108 1139.4 93.5625C1139.42 93.93 1139.38 94.2978 1139.28 94.6519C1134.18 108.637 1129.05 122.553 1124.02 136.51C1123.57 137.956 1122.76 139.265 1121.67 140.315C1120.58 141.365 1119.24 142.122 1117.77 142.515C1112.35 144.24 1107.01 146.288 1101.66 148.219C1099.88 148.87 1098.15 149.678 1096.51 150.633C1093.41 152.534 1091.08 155.473 1089.94 158.928C1088.8 162.384 1088.92 166.131 1090.28 169.505C1090.42 169.849 1090.64 170.156 1090.92 170.405C1091.2 170.653 1091.53 170.836 1091.89 170.942C1093.69 171.314 1095.52 171.508 1097.35 171.521L1168.03 172.248C1174.9 172.346 1181.75 171.976 1188.54 172.666C1195.23 174.122 1201.73 176.378 1207.88 179.386C1216.47 182.396 1224.95 185.813 1233.42 189.112C1233.7 189.295 1233.95 189.518 1234.16 189.775C1233.62 190.229 1233.13 190.987 1232.56 190.973C1230.68 191.105 1228.79 191.04 1226.93 190.78C1219.43 189.612 1211.95 188.396 1204.44 187.111C1183.84 183.585 1163.04 181.358 1142.16 180.443L1065.91 176.861C1064 176.783 1062.1 176.939 1060.15 176.957C1059.28 176.984 1058.36 178.472 1058.49 179.5C1058.65 181.201 1059.23 182.834 1060.2 184.247C1061.16 185.66 1062.46 186.807 1063.98 187.581C1066.06 188.473 1068.03 189.606 1070.06 190.595L1070.16 190.354C1069.73 191.367 1069.62 192.808 1068.9 193.297C1062.66 197.702 1056.34 201.901 1050.04 206.168L1038.65 213.788C1037.86 214.304 1038.12 216.076 1039.07 216.54C1040.8 217.286 1042.54 218.033 1044.11 219.166C1045.97 220.194 1047.47 221.76 1048.42 223.658C1049.37 225.555 1049.72 227.697 1049.43 229.798C1049.2 232.048 1048.76 234.271 1048.11 236.437C1047.15 240.078 1046.94 243.875 1047.48 247.6C1047.72 250.445 1048.61 253.195 1050.09 255.637C1051.57 258.078 1053.6 260.143 1056.01 261.671C1058.25 263.119 1060.38 264.725 1062.4 266.478C1063.08 267.005 1063.63 267.674 1064.03 268.438C1064.42 269.202 1064.65 270.042 1064.69 270.902C1064.72 271.761 1064.58 272.618 1064.25 273.414C1063.92 274.21 1063.43 274.926 1062.8 275.512C1060.19 278.295 1057.01 280.477 1053.48 281.906C1044.29 285.781 1034.15 286.799 1024.38 284.829L1015.48 282.943C1009.08 281.783 1002.49 282.341 996.379 284.56C986.153 287.824 977.208 294.214 970.803 302.83C967.918 306.429 966.142 310.79 965.69 315.381C964.449 327.9 964.779 340.525 966.672 352.963C967.424 357.459 968.611 361.743 969.742 366.288C971.599 374.293 971.779 382.596 970.272 390.675C968.764 398.753 965.602 406.433 960.982 413.23C955.737 421.192 949.29 428.293 941.869 434.279C939.509 436.18 937.045 437.921 934.636 439.801C933.152 440.992 931.744 442.272 930.294 443.65C929.941 443.958 929.666 444.345 929.49 444.779C929.313 445.213 929.242 445.682 929.28 446.149C929.318 446.616 929.465 447.067 929.71 447.467C929.954 447.867 930.289 448.203 930.687 448.45C932.307 449.405 934.041 450.151 935.848 450.67C937.747 450.883 939.664 450.883 941.564 450.67C950.66 450.013 959.703 448.745 968.629 446.876C975.074 445.786 980.88 442.331 984.914 437.187C989.824 430.952 994.976 424.821 999.784 418.428C1014.94 398.477 1029.55 378.063 1045.36 358.568C1049.71 353.236 1054.29 348.174 1058.6 342.821C1061.72 339.019 1064.71 335.106 1067.51 330.992C1071.44 325.358 1074.29 319.044 1075.92 312.371C1078.85 302.12 1083.22 292.334 1088.88 283.301C1089.06 282.959 1089.34 282.681 1089.68 282.502C1090.33 282.207 1091.24 281.684 1091.77 281.912C1092.3 282.14 1093.98 283.149 1094.12 284.011C1094.55 286.241 1094.61 288.526 1094.3 290.776C1093.74 294.539 1092.94 298.263 1091.9 301.923C1089.71 309.554 1087.17 317.039 1085.01 324.856C1083.35 330.715 1081.9 336.609 1080.81 342.6C1078.74 353.109 1079.02 363.945 1081.62 374.334C1082.06 375.989 1082.08 377.725 1081.69 379.391C1081.3 381.057 1080.52 382.604 1079.39 383.896C1078.22 385.397 1076.84 386.727 1075.29 387.849C1073.12 389.399 1070.85 390.81 1068.5 392.074C1064.25 394.531 1059.79 396.787 1055.56 399.313C1051.27 401.773 1047.1 404.447 1043.08 407.324C1034.22 413.414 1027.7 422.345 1024.59 432.643C1023.85 435.201 1022.44 437.515 1020.51 439.347C1018.64 441.289 1016.72 443.094 1014.78 444.946C1012.6 447.065 1010.86 449.605 1009.68 452.415C1008.37 455.185 1007.9 458.278 1008.31 461.315C1008.61 465.1 1009.72 468.776 1011.57 472.09C1011.9 472.235 1012.72 472.588 1013.39 472.361C1014.06 472.134 1013.98 471.927 1014.17 471.61C1018.65 463.472 1018.22 465.12 1025.69 465.701C1028.34 465.925 1031.13 466.328 1033.65 466.325C1040.94 466.758 1048.15 464.673 1054.08 460.42C1060.67 455.869 1068.29 453.036 1076.26 452.179C1091.65 449.723 1106.86 446.174 1121.75 441.56C1147.71 433.718 1172.21 421.657 1194.26 405.861C1200.1 401.572 1205.87 397.193 1211.77 393.042C1217.67 388.892 1223.7 384.851 1229.88 381.108C1238.91 375.394 1248.94 371.426 1259.43 369.407C1265.42 368.32 1270.99 365.588 1275.52 361.518C1292.63 346.777 1313.53 337.13 1335.85 333.671C1337.38 333.418 1338.88 333.262 1340.38 333.105C1341.13 333.026 1341.89 333.166 1342.56 333.507C1343.23 333.847 1343.8 334.375 1344.18 335.026L1348.19 340.582C1348.64 341.195 1349.3 341.613 1350.05 341.754C1350.8 341.894 1351.57 341.746 1352.21 341.339L1354.3 340.466C1375.5 330.07 1396.68 319.706 1417.85 309.375C1420.51 307.989 1423.09 306.443 1425.56 304.744C1428.52 302.973 1430.92 300.395 1432.47 297.312C1432.62 296.974 1432.76 296.637 1432.91 296.299C1434.51 292.807 1437.09 289.855 1440.34 287.802C1443.59 285.748 1447.36 284.681 1451.2 284.73C1456.54 284.702 1461.79 283.442 1466.56 281.046C1467.59 280.544 1468.66 280.143 1469.76 279.85C1471.4 279.308 1473.17 279.279 1474.83 279.768C1476.49 280.257 1477.96 281.239 1479.04 282.585C1479.8 283.447 1480.45 284.397 1480.97 285.414C1481.49 286.193 1482.22 286.805 1483.07 287.174C1483.93 287.542 1484.88 287.652 1485.79 287.489C1495.72 287.344 1505.58 285.811 1515.07 282.932C1525.16 279.552 1535.35 276.448 1545.47 273.136C1547.3 272.508 1549.3 272.612 1551.06 273.426C1546.98 281.565 1542.89 289.752 1538.89 297.98C1532.66 310.172 1525.59 321.915 1517.72 333.121C1517.08 334.069 1516.23 334.858 1515.24 335.428C1514.92 335.575 1514.57 335.646 1514.22 335.633C1513.87 335.621 1513.52 335.526 1513.22 335.357C1511.74 334.147 1510.63 332.539 1510.04 330.723C1509.44 328.907 1509.38 326.958 1509.85 325.106C1510.25 323.246 1510.86 321.435 1511.66 319.709C1514.33 312.569 1516.01 305.095 1516.64 297.498C1516.66 296.834 1516.51 296.176 1516.22 295.582C1515.92 294.988 1515.49 294.476 1514.94 294.091C1514.4 293.706 1513.78 293.46 1513.12 293.375C1512.46 293.29 1511.79 293.367 1511.17 293.602C1509.14 294.498 1507.18 295.57 1505.33 296.808C1494.58 303.614 1484.06 310.125 1473.41 316.808C1471.17 318.249 1468.85 319.56 1466.46 320.737C1465.4 321.005 1464.29 321.052 1463.2 320.877C1462.81 320.825 1462.45 320.667 1462.14 320.421C1455.52 315.227 1453.82 315.984 1444.95 317.6C1432.99 319.771 1421.08 322.198 1409.18 324.625C1406.97 325.11 1404.79 325.739 1402.66 326.506C1401.72 326.832 1400.87 327.348 1400.15 328.022C1399.42 328.695 1398.85 329.511 1398.46 330.417C1398.17 331.093 1397.86 331.817 1397.57 332.492C1393.12 344.416 1394.38 342.156 1382.69 348.216C1375.93 351.711 1369.11 355.068 1362.27 358.473C1353.78 362.75 1345.03 366.491 1336.08 369.674C1332.13 371.007 1328.28 372.664 1324.42 374.321C1318.24 376.682 1312.82 380.695 1308.75 385.923C1304.69 391.151 1302.14 397.394 1301.38 403.971C1301.09 406.235 1300.93 408.514 1300.9 410.797C1300.85 411.558 1300.95 412.322 1301.21 413.039C1301.47 413.757 1301.88 414.413 1302.4 414.967C1302.92 415.52 1303.56 415.959 1304.26 416.255C1304.96 416.551 1305.72 416.697 1306.48 416.686C1309.13 416.873 1311.79 416.908 1314.44 416.792C1322.04 416.401 1329.63 415.893 1337.21 415.551C1347.84 414.902 1358.5 415.019 1369.12 415.9C1372.15 416.173 1375.16 416.211 1378.19 416.201C1383.56 416.215 1388.84 414.917 1393.59 412.421C1394.57 411.846 1395.6 411.369 1396.66 410.997C1397.53 410.533 1398.51 410.349 1399.48 410.47C1400.46 410.591 1401.37 411.011 1402.09 411.672C1404.17 413.898 1406.71 415.644 1409.53 416.79C1412.36 417.935 1415.4 418.452 1418.44 418.305C1421.48 418.387 1424.51 418.66 1427.52 419.123C1428.6 419.443 1429.63 419.889 1430.61 420.451C1430.34 421.078 1430.68 422.14 1430.28 422.54C1428.58 424.053 1426.79 425.46 1424.92 426.753C1402.01 442.454 1377.48 455.649 1351.75 466.113C1321.42 478.356 1290.12 488.052 1258.18 495.098C1254.1 495.953 1249.93 496.272 1245.77 496.049C1231.25 495.521 1216.83 495.034 1202.46 494.568C1188.91 494.172 1188.61 494.331 1177.33 502.743C1174.26 505.528 1170.84 507.899 1167.16 509.799C1162.79 511.099 1158.28 511.848 1153.74 512.03C1127.33 514.963 1100.79 516.868 1074.24 518.256C1071.64 518.453 1068.97 518.16 1066.31 518.102L1064.76 514.121C1071.71 508.156 1080 503.972 1088.92 501.932C1098.92 499.545 1108.83 496.716 1118.72 494.052C1120.51 493.517 1122.26 492.858 1123.97 492.08C1123.97 492.08 1124.28 491.356 1124.4 491.066C1124.53 490.777 1124.31 490.342 1124.07 490.239C1122.78 489.484 1121.41 488.891 1119.97 488.475C1106.5 486.052 1093.07 483.65 1079.53 481.372C1075 480.669 1070.39 480.61 1065.83 481.196C1062.47 481.578 1059.06 481.94 1055.66 482.536C1042.91 484.658 1030.15 486.545 1017.25 487.571C1007.76 488.395 998.362 490.094 989.18 492.646C979.984 495.152 971.139 498.799 962.849 503.502C957.039 506.383 951.993 510.6 948.125 515.806C947.398 516.919 946.345 517.78 945.111 518.272C943.876 518.764 942.52 518.863 941.227 518.556C939.725 518.407 938.237 518.131 936.782 517.73C936.348 517.543 935.736 516.308 935.929 515.991C937.423 512.518 939.572 509.383 941.355 506.034C941.77 505.069 941.364 504.551 940.371 504.467C936.236 504.409 932.118 505.012 928.173 506.252C919.345 508.172 910.393 510.381 901.558 512.584C896.776 513.774 891.811 514.044 886.927 513.38C863.171 510.268 839.654 505.54 816.542 499.227C806.56 496.838 796.777 493.681 787.281 489.786C786.365 489.392 786.028 488.847 786.525 488.089C786.695 487.797 786.954 487.568 787.264 487.434C788.767 486.995 790.223 486.535 791.685 486.192C805.31 482.672 818.607 477.986 831.43 472.187C831.795 472.059 832.105 471.808 832.307 471.478C832.77 470.932 833.06 470.26 833.137 469.548C833.074 469.191 832.934 468.852 832.726 468.555C832.518 468.258 832.247 468.01 831.932 467.83C825.061 465.735 817.99 464.361 810.834 463.729C796.082 462.414 781.33 461.1 766.571 459.668L725.748 455.715C721.592 455.404 717.616 453.892 714.302 451.364C697.057 438.195 681.61 422.825 668.353 405.646C667.137 403.745 666.086 401.743 665.211 399.663C664.64 398.732 664.097 397.469 663.249 397.047C660.321 395.254 657.877 392.77 656.131 389.812C652.428 385.133 648.746 380.405 644.665 375.676C638.431 368.455 630.679 362.701 621.964 358.823C606.333 351.825 589.734 347.23 572.73 345.193C542.143 340.871 511.009 342.505 481.041 350.004C469.287 352.997 457.884 357.234 447.027 362.643C434.349 368.832 422.734 376.997 412.618 386.832C402.939 396.047 393.302 405.165 383.623 414.379C382.567 415.47 381.269 416.296 379.835 416.792C378.4 417.287 376.87 417.437 375.366 417.231C360.628 415.751 345.876 414.437 331.124 413.122C328.097 412.85 325.085 412.412 322.045 412.304C318.78 411.972 315.506 412.85 312.846 414.773C310.186 416.696 308.324 419.529 307.614 422.733C307.03 424.937 306.6 427.178 306.329 429.441C303.941 446.022 301.457 462.562 299.283 479.177C299.164 480.492 298.738 481.761 298.038 482.88C297.338 483.999 296.384 484.938 295.254 485.62C292.08 487.685 288.878 489.68 285.628 491.655C285.524 491.897 284.925 491.696 284.525 491.695C284.125 491.695 283.319 491.177 283.52 490.177C284.902 483.111 286.257 475.976 287.624 469.075C289.679 458.982 292.023 449.014 293.127 438.741C293.33 436.542 291.664 435.367 289.463 436.365C274.223 443.309 259.558 451.453 245.608 460.721C238.238 465.491 232.015 471.835 227.388 479.296C225.388 482.55 223.872 486.076 222.885 489.765C222.433 491.611 221.49 493.299 220.154 494.651C214.721 499.974 209.708 505.65 203.848 510.504C192.716 519.808 179.95 526.957 166.202 531.587C160.808 533.497 155.298 535.014 149.842 536.669C148.014 537.198 146.131 537.589 144.276 538.049C137.163 539.662 130.859 543.762 126.5 549.611C121.182 556.528 115.643 563.293 110.18 570.147C109.889 570.822 109.358 571.394 108.874 571.986C107.497 574.505 105.546 576.664 103.179 578.288C100.812 579.912 98.0964 580.955 95.2515 581.334C78.0866 586.338 60.7343 590.67 43.1944 594.331C41.7086 594.521 40.2093 594.584 38.7128 594.518C38.7128 594.518 38.5069 593.801 38.6589 593.58C39.1237 592.574 39.7362 591.643 40.476 590.817C45.2833 586.446 48.8151 580.852 50.6954 574.632C51.1517 573.175 51.7566 571.769 52.5007 570.435C53.0114 569.4 53.7691 568.506 54.7066 567.833C55.6441 567.159 56.7329 566.727 57.8769 566.573C60.8696 566.189 63.8854 566.015 66.9023 566.053C72.2532 566.277 77.5948 565.425 82.6113 563.549C85.8437 562.387 88.7524 560.47 91.0954 557.958C93.4384 555.446 95.1482 552.411 96.0826 549.105C96.2684 548.372 96.3985 547.625 96.4717 546.872C96.7036 545.941 96.5573 544.957 96.0648 544.134C95.5723 543.311 94.7737 542.718 93.8442 542.483C91.6109 542.094 89.3777 541.705 87.1097 541.53C76.5279 540.752 65.8564 540.049 55.3228 539.291L7.52106 536.282C5.24975 536.406 2.98214 535.98 0.911072 535.039C5.53847 524.281 10.1866 513.474 14.814 502.716C17.2211 497.12 19.6076 491.572 21.6563 485.878C22.5071 483.9 23.3578 481.923 24.2086 479.945C24.3907 479.441 24.3923 478.89 24.2132 478.385C24.0341 477.881 23.6853 477.454 23.2265 477.178L31.3609 458.267C35.6788 456.865 40.079 455.671 44.5556 454.166C49.2629 452.531 53.2358 449.276 55.7648 444.981C57.3542 442.349 59.116 439.848 60.7603 437.354C61.2323 436.75 61.87 436.298 62.5953 436.051C63.3206 435.805 64.1018 435.775 64.8436 435.966L75.7114 439.269C76.8186 439.574 78.0009 439.44 79.0123 438.895C80.0236 438.351 80.7863 437.437 81.1414 436.345C82.7023 433.255 83.0515 429.694 82.1206 426.361C80.9949 422.732 79.5385 419.076 78.2609 415.668C75.4284 408.585 73.6301 401.13 72.9212 393.534C72.5751 392.128 72.5545 390.662 72.8609 389.248C73.1674 387.833 73.7928 386.507 74.6895 385.37C75.5863 384.234 76.7305 383.318 78.0351 382.691C79.3398 382.064 80.7703 381.743 82.2175 381.754C87.4639 381.22 92.5162 379.48 96.9787 376.669C97.3199 376.509 97.6225 376.277 97.8662 375.989C98.1098 375.701 98.2886 375.365 98.3905 375.002C98.4924 374.639 98.5151 374.258 98.4567 373.885C98.3984 373.513 98.2605 373.158 98.0526 372.843C92.72 364.063 86.7837 355.664 80.2865 347.708C79.9971 347.583 79.6112 347.417 79.2253 347.251L85.2177 331.592ZM927.195 377.373C919.689 376.088 912.245 374.658 904.814 373.463C886.409 370.665 867.82 369.243 849.203 369.21C846.569 369.22 843.915 369.279 841.288 369.407C840.542 369.538 839.856 369.899 839.326 370.44C838.796 370.981 838.448 371.675 838.333 372.424C838.225 375.464 838.166 378.526 838.01 381.546C838.014 383.642 837.59 385.716 836.762 387.641C835.934 389.566 834.72 391.301 833.196 392.739C828.729 396.877 824.311 401.037 819.666 404.927C815.02 408.818 811.19 411.343 806.98 414.621C804.859 416.212 802.875 417.979 801.05 419.902C800.306 420.782 799.772 421.819 799.49 422.936C799.207 424.053 799.184 425.22 799.421 426.348C799.606 427.513 800.563 428.611 801.542 428.46C809.424 427.277 817.299 425.977 825.16 424.841C833.407 423.445 841.856 423.825 849.944 425.954C864.099 429.985 875.986 424.807 886.375 415.269C887.424 414.291 886.641 412.525 884.891 411.944C884.139 411.819 883.402 411.617 882.692 411.341C882.188 410.899 881.801 410.34 881.564 409.712C881.565 409.523 881.604 409.336 881.679 409.162C881.754 408.988 881.863 408.831 882 408.699C885.353 406.225 889.102 404.338 893.087 403.121C899.481 400.612 905.938 398.358 912.229 395.69C920.047 392.592 926.989 387.629 932.45 381.234C932.803 380.414 932.557 378.593 931.675 378.385L927.195 377.373ZM957.015 317.08C958.53 311.867 958.937 306.394 958.209 301.015C958.174 300.749 958.083 300.494 957.942 300.267C957.801 300.039 957.613 299.844 957.391 299.695C957.169 299.545 956.918 299.444 956.654 299.399C956.39 299.354 956.12 299.365 955.86 299.433C954.115 300.168 952.294 300.814 950.604 301.688C944.107 304.96 936.696 305.942 929.572 304.476C926.243 303.844 922.824 303.288 919.46 302.871C915.315 302.258 911.081 302.721 907.165 304.214C906.838 304.403 906.542 304.643 906.289 304.923C905.688 305.522 905.749 306.178 906.603 306.716C910.667 309.493 914.8 312.243 918.843 315.068C919.712 315.75 920.512 316.516 921.232 317.354C921.522 317.478 921.679 318.175 921.548 318.347C921.417 318.519 920.615 319.718 920.236 319.669C918.36 319.41 916.506 319.014 914.688 318.483C908.359 317.056 902.391 314.341 897.157 310.506C891.923 306.671 887.535 301.799 884.267 296.194L883.578 295.269C883.191 294.873 882.671 294.633 882.118 294.596C881.565 294.558 881.017 294.725 880.58 295.066C879.622 295.695 878.711 296.392 877.853 297.152C876.215 298.734 874.244 299.931 872.084 300.654C869.924 301.377 867.629 301.607 865.369 301.329C861.561 301.061 857.739 301.61 854.161 302.94C850.582 304.27 847.329 306.35 844.62 309.04C839.373 313.93 834.484 319.316 829.513 324.496C829.215 324.741 828.969 325.043 828.788 325.384C827.96 326.652 827.44 328.096 827.269 329.601C827.098 331.106 827.281 332.629 827.804 334.051C828.931 336.479 831.814 335.49 833.944 335.72C837.762 335.961 841.585 335.339 845.129 333.9C850.974 331.827 857.282 331.431 863.339 332.756C871.9 334.38 880.426 336.218 888.799 338.676C894.672 340.368 900.928 340.181 906.69 338.14C914.771 335.642 921.592 330.149 925.754 322.786C926.784 321.056 927.625 320.961 929.52 321.604C931.917 322.736 934.455 323.539 937.066 323.993C942.007 324.321 946.965 323.676 951.658 322.093C952.851 321.659 953.943 320.986 954.867 320.116C955.792 319.246 956.53 318.197 957.035 317.032L957.015 317.08ZM655.008 330.102L648.783 344.575C648.578 345.299 648.618 346.07 648.896 346.769C649.174 347.467 649.675 348.054 650.322 348.439C660.982 354.487 673.4 356.679 685.488 354.646C688.512 354.262 691.412 353.209 693.978 351.563C696.544 349.918 698.712 347.722 700.324 345.135C700.529 344.63 700.575 344.076 700.456 343.544C700.337 343.013 700.06 342.531 699.66 342.162C698.261 341.56 697.028 340.573 695.699 339.944L687.41 336.093C687.151 336.002 686.916 335.854 686.722 335.66C686.528 335.466 686.379 335.231 686.288 334.972C686.196 334.714 686.164 334.438 686.193 334.165C686.222 333.892 686.312 333.629 686.455 333.395C686.746 332.72 687.374 332.19 687.761 331.556C689.252 329.567 689.99 327.114 689.843 324.633C689.697 322.152 688.675 319.803 686.96 318.005C685.337 315.885 683.253 314.161 680.866 312.966C678.478 311.771 675.85 311.135 673.18 311.106C670.547 311.117 667.906 311.41 665.237 311.635C664.478 311.672 663.745 311.928 663.128 312.373C662.51 312.818 662.035 313.431 661.759 314.14L655.008 330.102ZM187.946 503.093C187.78 503.479 188.361 502.128 188.577 500.563C188.652 500.194 188.639 499.812 188.54 499.449C188.442 499.085 188.259 498.75 188.008 498.47C187.756 498.189 187.443 497.972 187.092 497.834C186.741 497.697 186.364 497.643 185.988 497.678C175.135 498.726 164.137 499.713 153.256 501.092C143.893 502.523 134.398 502.888 124.953 502.182C119.454 501.779 113.931 502.527 108.736 504.377C103.541 506.228 98.789 509.14 94.7818 512.929C94.2763 513.49 93.8381 514.107 93.4761 514.769C92.963 515.569 92.7798 516.537 92.9649 517.47C93.15 518.402 93.689 519.226 94.4688 519.769C95.1966 520.383 96.0399 520.845 96.9488 521.128C97.8577 521.411 98.814 521.509 99.7615 521.417C102.376 521.027 104.968 520.501 107.527 519.841L125.23 516.021C130.06 514.824 135.162 515.469 139.54 517.832C144.991 520.623 151.213 521.53 157.235 520.412C164.707 519.078 172.001 516.881 178.968 513.867C181.167 512.893 183.113 511.429 184.658 509.586C186.204 507.744 187.307 505.572 187.883 503.238L187.946 503.093ZM1222.52 455.633C1233.22 459.321 1230.45 459.787 1240.29 454.186L1252.25 447.498L1268.4 438.381C1269.38 437.831 1270.38 437.232 1271.34 436.612C1271.98 436.21 1272.49 435.62 1272.79 434.922C1273.09 434.223 1273.17 433.45 1273.02 432.705L1268.55 412.661C1268.33 411.932 1268.33 411.156 1268.54 410.426C1268.75 409.696 1269.17 409.043 1269.75 408.546C1272.3 406.224 1274.01 403.11 1274.58 399.704C1274.61 399.163 1274.49 398.624 1274.25 398.14C1274.01 397.655 1273.65 397.241 1273.2 396.938C1272.37 396.475 1271.45 396.194 1270.5 396.115C1269.56 396.036 1268.6 396.16 1267.71 396.479C1266.81 396.798 1266 397.304 1265.32 397.964C1264.63 398.624 1264.1 399.422 1263.75 400.305C1263 402.042 1262.25 403.778 1261.51 405.515C1260.54 408.417 1259.68 411.36 1258.74 414.214C1256.66 421.231 1251.95 427.175 1245.6 430.803C1238.02 435.144 1230.8 440.1 1223.42 444.76C1220.88 446.411 1218.16 448.215 1215.61 449.632C1215.32 449.842 1215.08 450.108 1214.9 450.413C1214.72 450.719 1214.61 451.058 1214.56 451.41C1214.6 451.752 1214.73 452.078 1214.93 452.362C1215.12 452.645 1215.38 452.877 1215.69 453.039C1218.11 454.31 1220.36 454.934 1222.52 455.633ZM743.446 421.08C744.534 417.089 745.836 413.132 746.662 409.086C747.123 407.038 746.929 404.897 746.11 402.965C745.29 401.033 743.885 399.407 742.092 398.316C740.605 397.107 738.71 396.517 736.8 396.669C733.062 397.119 729.325 397.57 725.621 398.206C724.154 398.584 722.734 399.123 721.386 399.815C719.231 400.978 717.531 402.836 716.563 405.086C715.595 407.337 715.415 409.848 716.053 412.213C718.926 418.823 721.757 425.529 724.368 432.083C725.722 435.18 727.144 438.251 728.615 441.342C728.966 442.121 731.075 442.4 731.552 441.69C735.862 435.128 739.799 428.327 743.342 421.321L743.446 421.08ZM1018.23 201.061C1017.76 202.031 1017.43 203.064 1017.26 204.128C1016.56 212.402 1015.86 220.676 1015.3 229.012C1015.27 229.743 1015.29 230.495 1015.29 231.295C1015.27 231.564 1015.3 231.835 1015.39 232.091C1015.48 232.346 1015.62 232.582 1015.8 232.783C1015.98 232.983 1016.2 233.145 1016.44 233.259C1016.69 233.372 1016.95 233.434 1017.22 233.441C1018.34 233.44 1019.46 233.368 1020.57 233.225C1033.65 230.731 1031.33 232.935 1030.93 220.984C1030.93 217.966 1030.71 214.952 1030.29 211.964C1029.92 209.329 1028.8 206.856 1027.06 204.841C1025.32 202.827 1023.04 201.355 1020.49 200.602C1019.81 200.594 1019.01 201.11 1018.13 201.302L1018.23 201.061ZM771.738 339.492L761.105 335.776C759.899 335.257 758.291 336.738 758.164 338.227C757.75 339.705 757.665 341.256 757.915 342.77C758.164 344.284 758.743 345.725 759.609 346.991C760.476 348.258 761.609 349.319 762.93 350.1C764.25 350.881 765.726 351.363 767.253 351.512C769.445 351.95 771.671 352.2 773.905 352.258C774.371 352.299 774.84 352.244 775.284 352.099C775.728 351.953 776.138 351.719 776.489 351.411C776.841 351.103 777.127 350.727 777.329 350.306C777.531 349.885 777.646 349.427 777.667 348.96C778.055 346.939 777.642 344.847 776.517 343.126C775.391 341.404 773.64 340.188 771.634 339.733L771.738 339.492ZM620.876 323.482C618.004 321.389 616.439 321.574 615.14 323.53C613.841 325.487 612.052 327.919 610.615 329.931C610.183 330.539 609.977 331.28 610.033 332.024C610.089 332.768 610.402 333.469 610.919 334.006C612.603 335.994 614.447 337.839 616.434 339.523C617.054 340.075 618.619 339.891 619.44 339.444C620.686 338.649 621.825 337.698 622.829 336.614C628.814 331.47 626.619 328.468 622.549 324.774C621.985 324.378 621.391 324.027 620.772 323.723L620.876 323.482ZM277.125 423.855C276.498 423.585 275.534 423.17 275.023 423.694C269.032 428.72 263.116 433.836 257.076 438.842C256.937 438.971 256.827 439.128 256.752 439.302C256.677 439.477 256.639 439.665 256.64 439.855C256.681 440.558 256.707 441.427 257.107 441.828C257.728 442.13 258.416 442.269 259.105 442.23C259.482 442.175 259.833 442.007 260.113 441.749C265.849 436.384 271.565 431.068 277.275 425.634C277.516 425.738 277.083 424.751 277.022 424.096L277.125 423.855ZM1185.64 471.613C1186.09 472.152 1186.45 473.048 1186.92 473.139C1191.05 473.508 1195.21 472.93 1199.08 471.45C1199.6 471.223 1200.06 470.888 1200.44 470.469C1200.81 470.05 1201.1 469.556 1201.27 469.019C1201.64 468.101 1201.82 467.119 1201.8 466.13C1201.78 465.142 1201.57 464.166 1201.18 463.261C1200.8 462.412 1200.37 461.943 1199.34 462.473C1194.38 464.264 1189.79 466.961 1185.8 470.427C1185.67 470.882 1185.67 471.399 1185.58 471.758L1185.64 471.613ZM112.642 401.643C112.506 402.08 112.445 402.537 112.461 402.994C113.44 407.76 114.488 412.499 115.537 417.238C115.573 417.418 115.645 417.589 115.749 417.74C115.853 417.892 115.987 418.021 116.142 418.12C116.297 418.218 116.47 418.285 116.651 418.315C116.833 418.345 117.018 418.338 117.197 418.295C118.39 418.179 120.011 417.333 119.902 416.657C119.295 411.822 118.619 407.015 117.923 402.256C118.047 401.967 117.531 401.573 117.373 401.277C117.32 401.087 117.226 400.912 117.097 400.764C116.967 400.616 116.807 400.498 116.626 400.421C116.446 400.343 116.25 400.307 116.053 400.315C115.857 400.323 115.665 400.375 115.491 400.467L112.642 401.643Z" fill="#05003E"/>
</svg>
