<svg width="850" height="496" viewBox="0 0 850 496" fill="none" xmlns="http://www.w3.org/2000/svg">
<path d="M846.672 216.802C842.246 220.625 836.272 225.535 830.969 225.417C818.818 225.153 811.185 231.961 801.838 236.344C793.731 240.158 785.172 243.196 776.713 246.364C771.308 248.464 766.101 250.959 761.141 253.822C754.868 257.404 747.104 261.286 753.668 271.52C742.646 258.194 733.22 267.739 724.487 271.474C720.898 273.007 719.627 278.89 717.317 282.784L719.276 285.673C715.704 285.458 711.716 286.127 708.646 284.851C700.401 281.425 684.442 282.806 678.54 289.047C676.916 290.758 678.544 294.823 677.997 297.692C677.45 300.561 676.055 303.313 675.029 306.115C671.645 304.927 666.087 304.456 665.329 302.5C661.713 293.22 656.911 295.095 651.013 299.796C650.254 300.486 649.361 301.043 648.379 301.44C636.474 305.288 633.901 311.551 642.424 321.071C643.368 322.086 642.994 324.078 643.81 329.441C635.159 325.063 629.209 321.733 622.978 319.061C620.535 318.013 616.631 317.251 614.691 318.308C606.946 322.534 602.405 328.706 602.485 337.63C602.552 347.234 599.38 349.071 589.017 346.735C573.66 343.281 565.646 347.844 564.744 361.317C564.313 367.633 560.558 369.124 554.89 368.926C552.765 368.879 550.7 367.957 548.626 367.372C532.061 362.71 528.263 364.243 517.803 381.638L506.093 369.743C505.016 370.621 503.94 371.5 502.868 372.384L507.087 382.513C501.787 384.825 493.451 386.089 490.336 390.494C487.352 394.658 488.35 402.589 490.358 408.07C492.559 414.083 497.922 419.2 502.585 425.69C493.713 427.071 488.672 424.348 482.938 419.336C458.471 397.956 457.277 372.328 462.985 345.003C464.453 337.933 465.44 330.749 466.263 323.578C466.509 321.438 466.28 318.002 464.856 317.11C456.089 311.679 454.002 299.724 441.947 297.605C441.113 297.459 440.404 296.35 439.752 295.604C432.704 287.512 432.842 263.563 441.267 257.752C456.432 247.305 468.933 235.271 476.1 218.9C477.037 216.752 479.664 215.236 483.361 211.726C483.563 219.114 483.172 224.221 483.928 229.206C484.92 235.699 486.132 242.316 488.622 248.438C489.91 251.613 494.162 253.835 497.075 256.485C498.912 253.593 500.646 250.647 502.575 247.854C504.504 245.062 506.693 242.391 509.105 239.211C517.871 252.081 518.635 252.186 529.507 243.244C535.402 238.394 535.402 238.394 541.65 244.552C530.603 248.272 526.586 265.981 534.134 277.631C536.181 280.782 538.276 283.84 541.486 285.378C545.816 287.728 551.806 289.246 553.833 292.677C555.112 294.858 550.843 300.069 548.427 303.535C545.731 307.405 542.295 310.838 539.187 314.466L541.25 317.322C549.404 315.65 557.597 314.109 565.708 312.29C588.584 307.147 611.641 302.488 634.187 296.408C643.592 293.866 651.677 287.712 660.81 284.105C666.833 281.731 673.692 279.483 680.093 279.753C697.895 280.52 709.498 269.153 723.924 263.428C733.897 259.472 743.383 254.511 753.381 250.592C769.775 244.175 787.462 238.308 802.136 229.593C819.1 219.526 833.146 205.416 848.451 193.062L846.03 189.932C837.576 193.039 829.112 196.146 822.058 198.731C813.446 199.15 805.367 200.925 797.942 199.476C791.749 198.245 786.384 193.215 780.137 189.565L777.201 197.719C770.041 193.993 763.521 192.758 757.09 188.853C752.36 186.006 748.555 181.915 743.941 178.857C733.5 171.895 722.448 168.963 710.496 176.363C703.38 166.476 696.477 157.556 690.424 148.196C686.402 141.971 683.244 141.082 677.174 146.056C665.584 155.603 661.859 154.204 656.711 139.721C655.369 135.928 654.045 132.122 652.696 128.334C648.607 116.823 648.004 116.577 635.716 121.122C630.491 123.056 627.239 122.38 623.024 117.613C617.506 111.379 609.567 106.938 602.71 101.67C600.524 99.9919 596.966 98.3149 596.645 96.3356C594.278 81.8319 580.833 82.9515 570.414 80.1301C564.314 78.4613 557.717 78.294 551.783 76.3003C541.338 72.8014 531.717 71.1622 522.272 78.2037C519.229 80.5267 514.551 81.0911 507.153 83.6657C508.902 76.7864 508.985 71.8963 511.318 68.2292C520.684 53.328 516.696 41.6561 499.101 34.7343C497.467 34.0963 495.76 33.5141 494.404 33.0409C494.037 31.9636 493.813 31.3425 493.629 30.7194L489.901 18.0087C488.098 21.8652 485.21 25.6071 484.77 29.6201C484.142 34.8482 484.687 40.1372 486.372 45.1698C491.798 60.4013 493.526 96.2011 488.821 112.276L485.841 112.43C484.725 97.7258 484.367 82.9425 482.287 68.333C480.207 53.7236 476.354 39.11 473.168 23.9495C466.528 30.4046 463.962 24.0205 460.534 19.9438C455.716 14.194 451.361 8.09107 445.88 2.84768C443.869 0.932181 439.388 1.20482 436.009 0.447266C435.552 3.85021 433.956 7.49237 434.832 10.6043C438.873 25.0175 444.412 39.1167 447.815 53.6494C450.22 63.9095 450.521 74.626 450.818 85.1375C450.89 88.5711 448.033 91.9777 446.514 95.4008C435.27 92.3416 432 87.1924 436.107 78.5409C441.954 66.2226 439.594 53.9297 434.998 40.195C431.972 43.1843 429.972 45.1633 426.519 48.5544C424.83 42.8573 423.262 38.6429 422.347 34.3256C420.475 25.6007 417.647 17.8508 411.058 13.1049C409.592 24.9537 406.807 37.7339 400.462 49.1492C383.959 78.8427 365.609 86.7817 365.609 86.7817C365.609 86.7817 360.956 87.3736 353.796 88.6261C354.154 89.9181 354.415 91.2306 354.578 92.5546C354.961 95.4392 358.031 99.1863 360.954 100.528C372.61 105.865 387.863 106.947 389.479 123.061C389.589 124.118 391.33 125.051 392.238 126.093C398.387 133.353 408.308 140.08 409.865 148.008C413.568 166.8 422.233 183.679 429.704 201.074C434.556 212.455 439.41 213.557 449.518 207.272C452.859 205.203 457.997 205.513 462.348 204.765C462.086 208.387 463.093 212.681 461.348 215.503C452.579 229.335 443.272 242.891 433.668 256.228C431.777 258.86 427.692 260.141 423.087 262.988C420.844 256.884 419.057 252.346 417.508 247.749C412.741 233.674 411.747 216.943 402.416 206.173C392.067 194.276 391.303 183.979 392.286 170.906C392.925 162.385 390.243 153.506 388.268 144.916C387.835 143.031 384.121 141.7 381.92 140.117C380.511 142.07 379.091 144.012 377.698 145.971C376.473 147.708 375.274 149.463 373.511 151.997C366.439 144.395 362.244 136.652 365.689 128.553C369.695 119.121 366.799 112.819 358.661 107.181C351.974 112.88 345.327 111.384 342.357 103.347C341.206 100.219 339.571 96.7153 340.134 93.7299C340.287 92.9436 340.484 92.0583 340.734 91.1413C329.996 93.3559 319.446 96.2625 309.165 99.8389C306.102 110.295 302.205 120.549 299.086 131.001C297.046 137.848 296.014 144.962 293.886 154.968L319.862 145.629C320.669 146.832 321.577 147.629 321.715 148.504C324.062 163.277 326.523 178.039 328.443 192.846C329.009 197.203 327.971 201.692 327.693 206.147C323.819 204.22 319.904 202.316 316.006 200.419C315.687 200.266 315.3 200.241 314.974 200.103C302.845 194.807 300.068 188.979 303.929 177.423C305.24 173.518 306.155 169.501 307.021 166.36L292.744 159.111C291.112 162.055 289.356 165.951 286.915 169.436C283.011 175.028 278.645 175.458 274.847 169.014C273.479 166.693 272.784 164.056 271.588 161.64C267.594 153.565 258.806 151.054 250.806 155.05L227.392 181.487C227.392 181.487 233.237 186.585 240.373 193.507C243.504 195.083 246.908 196.166 250.439 196.71C254.211 197.319 259.912 200.471 260.563 203.208C264.015 217.703 272.679 226.145 285.979 226.616C290.145 235.692 293.314 242.992 296.882 250.139C297.86 251.914 299.459 253.345 301.429 254.211C310.124 257.82 318.974 261.113 326.096 263.869C322.624 269.546 317.874 273.814 318.099 277.96C318.309 281.845 324.388 289.007 326.829 288.699C331.967 288.048 338.863 284.385 340.655 280.293C344.709 271.003 350.47 273.034 358.441 275.651L353.729 288.318C358.992 286.648 363.892 286.479 365.956 284.178C373.182 276.105 382.444 278.868 390.876 280.415C396.488 281.448 401.629 285.263 398.727 292.212C398.362 293.094 398.003 294.443 398.468 295.087C406.722 306.557 397.022 310.136 389.064 315.184C385.472 317.465 383.516 321.862 379.274 327.269L371.236 326.269C375.753 335.925 381.441 338.135 387.575 331.528C397.416 320.941 406.115 309.406 414.471 297.793C418.898 291.689 421.686 284.573 425.695 276.968C432.168 297.877 442.154 317.406 443.05 337.086C443.76 352.639 433.869 368.61 427.048 383.764C426.164 385.722 414.771 384.897 409.002 383.136C404.05 381.628 400.182 376.944 394.926 372.971C391.06 375.226 386.638 377.81 381.797 380.639C373.75 375.535 375.066 368.637 376.039 361.304C376.782 355.703 376.269 349.815 375.398 344.135C374.338 337.402 371.312 333.31 362.111 335.546C357.481 336.677 351.784 334.512 347.195 333.886C350.953 323.908 353.124 314.227 358.177 306.088C361.573 300.667 363.148 296.184 356.547 294.737C352.67 293.926 344.851 297.916 343.208 301.508C333.879 321.887 325.824 342.773 317.513 363.553C316.186 366.848 316.362 370.739 314.693 373.824C313.167 376.658 310.479 379.776 307.452 380.851C305.962 381.386 301.865 377.999 300.164 375.668C298.214 372.989 297.523 369.539 296.448 366.381C291.229 351.037 278.815 347.872 265.837 350.154C267.143 340.672 268.872 331.611 269.418 322.454C269.643 318.747 267.967 314.54 265.974 311.111C261.342 303.155 256.958 302.985 250.982 309.896C249.918 311.123 248.754 312.266 247.543 313.549C237.528 300.623 238.116 299.175 247.49 287.19C250.099 283.841 248.465 277.688 248.776 272.821C244.826 273.81 240.834 274.698 236.953 275.851C235.316 276.328 233.871 277.393 232.002 278.359L236.919 288.266C221.063 284.646 219.81 286.196 223.227 299.983C224.238 304.057 222.887 308.568 222.611 312.88L218.741 313.195L214.305 299.017C207.932 304.326 205.897 310.216 210.717 317.031C214.614 322.54 219.606 325.96 226.717 320.493C227.611 319.81 232.129 321.075 232.613 322.223C236.373 331.053 236.731 348.712 222.161 353.275C215.424 348.896 217.95 343.243 218.579 337.342C218.981 333.612 217.639 328.018 214.785 326.002C210.405 322.916 205.393 317.785 198.065 324.361C189.422 332.12 186.602 330.285 181.625 317.416C172.136 314.017 161.626 313 156.66 307.683C151.87 302.534 152.758 292.984 151.333 286.294C155.317 283.865 157.706 282.372 160.151 280.929C157.899 279.122 155.761 277.172 153.367 275.549C141.533 267.491 136.32 276.308 129.265 285.56C121.485 277.499 114.795 270.464 107.963 263.555C105.653 261.218 102.964 259.188 100.463 257.025C98.6767 255.485 96.4436 254.192 95.1823 252.355C84.7081 258.693 57.5225 239.681 57.5225 239.681L72.0792 277.593C72.0792 277.593 64.084 276.08 49.1559 278.681C81.0938 297.062 112.67 315.984 144.886 333.936C175.717 351.116 207.757 366.139 242.37 376.085C252.641 379.039 261.819 385.202 271.863 389.064C286.163 394.57 300.981 398.888 315.177 404.605C319.715 406.43 323.348 410.783 326.691 414.5C331.495 419.842 335.883 425.479 339.825 431.371C340.875 432.936 340.359 437.215 339.084 437.858C332.532 441.163 315.822 435.584 309.619 427.215L326.171 430.039C320.796 426.431 317.794 424.178 314.536 422.263C306.862 417.751 299.507 412.562 291.278 409.276C280.469 404.961 268.837 402.481 257.757 398.702C249.24 395.777 239.545 394.506 236.039 384.417C234.109 378.885 220.244 376.677 213.979 380.838C204.726 387.045 196.227 392.431 182.945 390.391C175.061 389.198 166.359 393.626 157.947 395.278C139.643 398.882 125.953 389.602 123.496 372.461C122.711 366.941 120.497 361.551 119.529 356.058C118.925 352.645 120.051 348.966 119.206 345.642C117.876 339.915 115.813 334.349 113.06 329.055C112.603 328.206 103.554 329.251 103.258 330.477C99.8343 344.697 86.8874 347.369 74.9164 352.87C61.1339 359.197 47.271 361.881 32.3926 360.598C28.5385 360.163 24.7582 359.3 21.1366 358.029C20.4628 357.808 19.789 357.587 19.1161 357.356C11.3133 369.508 3.77935 383.481 0.443848 396.229C7.77566 395.642 15.1403 395.463 22.4963 395.693C23.4308 395.725 24.3756 395.767 25.3091 395.808C29.4164 396.01 33.4995 396.35 37.5582 396.827C53.233 398.709 68.3519 402.835 81.9598 409.812C93.3376 415.645 105.254 421.519 117.72 427.302C133.593 421.871 149.455 416.422 165.308 410.956C174.636 407.738 179.94 412.645 183.343 419.436C190.355 433.43 197.418 447.422 204.036 461.573C209.544 463.377 215.127 465.132 220.787 466.839C215.053 457.15 209.462 447.381 203.745 437.688C201.106 433.207 198.987 428.479 195.538 421.751C206.389 423.761 214.496 424.869 222.378 426.809C240.874 431.355 260.238 434.54 271.587 451.585C272.932 453.613 276.394 454.515 278.771 455.952C300.819 469.082 325.103 472.433 350.53 471.564C355.557 471.375 361.633 472.515 365.647 475.107C375.762 481.64 385.794 488.264 395.653 495.058C415.875 495.609 436.796 495.233 458.416 493.93C451.84 490.72 444.585 487.519 441.323 482.468C436.555 475.105 433.303 474.383 425.361 476.798C408.59 481.881 396.541 477.532 391.853 465.555C393.948 464.597 396.047 463.352 398.304 462.657C418.96 456.144 439.627 449.633 460.364 443.331C467.12 441.275 474.132 438.184 480.99 438.397C513.126 439.383 545.28 440.723 575.942 452.093C578.528 453.05 582.032 452.61 584.88 451.991C589.82 450.925 594.714 447.707 599.382 448.15C601.427 448.384 603.428 448.859 605.337 449.562L836.115 273.361C842.275 253.85 846.764 233.938 849.542 213.801C848.683 214.874 847.723 215.879 846.672 216.802ZM612.756 286.033C614.619 295.867 610.941 298.827 603.981 297.296C601.967 296.854 600.502 294.116 598.786 292.428L612.756 286.033ZM321.502 246.512C320.456 243.766 318.109 240.74 318.654 238.316C319.575 234.35 322.363 230.769 324.771 226.366C336.905 230.113 333.221 236.971 329.693 242.945C328.545 244.944 324.325 245.375 321.502 246.512ZM340.49 372.994L338.158 358.002L343.686 357.401L345.181 372.589C343.616 372.719 342.05 372.859 340.49 372.994ZM206.19 412.091C206.66 411.232 207.137 410.368 207.609 409.499L230.729 419.452C230.157 420.605 229.582 421.755 229.003 422.9L206.19 412.091ZM449.205 382.3C448.73 388.121 448.629 393.987 447.585 399.734C447.276 401.46 444.493 402.764 442.859 404.285C441.269 402.341 437.94 399.914 438.369 398.53C440.247 392.505 443.215 386.779 445.787 380.941L449.205 382.3ZM385.474 450.061C379.479 450.753 373.304 450.235 367.262 450.766C361.778 451.257 354.432 450.823 351.345 453.792C343.848 461.025 335.805 462.112 325.387 461.685C315.471 461.251 306.122 462.477 301.606 449.936C307.624 448.999 313.26 448.156 318.875 447.244C331.542 445.2 345.068 444.829 356.709 440.495C367.431 436.504 376.176 438.388 385.67 441.736C387.426 442.348 390.109 444.74 389.827 445.511C389.218 447.296 387.229 449.833 385.453 450.039L385.474 450.061Z" fill="#05003E"/>
</svg>
